SplineFontDB: 3.0
FontName: NovaFlat-Book
FullName: Nova Flat Book
FamilyName: Nova Flat
Weight: Book
Copyright: Copyright (c) 2020-2024 by Wojciech Kalinowski "wmk69" with Reserved Font Name "NovaFlat-Book".\nThis Font Software is licensed under the SIL Open Font License, Version 1.1.
Version: 3.1.0; 2021-05-23
ItalicAngle: 0
UnderlinePosition: -80
UnderlineWidth: 200
Ascent: 1638
Descent: 410
InvalidEm: 0
LayerCount: 2
Layer: 0 1 "Warstwa t+AUIA-a" 1
Layer: 1 1 "Plan pierwszy" 0
XUID: [1021 783 23647091 8360855]
StyleMap: 0x0040
FSType: 0
OS2Version: 3
OS2_WeightWidthSlopeOnly: 0
OS2_UseTypoMetrics: 1
CreationTime: 1260698820
ModificationTime: 1621761429
PfmFamily: 33
TTFWeight: 400
TTFWidth: 5
LineGap: 200
VLineGap: 0
Panose: 2 12 5 4 2 5 3 6 2 4
OS2TypoAscent: 2000
OS2TypoAOffset: 0
OS2TypoDescent: -500
OS2TypoDOffset: 0
OS2TypoLinegap: 200
OS2WinAscent: 2000
OS2WinAOffset: 0
OS2WinDescent: 500
OS2WinDOffset: 0
HheadAscent: 2000
HheadAOffset: 0
HheadDescent: -500
HheadDOffset: 0
OS2SubXSize: 1434
OS2SubYSize: 1331
OS2SubXOff: 0
OS2SubYOff: 287
OS2SupXSize: 1434
OS2SupYSize: 1331
OS2SupXOff: 0
OS2SupYOff: 977
OS2StrikeYSize: 102
OS2StrikeYPos: 512
OS2CapHeight: 1530
OS2XHeight: 1120
OS2Vendor: '    '
OS2CodePages: 20000093.00000000
OS2UnicodeRanges: 8000002f.4000204b.00000000.00000000
Lookup: 258 0 0 "'kern' Horizontal Kerning lookup 0" { "'kern' Horizontal Kerning lookup 0-1 subtable" [307,0,4] } ['kern' ('DFLT' <'dflt' > 'grek' <'dflt' > 'latn' <'dflt' > ) ]
MarkAttachClasses: 1
DEI: 91125
KernClass2: 65 55 "'kern' Horizontal Kerning lookup 0-1 subtable"
 134 A M N Agrave Aacute Acircumflex Atilde Adieresis Aring Ntilde Amacron Abreve Aogonek Nacute Ncommaaccent Ncaron Eng Aringacute uni1E40
 28 B germandbls uni1E02 uni1E9E
 47 C Ccedilla Cacute Ccircumflex Cdotaccent Ccaron
 122 D O Q Eth Ograve Oacute Ocircumflex Otilde Odieresis Oslash Dcaron Dcroat Omacron Obreve Ohungarumlaut Oslashacute uni1E0A

StartChar: .notdef
Encoding: 65536 -1 0
Width: 994
Flags: W
HStem: 0 68<260 734> 1442 68<260 734>
VStem: 150 110<68 1442> 734 110<68 1442>
LayerCount: 2
Fore
SplineSet
150 0 m 1,0,-1
 150 1510 l 1,1,-1
 844 1510 l 1,2,-1
 844 0 l 1,3,-1
 150 0 l 1,0,-1
260 68 m 1,4,-1
 734 68 l 1,5,-1
 734 1442 l 1,6,-1
 260 1442 l 1,7,-1
 260 68 l 1,4,-1
EndSplineSet
Validated: 1
EndChar

StartChar: exclam
Encoding: 33 33 4
Width: 600
GlyphClass: 2
Flags: W
HStem: -20 245<216.097 383.903> 1510 20G<347.778 400>
VStem: 180 240<17.1285 187.871> 200 200<490 1440>
LayerCount: 2
Fore
SplineSet
300 -20 m 128,-1,1
 250 -20 250 -20 215 16 c 128,-1,2
 180 52 180 52 180 102.5 c 128,-1,3
 180 153 180 153 215 189 c 128,-1,4
 250 225 250 225 300 225 c 128,-1,5
 350 225 350 225 385 189 c 128,-1,6
 420 153 420 153 420 102.5 c 128,-1,7
 420 52 420 52 385 16 c 128,-1,0
 350 -20 350 -20 300 -20 c 128,-1,1
390 1530 m 1,8,-1
 400 1530 l 1,9,-1
 400 490 l 1,10,-1
 210 400 l 1,11,-1
 200 400 l 1,12,-1
 200 1440 l 1,13,-1
 390 1530 l 1,8,-1
EndSplineSet
Validated: 1
EndChar

StartChar: quotedbl
Encoding: 34 34 5
Width: 453
GlyphClass: 2
Flags: W
HStem: 1140 440
VStem: 50 120<1192 1528> 283 120<1192 1528>
LayerCount: 2
Fore
SplineSet
393 1580 m 1,0,-1
 403 1580 l 1,1,-1
 403 1192 l 1,2,-1
 293 1140 l 1,3,-1
 283 1140 l 1,4,-1
 283 1528 l 1,5,-1
 393 1580 l 1,0,-1
160 1580 m 1,6,-1
 170 1580 l 1,7,-1
 170 1192 l 1,8,-1
 60 1140 l 1,9,-1
 50 1140 l 1,10,-1
 50 1528 l 1,11,-1
 160 1580 l 1,6,-1
EndSplineSet
Validated: 1
EndChar

StartChar: numbersign
Encoding: 35 35 6
Width: 1368
GlyphClass: 2
Flags: W
HStem: 520 120<202 448 568 800 920 1166> 872 120<202 448 568 800 920 1166>
VStem: 448 120<274 520 640 872 992 1238> 800 120<274 520 640 872 992 1238>
LayerCount: 2
Fore
SplineSet
558 1290 m 1,0,-1
 568 1290 l 1,1,-1
 568 992 l 1,2,-1
 800 992 l 1,3,-1
 800 1238 l 1,4,-1
 910 1290 l 1,5,-1
 920 1290 l 1,6,-1
 920 992 l 1,7,-1
 1218 992 l 1,8,-1
 1218 982 l 1,9,-1
 1166 872 l 1,10,-1
 920 872 l 1,11,-1
 920 640 l 1,12,-1
 1218 640 l 1,13,-1
 1218 630 l 1,14,-1
 1166 520 l 1,15,-1
 920 520 l 1,16,-1
 920 274 l 1,17,-1
 810 222 l 1,18,-1
 800 222 l 1,19,-1
 800 520 l 1,20,-1
 568 520 l 1,21,-1
 568 274 l 1,22,-1
 458 222 l 1,23,-1
 448 222 l 1,24,-1
 448 520 l 1,25,-1
 150 520 l 1,26,-1
 150 530 l 1,27,-1
 202 640 l 1,28,-1
 448 640 l 1,29,-1
 448 872 l 1,30,-1
 150 872 l 1,31,-1
 150 882 l 1,32,-1
 202 992 l 1,33,-1
 448 992 l 1,34,-1
 448 1238 l 1,35,-1
 558 1290 l 1,0,-1
800 872 m 1,36,-1
 568 872 l 1,37,-1
 568 640 l 1,38,-1
 800 640 l 1,39,-1
 800 872 l 1,36,-1
EndSplineSet
Validated: 1
EndChar

StartChar: dollar
Encoding: 36 36 7
Width: 1130
GlyphClass: 2
Flags: W
HStem: -19 180<355.589 516 616 755.01> 753 201<402.951 516 616 753.211> 1347 181<403.438 516 616 729.367>
VStem: 148 200<1007.75 1291.77> 516 100<-78 -19 164 748 954 1347 1523.76 1588> 850 200<246.606 668.172>
LayerCount: 2
Fore
SplineSet
516 -19 m 1,0,1
 340 -11 340 -11 207 76 c 0,2,3
 70 166 70 166 60 357 c 1,4,-1
 250 448 l 1,5,-1
 260 448 l 1,6,-1
 260 384 l 2,7,8
 260 256 260 256 349 208 c 0,9,10
 423 168 423 168 516 161 c 1,11,-1
 516 753 l 1,12,13
 374 763 374 763 270 833 c 0,14,15
 148 915 148 915 148 1089 c 2,16,-1
 148 1192 l 2,17,18
 148 1366 148 1366 270 1448 c 0,19,20
 375 1519 375 1519 516 1528 c 1,21,-1
 516 1588 l 1,22,-1
 606 1630 l 1,23,-1
 616 1630 l 1,24,-1
 616 1528 l 1,25,26
 753 1517 753 1517 856 1448 c 0,27,28
 964 1375 964 1375 977 1230 c 1,29,-1
 798 1145 l 1,30,-1
 788 1145 l 1,31,-1
 788 1168 l 2,32,33
 788 1266 788 1266 724 1308 c 0,34,35
 678 1338 678 1338 616 1347 c 1,36,-1
 616 949 l 1,37,38
 782 938 782 938 906 855 c 0,39,40
 1050 759 1050 759 1050 547 c 2,41,-1
 1050 384 l 2,42,43
 1050 172 1050 172 902 76 c 0,44,45
 778 -5 778 -5 616 -18 c 1,46,-1
 616 -78 l 1,47,-1
 526 -120 l 1,48,-1
 516 -120 l 1,49,-1
 516 -19 l 1,0,1
516 954 m 1,50,-1
 516 1347 l 1,51,52
 456 1338 456 1338 411 1308 c 0,53,54
 348 1266 348 1266 348 1168 c 2,55,-1
 348 1133 l 2,56,57
 348 1034 348 1034 411 992 c 0,58,59
 457 962 457 962 516 954 c 1,50,-1
616 748 m 1,60,-1
 616 164 l 1,61,62
 694 174 694 174 760 208 c 0,63,64
 850 256 850 256 850 384 c 2,65,-1
 850 527 l 2,66,67
 850 654 850 654 766 702 c 0,68,69
 701 738 701 738 616 748 c 1,60,-1
EndSplineSet
Validated: 1
EndChar

StartChar: percent
Encoding: 37 37 8
Width: 1547
GlyphClass: 2
Flags: W
HStem: -20 129<969.952 1220.05> 470 124<969.952 1220.05> 916 129<326.952 577.048> 1406 124<326.952 577.048>
VStem: 150 139<1077.56 1374.78> 615 139<1077.56 1374.78> 793 139<141.562 438.777> 1258 139<141.562 438.777>
DStem2: 358 42 495 -20 0.423185 0.906043<1.80173 1641.88>
LayerCount: 2
Fore
SplineSet
1095 109 m 128,-1,1
 1164 109 1164 109 1211 137.5 c 128,-1,2
 1258 166 1258 166 1258 235 c 2,3,-1
 1258 343 l 2,4,5
 1258 412 1258 412 1211 441 c 128,-1,6
 1164 470 1164 470 1095 470 c 128,-1,7
 1026 470 1026 470 979 441 c 128,-1,8
 932 412 932 412 932 343 c 2,9,-1
 932 235 l 2,10,11
 932 166 932 166 979 137.5 c 128,-1,0
 1026 109 1026 109 1095 109 c 128,-1,1
1095 -20 m 128,-1,13
 970 -20 970 -20 881.5 40 c 128,-1,14
 793 100 793 100 793 228 c 2,15,-1
 793 346 l 2,16,17
 793 474 793 474 881.5 534 c 128,-1,18
 970 594 970 594 1095 594 c 128,-1,19
 1220 594 1220 594 1308.5 534 c 128,-1,20
 1397 474 1397 474 1397 346 c 2,21,-1
 1397 228 l 2,22,23
 1397 100 1397 100 1308.5 40 c 128,-1,12
 1220 -20 1220 -20 1095 -20 c 128,-1,13
452 1406 m 128,-1,25
 383 1406 383 1406 336 1377 c 128,-1,26
 289 1348 289 1348 289 1279 c 2,27,-1
 289 1171 l 2,28,29
 289 1102 289 1102 336 1073.5 c 128,-1,30
 383 1045 383 1045 452 1045 c 128,-1,31
 521 1045 521 1045 568 1073.5 c 128,-1,32
 615 1102 615 1102 615 1171 c 2,33,-1
 615 1279 l 2,34,35
 615 1348 615 1348 568 1377 c 128,-1,24
 521 1406 521 1406 452 1406 c 128,-1,25
452 1530 m 128,-1,37
 577 1530 577 1530 665.5 1470 c 128,-1,38
 754 1410 754 1410 754 1282 c 2,39,-1
 754 1164 l 2,40,41
 754 1036 754 1036 665.5 976 c 128,-1,42
 577 916 577 916 452 916 c 128,-1,43
 327 916 327 916 238.5 976 c 128,-1,44
 150 1036 150 1036 150 1164 c 2,45,-1
 150 1282 l 2,46,47
 150 1410 150 1410 238.5 1470 c 128,-1,36
 327 1530 327 1530 452 1530 c 128,-1,37
485 -20 m 1,48,-1
 358 42 l 1,49,-1
 1052 1530 l 1,50,-1
 1062 1530 l 1,51,-1
 1190 1468 l 1,52,-1
 495 -20 l 1,53,-1
 485 -20 l 1,48,-1
EndSplineSet
Validated: 1
EndChar

StartChar: ampersand
Encoding: 38 38 9
Width: 1624
GlyphClass: 2
Flags: W
HStem: -20 180<447.359 904.082> 746 180<489.996 662> 1350 180<490.088 819.377>
VStem: 150 200<247.067 658.289> 240 190<985.281 1291.77> 1247 205<610.431 827>
DStem2: 769 926 662 746 0.631773 -0.775154<40.2701 590.672 838.168 1064.34>
LayerCount: 2
Fore
SplineSet
1029 300 m 1,0,1
 662 746 l 1,2,3
 528 746 528 746 440 698 c 0,4,5
 350 649 350 649 350 522 c 2,6,-1
 350 384 l 2,7,8
 350 256 350 256 440 208 c 0,9,10
 531 160 531 160 657 160 c 0,11,12
 831 160 831 160 926 216 c 0,13,14
 979 248 979 248 1029 300 c 1,0,1
652 -20 m 0,15,16
 445 -20 445 -20 298 76 c 0,17,18
 150 173 150 173 150 384 c 2,19,-1
 150 522 l 2,20,21
 150 779 150 779 373 851 c 1,22,23
 240 917 240 917 240 1084 c 2,24,-1
 240 1192 l 2,25,26
 240 1366 240 1366 361.5 1448 c 128,-1,27
 483 1530 483 1530 655 1530 c 152,-1,28
 827 1530 827 1530 948 1448 c 0,29,30
 1057 1375 1057 1375 1069 1230 c 1,31,-1
 890 1145 l 1,32,-1
 880 1145 l 1,33,-1
 880 1168 l 2,34,35
 880 1267 880 1267 816 1308.5 c 128,-1,36
 752 1350 752 1350 654 1350 c 152,-1,37
 556 1350 556 1350 493 1308.5 c 128,-1,38
 430 1267 430 1267 430 1168 c 2,39,-1
 430 1108 l 2,40,41
 430 1009 430 1009 493.5 967.5 c 128,-1,42
 557 926 557 926 655 926 c 18,43,-1
 769 926 l 1,44,-1
 1142 468 l 1,45,46
 1237 650 1237 650 1247 827 c 1,47,-1
 1442 919 l 1,48,-1
 1452 919 l 1,49,50
 1452 569 1452 569 1272 308 c 1,51,-1
 1474 61 l 1,52,-1
 1303 -20 l 1,53,-1
 1293 -20 l 1,54,-1
 1149 154 l 1,55,56
 1104 116 1104 116 1051 81 c 0,57,58
 895 -20 895 -20 652 -20 c 0,15,16
EndSplineSet
Validated: 1
EndChar

StartChar: quotesingle
Encoding: 39 39 10
Width: 220
GlyphClass: 2
Flags: W
HStem: 1140 440
VStem: 50 120<1192 1528>
LayerCount: 2
Fore
SplineSet
160 1580 m 1,0,-1
 170 1580 l 1,1,-1
 170 1192 l 1,2,-1
 60 1140 l 1,3,-1
 50 1140 l 1,4,-1
 50 1528 l 1,5,-1
 160 1580 l 1,0,-1
EndSplineSet
Validated: 1
EndChar

StartChar: parenleft
Encoding: 40 40 11
Width: 756
GlyphClass: 2
Flags: W
HStem: -240 180<500.373 706> 1570 180<500.373 706>
VStem: 200 200<26.6064 1483.39>
LayerCount: 2
Fore
SplineSet
706 -240 m 1,0,1
 496 -240 496 -240 348 -144 c 128,-1,2
 200 -48 200 -48 200 164 c 2,3,-1
 200 1346 l 2,4,5
 200 1558 200 1558 348 1654 c 128,-1,6
 496 1750 496 1750 706 1750 c 1,7,-1
 706 1570 l 1,8,9
 580 1570 580 1570 490 1521.5 c 128,-1,10
 400 1473 400 1473 400 1346 c 2,11,-1
 400 164 l 2,12,13
 400 37 400 37 490 -12 c 0,14,15
 580 -60 580 -60 706 -60 c 1,16,-1
 706 -240 l 1,0,1
EndSplineSet
Validated: 1
EndChar

StartChar: parenright
Encoding: 41 41 12
Width: 756
GlyphClass: 2
Flags: W
HStem: -240 180<50 255.627> 1570 180<50 255.627>
VStem: 356 200<26.6064 1483.39>
LayerCount: 2
Fore
SplineSet
50 -240 m 1,0,1
 50 -60 l 1,2,3
 176 -60 176 -60 266 -12 c 0,4,5
 356 37 356 37 356 164 c 2,6,-1
 356 1346 l 2,7,8
 356 1473 356 1473 266 1521.5 c 128,-1,9
 176 1570 176 1570 50 1570 c 1,10,-1
 50 1750 l 1,11,12
 260 1750 260 1750 408 1654 c 128,-1,13
 556 1558 556 1558 556 1346 c 2,14,-1
 556 164 l 2,15,16
 556 -48 556 -48 408 -144 c 128,-1,17
 260 -240 260 -240 50 -240 c 1,0,1
EndSplineSet
Validated: 1
EndChar

StartChar: asterisk
Encoding: 42 42 13
Width: 748
GlyphClass: 2
Flags: W
HStem: 900 680
VStem: 314 120<952 1136 1344 1528>
DStem2: 155 1436 50 1358 0.865681 -0.500596<0 183.698 391.704 575.402> 50 1122 155 1044 0.865681 0.500596<51.85 235.548 443.554 627.252>
LayerCount: 2
Fore
SplineSet
424 1580 m 1,0,-1
 434 1580 l 1,1,-1
 434 1344 l 1,2,-1
 593 1436 l 1,3,-1
 693 1367 l 1,4,-1
 698 1358 l 1,5,-1
 494 1240 l 1,6,-1
 698 1122 l 1,7,-1
 693 1113 l 1,8,-1
 593 1044 l 1,9,-1
 434 1136 l 1,10,-1
 434 952 l 1,11,-1
 324 900 l 1,12,-1
 314 900 l 1,13,-1
 314 1136 l 1,14,-1
 155 1044 l 1,15,-1
 55 1113 l 1,16,-1
 50 1122 l 1,17,-1
 254 1240 l 1,18,-1
 50 1358 l 1,19,-1
 55 1367 l 1,20,-1
 155 1436 l 1,21,-1
 314 1344 l 1,22,-1
 314 1528 l 1,23,-1
 424 1580 l 1,0,-1
EndSplineSet
Validated: 1
EndChar

StartChar: plus
Encoding: 43 43 14
Width: 1200
GlyphClass: 2
Flags: W
HStem: 680 150<216 525 675 984>
VStem: 525 150<371 680 830 1139>
LayerCount: 2
Fore
SplineSet
525 1139 m 1,0,-1
 665 1205 l 1,1,-1
 675 1205 l 1,2,-1
 675 830 l 1,3,-1
 1050 830 l 1,4,-1
 1050 820 l 1,5,-1
 984 680 l 1,6,-1
 675 680 l 1,7,-1
 675 371 l 1,8,-1
 535 305 l 1,9,-1
 525 305 l 1,10,-1
 525 680 l 1,11,-1
 150 680 l 1,12,-1
 150 690 l 1,13,-1
 216 830 l 1,14,-1
 525 830 l 1,15,-1
 525 1139 l 1,0,-1
EndSplineSet
Validated: 1
EndChar

StartChar: comma
Encoding: 44 44 15
Width: 389
GlyphClass: 2
Flags: W
HStem: -276 554
VStem: 184 155<-122.682 121.561>
LayerCount: 2
Fore
SplineSet
220 278 m 1,0,-1
 230 278 l 1,1,2
 339 171 339 171 339 34 c 0,3,4
 339 -163 339 -163 114 -276 c 1,5,-1
 107 -269 l 1,6,7
 184 -139 184 -139 184 -10 c 128,-1,8
 184 119 184 119 50 198 c 1,9,-1
 220 278 l 1,0,-1
EndSplineSet
Validated: 1
EndChar

StartChar: hyphen
Encoding: 45 45 16
Width: 1200
GlyphClass: 2
Flags: W
HStem: 680 150<216 984>
LayerCount: 2
Fore
SplineSet
216 830 m 5,0,-1
 1050 830 l 5,1,-1
 1050 820 l 5,2,-1
 984 680 l 5,3,-1
 150 680 l 5,4,-1
 150 690 l 5,5,-1
 216 830 l 5,0,-1
EndSplineSet
Validated: 1
EndChar

StartChar: period
Encoding: 46 46 17
Width: 340
GlyphClass: 2
Flags: W
HStem: -20 245<86.0974 253.903>
VStem: 50 240<17.1285 187.871>
LayerCount: 2
Fore
SplineSet
170 -20 m 128,-1,1
 120 -20 120 -20 85 16 c 128,-1,2
 50 52 50 52 50 102.5 c 128,-1,3
 50 153 50 153 85 189 c 128,-1,4
 120 225 120 225 170 225 c 128,-1,5
 220 225 220 225 255 189 c 128,-1,6
 290 153 290 153 290 102.5 c 128,-1,7
 290 52 290 52 255 16 c 128,-1,0
 220 -20 220 -20 170 -20 c 128,-1,1
EndSplineSet
Validated: 1
EndChar

StartChar: slash
Encoding: 47 47 18
Width: 1019
GlyphClass: 2
Flags: W
DStem2: 10 -138 147 -200 0.422724 0.906258<1.72523 2038.73>
LayerCount: 2
Fore
SplineSet
137 -200 m 1,0,-1
 10 -138 l 1,1,-1
 871 1710 l 1,2,-1
 881 1710 l 1,3,-1
 1009 1648 l 1,4,-1
 147 -200 l 1,5,-1
 137 -200 l 1,0,-1
EndSplineSet
Validated: 1
EndChar

StartChar: zero
Encoding: 48 48 19
Width: 1330
GlyphClass: 2
Flags: W
HStem: -20 180<458.798 871.904> 1350 180<458.798 871.904>
VStem: 160 200<246.606 1263.39> 970 200<246.606 1263.39>
LayerCount: 2
Fore
SplineSet
665.5 160 m 128,-1,1
 792 160 792 160 881 208.5 c 128,-1,2
 970 257 970 257 970 384 c 2,3,-1
 970 1126 l 2,4,5
 970 1253 970 1253 881 1301.5 c 128,-1,6
 792 1350 792 1350 665.5 1350 c 128,-1,7
 539 1350 539 1350 449.5 1301.5 c 128,-1,8
 360 1253 360 1253 360 1126 c 2,9,-1
 360 384 l 2,10,11
 360 257 360 257 449.5 208.5 c 128,-1,0
 539 160 539 160 665.5 160 c 128,-1,1
665.5 -20 m 128,-1,13
 455 -20 455 -20 307.5 76 c 128,-1,14
 160 172 160 172 160 384 c 2,15,-1
 160 1126 l 2,16,17
 160 1338 160 1338 307.5 1434 c 128,-1,18
 455 1530 455 1530 665.5 1530 c 128,-1,19
 876 1530 876 1530 1023 1434 c 128,-1,20
 1170 1338 1170 1338 1170 1126 c 2,21,-1
 1170 384 l 2,22,23
 1170 172 1170 172 1023 76 c 128,-1,12
 876 -20 876 -20 665.5 -20 c 128,-1,13
EndSplineSet
Validated: 1
EndChar

StartChar: one
Encoding: 49 49 20
Width: 714
GlyphClass: 2
Flags: W
HStem: -20 21G<264 316.222> 1510 20G<412.068 464>
VStem: 264 200<70 1252>
LayerCount: 2
Fore
SplineSet
264 -20 m 1,0,-1
 264 1252 l 1,1,-1
 20 1138 l 1,2,-1
 20 1323 l 1,3,-1
 454 1530 l 1,4,-1
 464 1530 l 1,5,-1
 464 70 l 1,6,-1
 274 -20 l 1,7,-1
 264 -20 l 1,0,-1
EndSplineSet
Validated: 1
EndChar

StartChar: two
Encoding: 50 50 21
Width: 1233
GlyphClass: 2
Flags: W
HStem: 0 180<401 1023> 1350 180<387.096 800.202>
VStem: 89 200<1126 1263.39> 899 200<872.844 1263.39>
DStem2: 160 180 401 180 0.745444 0.666569<179.652 954.683>
LayerCount: 2
Fore
SplineSet
80 0 m 1,0,-1
 80 10 l 1,1,-1
 160 180 l 1,2,-1
 642 611 l 2,3,4
 899 841 899 841 899 1039 c 2,5,-1
 899 1126 l 2,6,7
 899 1253 899 1253 809.5 1301.5 c 128,-1,8
 720 1350 720 1350 593.5 1350 c 128,-1,9
 467 1350 467 1350 378 1301.5 c 128,-1,10
 289 1253 289 1253 289 1126 c 1,11,-1
 99 1036 l 1,12,-1
 89 1036 l 1,13,-1
 89 1126 l 2,14,15
 89 1338 89 1338 236 1434 c 128,-1,16
 383 1530 383 1530 593.5 1530 c 128,-1,17
 804 1530 804 1530 951.5 1434 c 128,-1,18
 1099 1338 1099 1338 1099 1126 c 2,19,-1
 1099 1037 l 2,20,21
 1099 759 1099 759 825 532 c 2,22,-1
 401 180 l 1,23,-1
 1103 180 l 1,24,-1
 1103 170 l 1,25,-1
 1023 0 l 1,26,-1
 80 0 l 1,0,-1
EndSplineSet
Validated: 1
EndChar

StartChar: three
Encoding: 51 51 22
Width: 1210
GlyphClass: 2
Flags: W
HStem: -20 180<396.986 792.312> 1330 180<293 707>
VStem: 890 200<246.606 684.394>
LayerCount: 2
Fore
SplineSet
594.5 -20 m 128,-1,1
 394 -20 394 -20 247 76 c 0,2,3
 110 166 110 166 100 357 c 1,4,-1
 290 448 l 1,5,-1
 300 448 l 9,6,-1
 300 384 l 2,7,8
 300 257 300 257 389 208.5 c 128,-1,9
 478 160 478 160 594.5 160 c 128,-1,10
 711 160 711 160 800.5 208.5 c 128,-1,11
 890 257 890 257 890 384 c 2,12,-1
 890 547 l 2,13,14
 890 674 890 674 800.5 722.5 c 128,-1,15
 711 771 711 771 592 771 c 0,16,17
 516 771 516 771 451 752 c 1,18,-1
 420 791 l 1,19,-1
 707 1330 l 1,20,-1
 213 1330 l 1,21,-1
 213 1340 l 1,22,-1
 293 1510 l 1,23,-1
 1016 1510 l 1,24,-1
 693 945 l 1,25,26
 832 927 832 927 942 855 c 0,27,28
 1090 759 1090 759 1090 547 c 2,29,-1
 1090 384 l 2,30,31
 1090 172 1090 172 942.5 76 c 128,-1,0
 795 -20 795 -20 594.5 -20 c 128,-1,1
EndSplineSet
Validated: 1
EndChar

StartChar: four
Encoding: 52 52 23
Width: 1232
GlyphClass: 2
Flags: W
HStem: -20 21G<782 834.222> 340 180<326 782 982 1052> 1510 20G<929.778 982>
VStem: 782 200<70 340 520 1166>
DStem2: 10 350 326 520 0.577976 0.816054<321.37 1112.1>
LayerCount: 2
Fore
SplineSet
326 520 m 1,0,-1
 782 520 l 1,1,-1
 782 1166 l 1,2,-1
 326 520 l 1,0,-1
782 -20 m 1,3,-1
 782 340 l 1,4,-1
 10 340 l 1,5,-1
 10 350 l 1,6,-1
 782 1440 l 1,7,-1
 972 1530 l 1,8,-1
 982 1530 l 1,9,-1
 982 520 l 1,10,-1
 1132 520 l 1,11,-1
 1132 510 l 1,12,-1
 1052 340 l 1,13,-1
 982 340 l 1,14,-1
 982 70 l 1,15,-1
 792 -20 l 1,16,-1
 782 -20 l 1,3,-1
EndSplineSet
Validated: 1
EndChar

StartChar: five
Encoding: 53 53 24
Width: 1210
GlyphClass: 2
Flags: W
HStem: -20 180<396.986 792.312> 771 180<391.055 792.254> 1330 180<482 942>
VStem: 890 200<246.606 684.394>
DStem2: 162 808 378 921 0.231433 0.972851<159.922 581.887>
LayerCount: 2
Fore
SplineSet
594.5 -20 m 128,-1,1
 394 -20 394 -20 247 76 c 0,2,3
 110 166 110 166 100 357 c 1,4,-1
 290 448 l 1,5,-1
 300 448 l 9,6,-1
 300 384 l 2,7,8
 300 257 300 257 389 208.5 c 128,-1,9
 478 160 478 160 594.5 160 c 128,-1,10
 711 160 711 160 800.5 208.5 c 128,-1,11
 890 257 890 257 890 384 c 2,12,-1
 890 547 l 2,13,14
 890 674 890 674 800.5 722.5 c 128,-1,15
 711 771 711 771 592 771 c 128,-1,16
 473 771 473 771 360 712 c 1,17,-1
 162 808 l 1,18,-1
 329 1510 l 1,19,-1
 1022 1510 l 1,20,-1
 1022 1500 l 1,21,-1
 942 1330 l 1,22,-1
 482 1330 l 1,23,-1
 378 921 l 1,24,25
 475 951 475 951 594 951 c 0,26,27
 795 951 795 951 942.5 855 c 128,-1,28
 1090 759 1090 759 1090 547 c 2,29,-1
 1090 384 l 2,30,31
 1090 172 1090 172 942.5 76 c 128,-1,0
 795 -20 795 -20 594.5 -20 c 128,-1,1
EndSplineSet
Validated: 1
EndChar

StartChar: six
Encoding: 54 54 25
Width: 1280
GlyphClass: 2
Flags: W
HStem: -20 180<456.986 852.312> 788 180<457.654 851.937> 1350 180<455.579 852.241>
VStem: 160 200<246.606 703.785 882 1263.39> 950 200<246.606 701.394 1152 1265.78>
LayerCount: 2
Fore
SplineSet
654.5 -20 m 128,-1,1
 454 -20 454 -20 307 76 c 128,-1,2
 160 172 160 172 160 384 c 2,3,-1
 160 1126 l 2,4,5
 160 1338 160 1338 307 1434 c 128,-1,6
 454 1530 454 1530 654.5 1530 c 128,-1,7
 855 1530 855 1530 1002 1447 c 128,-1,8
 1149 1364 1149 1364 1149 1152 c 1,9,-1
 960 1062 l 1,10,-1
 950 1062 l 1,11,-1
 950 1126 l 2,12,13
 950 1253 950 1253 860.5 1301.5 c 128,-1,14
 771 1350 771 1350 654.5 1350 c 128,-1,15
 538 1350 538 1350 449 1302 c 128,-1,16
 360 1254 360 1254 360 1126 c 2,17,-1
 360 882 l 1,18,19
 500 968 500 968 654 968 c 0,20,21
 854 968 854 968 1002 872 c 128,-1,22
 1150 776 1150 776 1150 564 c 2,23,-1
 1150 384 l 2,24,25
 1150 172 1150 172 1002.5 76 c 128,-1,0
 855 -20 855 -20 654.5 -20 c 128,-1,1
654.5 788 m 128,-1,27
 538 788 538 788 449 739.5 c 128,-1,28
 360 691 360 691 360 564 c 2,29,-1
 360 384 l 2,30,31
 360 257 360 257 449 208.5 c 128,-1,32
 538 160 538 160 654.5 160 c 128,-1,33
 771 160 771 160 860.5 208.5 c 128,-1,34
 950 257 950 257 950 384 c 2,35,-1
 950 564 l 2,36,37
 950 691 950 691 860.5 739.5 c 128,-1,26
 771 788 771 788 654.5 788 c 128,-1,27
EndSplineSet
Validated: 1
EndChar

StartChar: seven
Encoding: 55 55 26
Width: 967
GlyphClass: 2
Flags: W
HStem: -20 21G<162 214.167> 1330 180<90 675>
DStem2: 162 -20 425 100 0.355218 0.934784<205.596 1444.18>
LayerCount: 2
Fore
SplineSet
162 -20 m 1,0,-1
 675 1330 l 1,1,-1
 10 1330 l 1,2,-1
 10 1340 l 1,3,-1
 90 1510 l 1,4,-1
 957 1510 l 1,5,-1
 957 1500 l 1,6,-1
 425 100 l 1,7,-1
 172 -20 l 1,8,-1
 162 -20 l 1,0,-1
EndSplineSet
Validated: 1
EndChar

StartChar: eight
Encoding: 56 56 27
Width: 1210
GlyphClass: 2
Flags: W
HStem: -20 180<397.688 812.312> 746 180<439.593 770.407> 1350 180<440.088 769.443>
VStem: 100 200<247.067 658.289> 190 190<985.281 1291.77> 830 190<985.281 1291.77> 910 200<247.067 658.289>
LayerCount: 2
Fore
SplineSet
605 746 m 152,-1,1
 478 746 478 746 390 698 c 0,2,3
 300 649 300 649 300 522 c 2,4,-1
 300 384 l 2,5,6
 300 256 300 256 390 208 c 0,7,8
 481 160 481 160 605 160 c 152,-1,9
 729 160 729 160 820 208 c 0,10,11
 910 256 910 256 910 384 c 2,12,-1
 910 522 l 2,13,14
 910 649 910 649 820 698 c 0,15,0
 732 746 732 746 605 746 c 152,-1,1
605 -20 m 152,-1,17
 395 -20 395 -20 248 76 c 0,18,19
 100 173 100 173 100 384 c 2,20,-1
 100 522 l 2,21,22
 100 779 100 779 323 851 c 1,23,24
 190 917 190 917 190 1084 c 2,25,-1
 190 1192 l 2,26,27
 190 1366 190 1366 311.5 1448 c 128,-1,28
 433 1530 433 1530 605 1530 c 152,-1,29
 777 1530 777 1530 898.5 1448 c 128,-1,30
 1020 1366 1020 1366 1020 1192 c 2,31,-1
 1020 1084 l 2,32,33
 1020 917 1020 917 887 851 c 1,34,35
 1110 779 1110 779 1110 522 c 2,36,-1
 1110 384 l 2,37,38
 1110 173 1110 173 962 76 c 0,39,16
 815 -20 815 -20 605 -20 c 152,-1,17
605 926 m 152,-1,41
 703 926 703 926 766.5 967.5 c 128,-1,42
 830 1009 830 1009 830 1108 c 2,43,-1
 830 1168 l 2,44,45
 830 1267 830 1267 766 1308.5 c 128,-1,46
 702 1350 702 1350 604 1350 c 152,-1,47
 506 1350 506 1350 443 1308.5 c 128,-1,48
 380 1267 380 1267 380 1168 c 2,49,-1
 380 1108 l 2,50,51
 380 1009 380 1009 443.5 967.5 c 128,-1,40
 507 926 507 926 605 926 c 152,-1,41
EndSplineSet
Validated: 1
EndChar

StartChar: nine
Encoding: 57 57 28
Width: 1280
GlyphClass: 2
Flags: W
HStem: -20 180<427.759 824.421> 542 180<428.063 822.346> 1350 180<427.688 823.014>
VStem: 130 200<244.215 358 808.606 1263.39> 920 200<246.606 628 806.215 1263.39>
LayerCount: 2
Fore
SplineSet
625.5 -20 m 128,-1,1
 425 -20 425 -20 278 63 c 128,-1,2
 131 146 131 146 131 358 c 1,3,-1
 320 448 l 1,4,-1
 330 448 l 1,5,-1
 330 384 l 2,6,7
 330 257 330 257 419.5 208.5 c 128,-1,8
 509 160 509 160 625.5 160 c 128,-1,9
 742 160 742 160 831 208 c 128,-1,10
 920 256 920 256 920 384 c 2,11,-1
 920 628 l 1,12,13
 780 542 780 542 626 542 c 0,14,15
 426 542 426 542 278 638 c 128,-1,16
 130 734 130 734 130 946 c 2,17,-1
 130 1126 l 2,18,19
 130 1338 130 1338 277.5 1434 c 128,-1,20
 425 1530 425 1530 625.5 1530 c 128,-1,21
 826 1530 826 1530 973 1434 c 128,-1,22
 1120 1338 1120 1338 1120 1126 c 2,23,-1
 1120 384 l 2,24,25
 1120 172 1120 172 973 76 c 128,-1,0
 826 -20 826 -20 625.5 -20 c 128,-1,1
625.5 722 m 128,-1,27
 742 722 742 722 831 770.5 c 128,-1,28
 920 819 920 819 920 946 c 2,29,-1
 920 1126 l 2,30,31
 920 1253 920 1253 831 1301.5 c 128,-1,32
 742 1350 742 1350 625.5 1350 c 128,-1,33
 509 1350 509 1350 419.5 1301.5 c 128,-1,34
 330 1253 330 1253 330 1126 c 2,35,-1
 330 946 l 2,36,37
 330 819 330 819 419.5 770.5 c 128,-1,26
 509 722 509 722 625.5 722 c 128,-1,27
EndSplineSet
Validated: 1
EndChar

StartChar: colon
Encoding: 58 58 29
Width: 340
GlyphClass: 2
Flags: W
HStem: -20 245<86.0974 253.903> 632 245<86.0974 253.903>
VStem: 50 240<17.1285 187.871 669.129 839.871>
LayerCount: 2
Fore
SplineSet
170 877 m 128,-1,1
 220 877 220 877 255 841 c 128,-1,2
 290 805 290 805 290 754.5 c 128,-1,3
 290 704 290 704 255 668 c 128,-1,4
 220 632 220 632 170 632 c 128,-1,5
 120 632 120 632 85 668 c 128,-1,6
 50 704 50 704 50 754.5 c 128,-1,7
 50 805 50 805 85 841 c 128,-1,0
 120 877 120 877 170 877 c 128,-1,1
170 -20 m 128,-1,9
 120 -20 120 -20 85 16 c 128,-1,10
 50 52 50 52 50 102.5 c 128,-1,11
 50 153 50 153 85 189 c 128,-1,12
 120 225 120 225 170 225 c 128,-1,13
 220 225 220 225 255 189 c 128,-1,14
 290 153 290 153 290 102.5 c 128,-1,15
 290 52 290 52 255 16 c 128,-1,8
 220 -20 220 -20 170 -20 c 128,-1,9
EndSplineSet
Validated: 1
EndChar

StartChar: semicolon
Encoding: 59 59 30
Width: 389
GlyphClass: 2
Flags: W
HStem: 632 245<106.097 273.903>
VStem: 70 240<669.129 839.871> 184 155<-122.682 121.561>
LayerCount: 2
Fore
SplineSet
190 877 m 128,-1,1
 240 877 240 877 275 841 c 128,-1,2
 310 805 310 805 310 754.5 c 128,-1,3
 310 704 310 704 275 668 c 128,-1,4
 240 632 240 632 190 632 c 128,-1,5
 140 632 140 632 105 668 c 128,-1,6
 70 704 70 704 70 754.5 c 128,-1,7
 70 805 70 805 105 841 c 128,-1,0
 140 877 140 877 190 877 c 128,-1,1
220 278 m 1,8,-1
 230 278 l 1,9,10
 339 171 339 171 339 34 c 0,11,12
 339 -163 339 -163 114 -276 c 1,13,-1
 107 -269 l 1,14,15
 184 -139 184 -139 184 -10 c 128,-1,16
 184 119 184 119 50 198 c 1,17,-1
 220 278 l 1,8,-1
EndSplineSet
Validated: 1
EndChar

StartChar: less
Encoding: 60 60 31
Width: 1315
GlyphClass: 2
Flags: W
DStem2: 392 750 150 680 0.942662 -0.33375<0 751.043> 216 830 392 750 0.937519 0.347934<137.169 893.848>
LayerCount: 2
Fore
SplineSet
1054 1141 m 1,0,-1
 1115 1014 l 1,1,-1
 1115 1004 l 1,2,-1
 392 750 l 1,3,-1
 1115 505 l 1,4,-1
 1115 495 l 1,5,-1
 1051 361 l 1,6,-1
 150 680 l 1,7,-1
 150 690 l 1,8,-1
 216 830 l 1,9,-1
 1054 1141 l 1,0,-1
EndSplineSet
Validated: 1
EndChar

StartChar: equal
Encoding: 61 61 32
Width: 1200
GlyphClass: 2
Flags: W
HStem: 480 150<216 984> 880 150<216 984>
LayerCount: 2
Fore
SplineSet
216 1030 m 1,0,-1
 1050 1030 l 1,1,-1
 1050 1020 l 1,2,-1
 984 880 l 1,3,-1
 150 880 l 1,4,-1
 150 890 l 1,5,-1
 216 1030 l 1,0,-1
216 630 m 1,6,-1
 1050 630 l 1,7,-1
 1050 620 l 1,8,-1
 984 480 l 1,9,-1
 150 480 l 1,10,-1
 150 490 l 1,11,-1
 216 630 l 1,6,-1
EndSplineSet
Validated: 1
EndChar

StartChar: greater
Encoding: 62 62 33
Width: 1315
GlyphClass: 2
Flags: W
DStem2: 264 1149 200 1005 0.942662 -0.33375<0 751.043> 200 506 261 369 0.937519 0.347934<9.52175 766.201>
LayerCount: 2
Fore
SplineSet
264 1149 m 1,0,-1
 1165 830 l 1,1,-1
 1165 820 l 1,2,-1
 1099 680 l 1,3,-1
 261 369 l 1,4,-1
 200 496 l 1,5,-1
 200 506 l 1,6,-1
 923 760 l 1,7,-1
 200 1005 l 1,8,-1
 200 1015 l 1,9,-1
 264 1149 l 1,0,-1
EndSplineSet
Validated: 1
EndChar

StartChar: question
Encoding: 63 63 34
Width: 1310
GlyphClass: 2
Flags: W
HStem: -20 245<551.097 718.903> 1350 180<448.096 861.202>
VStem: 150 200<1126 1263.39> 515 240<17.1285 187.871> 538 203<454 557.676> 960 200<896.695 1263.39>
LayerCount: 2
Fore
SplineSet
654.5 1530 m 128,-1,1
 865 1530 865 1530 1012.5 1434 c 128,-1,2
 1160 1338 1160 1338 1160 1126 c 2,3,-1
 1160 1070 l 2,4,5
 1160 756 1160 756 831 591 c 0,6,7
 741 546 741 546 741 454 c 1,8,-1
 548 361 l 1,9,-1
 538 361 l 1,10,11
 538 638 538 638 748 743 c 0,12,13
 960 850 960 850 960 1072 c 2,14,-1
 960 1126 l 2,15,16
 960 1253 960 1253 870.5 1301.5 c 128,-1,17
 781 1350 781 1350 654.5 1350 c 128,-1,18
 528 1350 528 1350 439 1301.5 c 128,-1,19
 350 1253 350 1253 350 1126 c 1,20,-1
 160 1036 l 1,21,-1
 150 1036 l 1,22,-1
 150 1126 l 2,23,24
 150 1338 150 1338 297 1434 c 128,-1,0
 444 1530 444 1530 654.5 1530 c 128,-1,1
635 -20 m 128,-1,26
 585 -20 585 -20 550 16 c 128,-1,27
 515 52 515 52 515 102.5 c 128,-1,28
 515 153 515 153 550 189 c 128,-1,29
 585 225 585 225 635 225 c 128,-1,30
 685 225 685 225 720 189 c 128,-1,31
 755 153 755 153 755 102.5 c 128,-1,32
 755 52 755 52 720 16 c 128,-1,25
 685 -20 685 -20 635 -20 c 128,-1,26
EndSplineSet
Validated: 1
EndChar

StartChar: at
Encoding: 64 64 35
Width: 1380
GlyphClass: 2
Flags: W
HStem: -430 160<458.015 685> -20 160<768.607 1010> 522 160<768.766 1017> 960 160<458.295 918.15>
VStem: 180 180<-185.785 874.229> 534 170<200.438 462.031> 1020 180<140 522 682 869.105>
LayerCount: 2
Fore
SplineSet
1010 -20 m 1,0,-1
 934 -20 l 2,1,2
 777 -20 777 -20 655.5 62 c 128,-1,3
 534 144 534 144 534 318 c 2,4,-1
 534 344 l 2,5,6
 534 519 534 519 656 600 c 0,7,8
 777 682 777 682 934 682 c 2,9,-1
 1017 682 l 1,10,-1
 1017 736 l 2,11,12
 1017 863 1017 863 928 911.5 c 128,-1,13
 839 960 839 960 689 960 c 128,-1,14
 539 960 539 960 449.5 911.5 c 128,-1,15
 360 863 360 863 360 736 c 2,16,-1
 360 -46 l 2,17,18
 360 -173 360 -173 449.5 -221.5 c 128,-1,19
 539 -270 539 -270 685 -270 c 2,20,-1
 756 -270 l 1,21,-1
 756 -280 l 1,22,-1
 685 -430 l 17,23,24
 475 -430 475 -430 327.5 -340.5 c 128,-1,25
 180 -251 180 -251 180 -26 c 2,26,-1
 180 716 l 2,27,28
 180 928 180 928 327.5 1024 c 128,-1,29
 475 1120 475 1120 690.5 1120 c 128,-1,30
 906 1120 906 1120 1053 1024 c 128,-1,31
 1200 928 1200 928 1200 716 c 2,32,-1
 1200 70 l 1,33,-1
 1010 -20 l 1,0,-1
1020 140 m 1,34,-1
 1020 522 l 1,35,-1
 926 522 l 2,36,37
 840 522 840 522 772 480 c 0,38,39
 704 439 704 439 704 340 c 2,40,-1
 704 322 l 2,41,42
 704 223 704 223 772 182 c 0,43,44
 840 140 840 140 926 140 c 2,45,-1
 1020 140 l 1,34,-1
EndSplineSet
Validated: 1
EndChar

StartChar: A
Encoding: 65 65 36
Width: 1370
GlyphClass: 2
Flags: W
HStem: -20 21G<180 232.222 990 1042.22> 665 180<380 990> 1350 180<478.798 891.904>
VStem: 180 200<70 665 845 1263.39> 990 200<70 665 845 1263.39>
LayerCount: 2
Fore
SplineSet
190 -20 m 1,0,-1
 180 -20 l 1,1,-1
 180 1126 l 2,2,3
 180 1338 180 1338 327.5 1434 c 128,-1,4
 475 1530 475 1530 685.5 1530 c 128,-1,5
 896 1530 896 1530 1043 1434 c 128,-1,6
 1190 1338 1190 1338 1190 1126 c 2,7,-1
 1190 70 l 1,8,-1
 1000 -20 l 1,9,-1
 990 -20 l 1,10,-1
 990 665 l 1,11,-1
 380 665 l 1,12,-1
 380 70 l 1,13,-1
 190 -20 l 1,0,-1
380 845 m 1,14,-1
 990 845 l 1,15,-1
 990 1126 l 2,16,17
 990 1253 990 1253 901 1301.5 c 128,-1,18
 812 1350 812 1350 685.5 1350 c 128,-1,19
 559 1350 559 1350 469.5 1301.5 c 128,-1,20
 380 1253 380 1253 380 1126 c 2,21,-1
 380 845 l 1,14,-1
EndSplineSet
Validated: 1
EndChar

StartChar: B
Encoding: 66 66 37
Width: 1250
GlyphClass: 2
Flags: W
HStem: 0 180<400 860.345> 746 180<400 814.313> 1330 180<400 814.375>
VStem: 200 200<180 746 926 1330> 880 190<986.732 1267.2> 960 200<267.067 658.289>
LayerCount: 2
Fore
SplineSet
400 180 m 1,0,-1
 655 180 l 2,1,2
 779 180 779 180 870 228 c 0,3,4
 960 276 960 276 960 404 c 2,5,-1
 960 522 l 2,6,7
 960 649 960 649 870 698 c 0,8,9
 782 746 782 746 655 746 c 2,10,-1
 400 746 l 1,11,-1
 400 180 l 1,0,-1
200 0 m 1,12,-1
 200 1440 l 1,13,-1
 348 1510 l 1,14,-1
 655 1510 l 2,15,16
 827 1510 827 1510 948.5 1428 c 128,-1,17
 1070 1346 1070 1346 1070 1172 c 2,18,-1
 1070 1084 l 2,19,20
 1070 917 1070 917 937 851 c 1,21,22
 1160 779 1160 779 1160 522 c 2,23,-1
 1160 404 l 2,24,25
 1160 193 1160 193 1012 96 c 0,26,27
 865 0 865 0 655 0 c 2,28,-1
 200 0 l 1,12,-1
400 926 m 1,29,-1
 645 926 l 2,30,31
 743 926 743 926 811.5 967.5 c 128,-1,32
 880 1009 880 1009 880 1108 c 2,33,-1
 880 1148 l 2,34,35
 880 1247 880 1247 811.5 1288.5 c 128,-1,36
 743 1330 743 1330 645 1330 c 2,37,-1
 400 1330 l 1,38,-1
 400 926 l 1,29,-1
EndSplineSet
Validated: 1
EndChar

StartChar: C
Encoding: 67 67 38
Width: 1250
GlyphClass: 2
Flags: W
HStem: -20 180<458.798 871.904> 1350 180<458.798 871.904>
VStem: 160 200<246.606 1263.39> 970 200<246.606 384>
LayerCount: 2
Fore
SplineSet
665.5 -20 m 128,-1,1
 455 -20 455 -20 307.5 76 c 128,-1,2
 160 172 160 172 160 384 c 2,3,-1
 160 1126 l 2,4,5
 160 1338 160 1338 307.5 1434 c 128,-1,6
 455 1530 455 1530 665.5 1530 c 128,-1,7
 876 1530 876 1530 1023 1434 c 0,8,9
 1160 1344 1160 1344 1170 1153 c 1,10,-1
 980 1062 l 1,11,-1
 970 1062 l 9,12,-1
 970 1126 l 2,13,14
 970 1253 970 1253 881 1301.5 c 128,-1,15
 792 1350 792 1350 665.5 1350 c 128,-1,16
 539 1350 539 1350 449.5 1301.5 c 128,-1,17
 360 1253 360 1253 360 1126 c 2,18,-1
 360 384 l 2,19,20
 360 257 360 257 449.5 208.5 c 128,-1,21
 539 160 539 160 665.5 160 c 128,-1,22
 792 160 792 160 881 208.5 c 128,-1,23
 970 257 970 257 970 384 c 1,24,-1
 1160 474 l 1,25,-1
 1170 474 l 1,26,-1
 1170 384 l 2,27,28
 1170 172 1170 172 1023 76 c 128,-1,0
 876 -20 876 -20 665.5 -20 c 128,-1,1
EndSplineSet
Validated: 1
EndChar

StartChar: D
Encoding: 68 68 39
Width: 1350
GlyphClass: 2
Flags: W
HStem: 0 180<400 890.345> 1330 180<400 889.847>
VStem: 200 200<180 1330> 990 200<266.146 1243.39>
LayerCount: 2
Fore
SplineSet
400 180 m 1,0,-1
 685 180 l 2,1,2
 812 180 812 180 900 228 c 0,3,4
 990 276 990 276 990 404 c 2,5,-1
 990 1106 l 2,6,7
 990 1234 990 1234 900 1282 c 0,8,9
 812 1330 812 1330 685 1330 c 2,10,-1
 400 1330 l 1,11,-1
 400 180 l 1,0,-1
200 0 m 1,12,-1
 200 1440 l 1,13,-1
 348 1510 l 1,14,-1
 685 1510 l 2,15,16
 894 1510 894 1510 1042 1414 c 128,-1,17
 1190 1318 1190 1318 1190 1106 c 2,18,19
 1190 404 l 2,20,21
 1190 191 1190 191 1042 96 c 0,22,23
 895 0 895 0 685 0 c 2,24,-1
 200 0 l 1,12,-1
EndSplineSet
Validated: 1
EndChar

StartChar: E
Encoding: 69 69 40
Width: 1060
GlyphClass: 2
Flags: W
HStem: 0 180<400 930> 665 180<400 880> 1330 180<400 880>
VStem: 200 200<180 665 845 1330>
CounterMasks: 1 e0
LayerCount: 2
Fore
SplineSet
200 0 m 1,0,-1
 200 1440 l 1,1,-1
 348 1510 l 1,2,-1
 960 1510 l 1,3,-1
 960 1500 l 1,4,-1
 880 1330 l 1,5,-1
 400 1330 l 1,6,-1
 400 845 l 1,7,-1
 960 845 l 1,8,-1
 960 835 l 1,9,-1
 880 665 l 1,10,-1
 400 665 l 1,11,-1
 400 180 l 1,12,-1
 1010 180 l 1,13,-1
 1010 170 l 1,14,-1
 930 0 l 1,15,-1
 200 0 l 1,0,-1
EndSplineSet
Validated: 1
EndChar

StartChar: F
Encoding: 70 70 41
Width: 1010
GlyphClass: 2
Flags: W
HStem: -20 21G<200 252.222> 665 180<400 880> 1330 180<400 880>
VStem: 200 200<70 665 845 1330>
LayerCount: 2
Fore
SplineSet
200 -20 m 1,0,-1
 200 1440 l 1,1,-1
 348 1510 l 1,2,-1
 960 1510 l 1,3,-1
 960 1500 l 1,4,-1
 880 1330 l 1,5,-1
 400 1330 l 1,6,-1
 400 845 l 1,7,-1
 960 845 l 1,8,-1
 960 835 l 1,9,-1
 880 665 l 1,10,-1
 400 665 l 1,11,-1
 400 70 l 1,12,-1
 210 -20 l 1,13,-1
 200 -20 l 1,0,-1
EndSplineSet
Validated: 1
EndChar

StartChar: G
Encoding: 71 71 42
Width: 1330
GlyphClass: 2
Flags: W
HStem: -20 180<458.798 871.904> 665 180<702 970> 1350 180<458.798 871.904>
VStem: 160 200<246.606 1263.39> 970 200<246.606 665>
CounterMasks: 1 e0
LayerCount: 2
Fore
SplineSet
665.5 -20 m 128,-1,1
 455 -20 455 -20 307.5 76 c 128,-1,2
 160 172 160 172 160 384 c 2,3,-1
 160 1126 l 2,4,5
 160 1338 160 1338 307.5 1434 c 128,-1,6
 455 1530 455 1530 665.5 1530 c 128,-1,7
 876 1530 876 1530 1023 1434 c 0,8,9
 1160 1344 1160 1344 1170 1153 c 1,10,-1
 980 1062 l 1,11,-1
 970 1062 l 9,12,-1
 970 1126 l 2,13,14
 970 1253 970 1253 881 1301.5 c 128,-1,15
 792 1350 792 1350 665.5 1350 c 128,-1,16
 539 1350 539 1350 449.5 1301.5 c 128,-1,17
 360 1253 360 1253 360 1126 c 2,18,-1
 360 384 l 2,19,20
 360 257 360 257 449.5 208.5 c 128,-1,21
 539 160 539 160 665.5 160 c 128,-1,22
 792 160 792 160 881 208.5 c 128,-1,23
 970 257 970 257 970 384 c 2,24,-1
 970 665 l 1,25,-1
 622 665 l 1,26,-1
 622 675 l 1,27,-1
 702 845 l 1,28,-1
 1170 845 l 1,29,-1
 1170 384 l 2,30,31
 1170 172 1170 172 1023 76 c 128,-1,0
 876 -20 876 -20 665.5 -20 c 128,-1,1
EndSplineSet
Validated: 1
EndChar

StartChar: H
Encoding: 72 72 43
Width: 1400
GlyphClass: 2
Flags: W
HStem: -20 21G<200 252.222 1000 1052.22> 665 180<400 1000> 1510 20G<347.778 400 1147.78 1200>
VStem: 200 200<70 665 845 1440> 1000 200<70 665 845 1440>
LayerCount: 2
Fore
SplineSet
200 -20 m 1,0,-1
 200 1440 l 1,1,-1
 390 1530 l 1,2,-1
 400 1530 l 1,3,-1
 400 845 l 1,4,-1
 1000 845 l 1,5,-1
 1000 1440 l 1,6,-1
 1190 1530 l 1,7,-1
 1200 1530 l 1,8,-1
 1200 70 l 1,9,-1
 1010 -20 l 1,10,-1
 1000 -20 l 1,11,-1
 1000 665 l 1,12,-1
 400 665 l 1,13,-1
 400 70 l 1,14,-1
 210 -20 l 1,15,-1
 200 -20 l 1,0,-1
EndSplineSet
Validated: 1
EndChar

StartChar: I
Encoding: 73 73 44
Width: 600
GlyphClass: 2
Flags: W
HStem: -20 21G<200 252.222> 1510 20G<347.778 400>
VStem: 200 200<70 1440>
LayerCount: 2
Fore
SplineSet
200 -20 m 1,0,-1
 200 1440 l 1,1,-1
 390 1530 l 1,2,-1
 400 1530 l 1,3,-1
 400 70 l 1,4,-1
 210 -20 l 1,5,-1
 200 -20 l 1,0,-1
EndSplineSet
Validated: 1
EndChar

StartChar: J
Encoding: 74 74 45
Width: 1150
GlyphClass: 2
Flags: W
HStem: -20 180<305.709 690.543> 1330 180<205 790>
VStem: 790 200<246.606 1330>
LayerCount: 2
Fore
SplineSet
501 -20 m 0,0,1
 303 -20 303 -20 156 76 c 0,2,3
 20 165 20 165 10 359 c 1,4,-1
 199 448 l 1,5,-1
 209 448 l 9,6,-1
 209 384 l 2,7,8
 209 257 209 257 298 208.5 c 128,-1,9
 387 160 387 160 501 160 c 0,10,11
 611 160 611 160 701 209 c 0,12,13
 790 257 790 257 790 384 c 2,14,-1
 790 1330 l 17,15,-1
 125 1330 l 1,16,-1
 125 1340 l 1,17,-1
 205 1510 l 1,18,-1
 990 1510 l 9,19,-1
 990 384 l 2,20,21
 990 172 990 172 842 76 c 0,22,23
 695 -20 695 -20 501 -20 c 0,0,1
EndSplineSet
Validated: 1
EndChar

StartChar: K
Encoding: 75 75 46
Width: 1350
GlyphClass: 2
Flags: W
HStem: -20 21G<200 252.222 990 1042.22> 863 179<723 891.487> 1510 20G<347.778 400 980.023 1053.34>
VStem: 200 200<70 778.785 957 1440> 990 200<70 776.394>
DStem2: 400 957 723 1042 0.723766 0.690046<292.43 830.379>
LayerCount: 2
Fore
SplineSet
210 -20 m 1,0,-1
 200 -20 l 1,1,-1
 200 1440 l 1,2,-1
 390 1530 l 1,3,-1
 400 1530 l 1,4,-1
 400 957 l 1,5,-1
 1001 1530 l 1,6,-1
 1011 1530 l 1,7,-1
 1174 1453 l 1,8,-1
 723 1042 l 1,9,10
 910 1034 910 1034 1043 947 c 0,11,12
 1190 851 1190 851 1190 639 c 2,13,-1
 1190 70 l 1,14,-1
 1000 -20 l 1,15,-1
 990 -20 l 1,16,-1
 990 639 l 2,17,18
 990 766 990 766 901 814.5 c 128,-1,19
 812 863 812 863 695.5 863 c 128,-1,20
 579 863 579 863 489.5 814.5 c 128,-1,21
 400 766 400 766 400 639 c 2,22,-1
 400 70 l 1,23,-1
 210 -20 l 1,0,-1
EndSplineSet
Validated: 1
EndChar

StartChar: L
Encoding: 76 76 47
Width: 1020
GlyphClass: 2
Flags: W
HStem: 0 180<400 930> 1510 20G<347.778 400>
VStem: 200 200<180 1440>
LayerCount: 2
Fore
SplineSet
200 0 m 1,0,-1
 200 1440 l 1,1,-1
 390 1530 l 1,2,-1
 400 1530 l 1,3,-1
 400 180 l 1,4,-1
 1010 180 l 1,5,-1
 1010 170 l 1,6,-1
 930 0 l 1,7,-1
 200 0 l 1,0,-1
EndSplineSet
Validated: 1
EndChar

StartChar: M
Encoding: 77 77 48
Width: 2180
GlyphClass: 2
Flags: W
HStem: -20 21G<180 232.222 990 1042.22 1800 1852.22> 1350 180<478.798 891.904 1289.17 1701.96>
VStem: 180 200<70 1263.39> 990 200<70 1265.78> 1800 200<70 1263.39>
CounterMasks: 1 38
LayerCount: 2
Fore
SplineSet
190 -20 m 1,0,-1
 180 -20 l 1,1,-1
 180 1126 l 2,2,3
 180 1338 180 1338 327.5 1434 c 128,-1,4
 475 1530 475 1530 685.5 1530 c 128,-1,5
 896 1530 896 1530 1043 1434 c 0,6,7
 1069 1417 1069 1417 1090 1397 c 1,8,9
 1112 1417 1112 1417 1138 1434 c 0,10,11
 1286 1530 1286 1530 1496 1530 c 128,-1,12
 1706 1530 1706 1530 1853 1434 c 128,-1,13
 2000 1338 2000 1338 2000 1126 c 2,14,-1
 2000 70 l 1,15,-1
 1810 -20 l 1,16,-1
 1800 -20 l 1,17,-1
 1800 1126 l 2,18,19
 1800 1253 1800 1253 1711 1301.5 c 128,-1,20
 1622 1350 1622 1350 1495.5 1350 c 128,-1,21
 1369 1350 1369 1350 1279.5 1301.5 c 128,-1,22
 1190 1253 1190 1253 1190 1126 c 2,23,-1
 1190 70 l 1,24,-1
 1000 -20 l 1,25,-1
 990 -20 l 1,26,-1
 990 1126 l 2,27,28
 990 1253 990 1253 901 1301.5 c 128,-1,29
 812 1350 812 1350 685.5 1350 c 128,-1,30
 559 1350 559 1350 469.5 1301.5 c 128,-1,31
 380 1253 380 1253 380 1126 c 2,32,-1
 380 70 l 1,33,-1
 190 -20 l 1,0,-1
EndSplineSet
Validated: 1
EndChar

StartChar: N
Encoding: 78 78 49
Width: 1370
GlyphClass: 2
Flags: W
HStem: -20 21G<180 232.222 990 1042.22> 1350 180<478.798 891.904>
VStem: 180 200<70 1263.39> 990 200<70 1263.39>
LayerCount: 2
Fore
SplineSet
190 -20 m 1,0,-1
 180 -20 l 9,1,-1
 180 1126 l 2,2,3
 180 1338 180 1338 327.5 1434 c 128,-1,4
 475 1530 475 1530 685.5 1530 c 128,-1,5
 896 1530 896 1530 1043 1434 c 128,-1,6
 1190 1338 1190 1338 1190 1126 c 2,7,-1
 1190 70 l 17,8,-1
 1000 -20 l 1,9,-1
 990 -20 l 9,10,-1
 990 1126 l 2,11,12
 990 1253 990 1253 901 1301.5 c 128,-1,13
 812 1350 812 1350 685.5 1350 c 128,-1,14
 559 1350 559 1350 469.5 1301.5 c 128,-1,15
 380 1253 380 1253 380 1126 c 2,16,-1
 380 70 l 17,17,-1
 190 -20 l 1,0,-1
EndSplineSet
Validated: 1
EndChar

StartChar: O
Encoding: 79 79 50
Width: 1330
GlyphClass: 2
Flags: W
HStem: -20 180<458.798 871.904> 1350 180<458.798 871.904>
VStem: 160 200<246.606 1263.39> 970 200<246.606 1263.39>
LayerCount: 2
Fore
SplineSet
665.5 160 m 128,-1,1
 792 160 792 160 881 208.5 c 128,-1,2
 970 257 970 257 970 384 c 2,3,-1
 970 1126 l 2,4,5
 970 1253 970 1253 881 1301.5 c 128,-1,6
 792 1350 792 1350 665.5 1350 c 128,-1,7
 539 1350 539 1350 449.5 1301.5 c 128,-1,8
 360 1253 360 1253 360 1126 c 2,9,-1
 360 384 l 2,10,11
 360 257 360 257 449.5 208.5 c 128,-1,0
 539 160 539 160 665.5 160 c 128,-1,1
665.5 -20 m 128,-1,13
 455 -20 455 -20 307.5 76 c 128,-1,14
 160 172 160 172 160 384 c 2,15,-1
 160 1126 l 2,16,17
 160 1338 160 1338 307.5 1434 c 128,-1,18
 455 1530 455 1530 665.5 1530 c 128,-1,19
 876 1530 876 1530 1023 1434 c 128,-1,20
 1170 1338 1170 1338 1170 1126 c 2,21,-1
 1170 384 l 2,22,23
 1170 172 1170 172 1023 76 c 128,-1,12
 876 -20 876 -20 665.5 -20 c 128,-1,13
EndSplineSet
Validated: 1
EndChar

StartChar: P
Encoding: 80 80 51
Width: 1210
GlyphClass: 2
Flags: W
HStem: -20 21G<200 252.222> 500 180<400 860.345> 1330 180<400 859.847>
VStem: 200 200<70 500 680 1330> 960 200<767.067 1243.39>
LayerCount: 2
Fore
SplineSet
210 -20 m 1,0,-1
 200 -20 l 1,1,-1
 200 1440 l 1,2,-1
 348 1510 l 1,3,-1
 655 1510 l 2,4,5
 864 1510 864 1510 1012 1414 c 128,-1,6
 1160 1318 1160 1318 1160 1106 c 2,7,-1
 1160 904 l 2,8,9
 1160 693 1160 693 1012 596 c 0,10,11
 865 500 865 500 655 500 c 2,12,-1
 400 500 l 1,13,-1
 400 70 l 1,14,-1
 210 -20 l 1,0,-1
400 680 m 1,15,-1
 655 680 l 2,16,17
 782 680 782 680 870 728 c 0,18,19
 960 776 960 776 960 904 c 2,20,-1
 960 1106 l 2,21,22
 960 1234 960 1234 870 1282 c 0,23,24
 782 1330 782 1330 655 1330 c 2,25,-1
 400 1330 l 1,26,-1
 400 680 l 1,15,-1
EndSplineSet
Validated: 1
EndChar

StartChar: Q
Encoding: 81 81 52
Width: 1330
GlyphClass: 2
Flags: W
HStem: -40 21G<897.122 963.41> -20 180<458.017 763.275> 1350 180<458.798 871.904>
VStem: 160 200<246.606 1263.39> 970 200<267.475 1263.39>
DStem2: 750 540 564 457 0.572465 -0.819929<0 312.781 528.798 567.726>
LayerCount: 2
Fore
SplineSet
564 457 m 1,0,-1
 740 540 l 1,1,-1
 750 540 l 1,2,-1
 942 266 l 1,3,4
 970 313 970 313 970 384 c 2,5,-1
 970 1126 l 2,6,7
 970 1253 970 1253 881 1301.5 c 128,-1,8
 792 1350 792 1350 665.5 1350 c 128,-1,9
 539 1350 539 1350 449.5 1301.5 c 128,-1,10
 360 1253 360 1253 360 1126 c 2,11,-1
 360 384 l 2,12,13
 360 257 360 257 450 208 c 0,14,15
 540 160 540 160 666 160 c 0,16,17
 719 160 719 160 765 169 c 1,18,-1
 564 457 l 1,0,-1
666 -20 m 0,19,20
 456 -20 456 -20 308 76 c 128,-1,21
 160 172 160 172 160 384 c 2,22,-1
 160 1126 l 2,23,24
 160 1338 160 1338 307.5 1434 c 128,-1,25
 455 1530 455 1530 665.5 1530 c 128,-1,26
 876 1530 876 1530 1023 1434 c 128,-1,27
 1170 1338 1170 1338 1170 1126 c 2,28,-1
 1170 384 l 2,29,30
 1170 198 1170 198 1057 101 c 1,31,-1
 1097 43 l 1,32,-1
 921 -40 l 1,33,-1
 911 -40 l 1,34,-1
 877 9 l 1,35,36
 781 -20 781 -20 666 -20 c 0,19,20
EndSplineSet
Validated: 1
EndChar

StartChar: R
Encoding: 82 82 53
Width: 1294
GlyphClass: 2
Flags: W
HStem: -20 21G<200 252.222 1003.85 1072.82> 500 180<400 650> 1330 180<400 859.847>
VStem: 200 200<70 500 680 1330> 960 200<767.067 1243.39>
DStem2: 874 531 650 500 0.577669 -0.816271<0 532.95>
LayerCount: 2
Fore
SplineSet
400 680 m 1,0,-1
 655 680 l 2,1,2
 782 680 782 680 870 728 c 0,3,4
 960 776 960 776 960 904 c 2,5,-1
 960 1106 l 2,6,7
 960 1234 960 1234 870 1282 c 0,8,9
 782 1330 782 1330 655 1330 c 2,10,-1
 400 1330 l 1,11,-1
 400 680 l 1,0,-1
210 -20 m 1,12,-1
 200 -20 l 1,13,-1
 200 1440 l 1,14,-1
 348 1510 l 1,15,-1
 655 1510 l 2,16,17
 864 1510 864 1510 1012 1414 c 128,-1,18
 1160 1318 1160 1318 1160 1106 c 2,19,-1
 1160 904 l 2,20,21
 1160 693 1160 693 1012 596 c 0,22,23
 949 555 949 555 874 531 c 1,24,-1
 1214 63 l 1,25,-1
 1028 -20 l 1,26,-1
 1018 -20 l 1,27,-1
 650 500 l 1,28,-1
 400 500 l 1,29,-1
 400 70 l 1,30,-1
 210 -20 l 1,12,-1
EndSplineSet
Validated: 1
EndChar

StartChar: T
Encoding: 84 84 54
Width: 1070
GlyphClass: 2
Flags: W
HStem: -20 21G<435 487.222> 1330 180<90 435 635 980>
VStem: 435 200<70 1330>
LayerCount: 2
Fore
SplineSet
435 -20 m 1,0,-1
 435 1330 l 1,1,-1
 10 1330 l 1,2,-1
 10 1340 l 1,3,-1
 90 1510 l 1,4,-1
 1060 1510 l 1,5,-1
 1060 1500 l 1,6,-1
 980 1330 l 1,7,-1
 635 1330 l 1,8,-1
 635 70 l 1,9,-1
 445 -20 l 1,10,-1
 435 -20 l 1,0,-1
EndSplineSet
Validated: 1
EndChar

StartChar: U
Encoding: 85 85 55
Width: 1370
GlyphClass: 2
Flags: W
HStem: -20 180<478.096 891.202> 1510 20G<327.778 380 1137.78 1190>
VStem: 180 200<246.606 1440> 990 200<246.606 1440>
LayerCount: 2
Fore
SplineSet
684.5 -20 m 128,-1,1
 474 -20 474 -20 327 76 c 128,-1,2
 180 172 180 172 180 384 c 2,3,-1
 180 1440 l 17,4,-1
 370 1530 l 1,5,-1
 380 1530 l 9,6,-1
 380 384 l 2,7,8
 380 257 380 257 469 208.5 c 128,-1,9
 558 160 558 160 684.5 160 c 128,-1,10
 811 160 811 160 900.5 208.5 c 128,-1,11
 990 257 990 257 990 384 c 2,12,-1
 990 1440 l 17,13,-1
 1180 1530 l 1,14,-1
 1190 1530 l 9,15,-1
 1190 384 l 2,16,17
 1190 172 1190 172 1042.5 76 c 128,-1,0
 895 -20 895 -20 684.5 -20 c 128,-1,1
EndSplineSet
Validated: 1
EndChar

StartChar: V
Encoding: 86 86 56
Width: 1230
GlyphClass: 2
Flags: W
HStem: -20 21G<518.902 578.133> 1510 20G<135.805 195.14 1050.59 1110.43>
DStem2: 188 1530 5 1448 0.334465 -0.942408<16.0704 1269.94> 615 334 694 55 0.354413 0.935089<0 1265.36>
LayerCount: 2
Fore
SplineSet
526 -20 m 1,0,-1
 5 1448 l 1,1,-1
 178 1530 l 1,2,-1
 188 1530 l 1,3,-1
 615 334 l 1,4,-1
 1058 1530 l 1,5,-1
 1068 1530 l 1,6,-1
 1225 1456 l 1,7,-1
 694 55 l 1,8,-1
 536 -20 l 1,9,-1
 526 -20 l 1,0,-1
EndSplineSet
Validated: 1
EndChar

StartChar: W
Encoding: 87 87 57
Width: 2180
GlyphClass: 2
Flags: W
HStem: -20 180<478.041 890.828 1288.1 1701.2> 1510 20G<327.778 380 1137.78 1190 1947.78 2000>
VStem: 180 200<246.606 1440> 990 200<244.215 1440> 1800 200<246.606 1440>
CounterMasks: 1 38
LayerCount: 2
Fore
SplineSet
684 -20 m 128,-1,1
 474 -20 474 -20 327 76 c 128,-1,2
 180 172 180 172 180 384 c 2,3,-1
 180 1440 l 1,4,-1
 370 1530 l 1,5,-1
 380 1530 l 1,6,-1
 380 384 l 2,7,8
 380 257 380 257 469 208.5 c 128,-1,9
 558 160 558 160 684.5 160 c 128,-1,10
 811 160 811 160 900.5 208.5 c 128,-1,11
 990 257 990 257 990 384 c 2,12,-1
 990 1440 l 1,13,-1
 1180 1530 l 1,14,-1
 1190 1530 l 1,15,-1
 1190 384 l 2,16,17
 1190 257 1190 257 1279 208.5 c 128,-1,18
 1368 160 1368 160 1494.5 160 c 128,-1,19
 1621 160 1621 160 1710.5 208.5 c 128,-1,20
 1800 257 1800 257 1800 384 c 2,21,-1
 1800 1440 l 1,22,-1
 1990 1530 l 1,23,-1
 2000 1530 l 1,24,-1
 2000 384 l 2,25,26
 2000 172 2000 172 1852.5 76 c 128,-1,27
 1705 -20 1705 -20 1494.5 -20 c 128,-1,28
 1284 -20 1284 -20 1137 76 c 0,29,30
 1111 93 1111 93 1090 113 c 1,31,32
 1068 93 1068 93 1042 76 c 0,33,0
 894 -20 894 -20 684 -20 c 128,-1,1
EndSplineSet
Validated: 1
EndChar

StartChar: X
Encoding: 88 88 58
Width: 1156
GlyphClass: 2
Flags: W
HStem: -20 21G<141.647 206.529 934.636 999.4>
DStem2: 210 1523 40 1447 0.525197 -0.850981<0 710.742 988.866 1700.13> 40 48 194 -20 0.529637 0.848224<23.8848 737.793 1025.55 1738.93>
LayerCount: 2
Fore
SplineSet
194 -20 m 1,0,-1
 184 -20 l 1,1,-1
 40 48 l 1,2,-1
 475 744 l 1,3,-1
 40 1447 l 1,4,-1
 200 1523 l 1,5,-1
 210 1523 l 1,6,-1
 583 918 l 1,7,-1
 961 1523 l 1,8,-1
 971 1523 l 1,9,-1
 1116 1454 l 1,10,-1
 681 759 l 1,11,-1
 1116 55 l 1,12,-1
 957 -20 l 1,13,-1
 947 -20 l 1,14,-1
 573 585 l 1,15,-1
 194 -20 l 1,0,-1
EndSplineSet
Validated: 1
EndChar

StartChar: Y
Encoding: 89 89 59
Width: 1230
GlyphClass: 2
Flags: W
HStem: -20 21G<515 567.222> 1510 20G<267.778 320 1057.78 1110>
VStem: 120 200<698.606 1440> 515 200<70 444.943> 910 200<698.606 1440>
CounterMasks: 1 38
LayerCount: 2
Fore
SplineSet
525 -20 m 1,0,-1
 515 -20 l 1,1,-1
 515 438 l 1,2,3
 376 456 376 456 267 528 c 0,4,5
 120 624 120 624 120 836 c 2,6,-1
 120 1440 l 1,7,-1
 310 1530 l 1,8,-1
 320 1530 l 1,9,-1
 320 836 l 2,10,11
 320 709 320 709 409 660.5 c 128,-1,12
 498 612 498 612 614.5 612 c 128,-1,13
 731 612 731 612 820.5 660.5 c 128,-1,14
 910 709 910 709 910 836 c 2,15,-1
 910 1440 l 1,16,-1
 1100 1530 l 1,17,-1
 1110 1530 l 1,18,-1
 1110 836 l 2,19,20
 1110 624 1110 624 962 528 c 0,21,22
 853 457 853 457 715 438 c 1,23,-1
 715 70 l 1,24,-1
 525 -20 l 1,0,-1
EndSplineSet
Validated: 1
EndChar

StartChar: Z
Encoding: 90 90 60
Width: 1040
GlyphClass: 2
Flags: W
HStem: 0 180<330 920> 1330 180<150 707>
DStem2: 40 10 330 180 0.45261 0.891709<282.847 1478.95>
LayerCount: 2
Fore
SplineSet
40 0 m 1,0,-1
 40 10 l 1,1,-1
 707 1330 l 1,2,-1
 70 1330 l 1,3,-1
 70 1340 l 1,4,-1
 150 1510 l 1,5,-1
 1000 1510 l 1,6,-1
 1000 1500 l 1,7,-1
 330 180 l 1,8,-1
 1000 180 l 1,9,-1
 1000 170 l 1,10,-1
 920 0 l 1,11,-1
 40 0 l 1,0,-1
EndSplineSet
Validated: 1
EndChar

StartChar: bracketleft
Encoding: 91 91 61
Width: 880
GlyphClass: 2
Flags: W
HStem: -240 180<400 750> 1570 180<400 750>
VStem: 200 200<-60 1570>
LayerCount: 2
Fore
SplineSet
200 -240 m 1,0,-1
 200 1660 l 1,1,-1
 390 1750 l 1,2,-1
 830 1750 l 1,3,-1
 830 1740 l 1,4,-1
 750 1570 l 1,5,-1
 400 1570 l 1,6,-1
 400 -60 l 1,7,-1
 830 -60 l 1,8,-1
 830 -70 l 1,9,-1
 750 -240 l 1,10,-1
 200 -240 l 1,0,-1
EndSplineSet
Validated: 1
EndChar

StartChar: backslash
Encoding: 92 92 62
Width: 1019
GlyphClass: 2
Flags: W
DStem2: 148 1710 10 1648 0.422724 -0.906258<0 2037.01>
LayerCount: 2
Fore
SplineSet
882 -200 m 1,0,-1
 872 -200 l 1,1,-1
 10 1648 l 1,2,-1
 138 1710 l 1,3,-1
 148 1710 l 1,4,-1
 1009 -138 l 1,5,-1
 882 -200 l 1,0,-1
EndSplineSet
Validated: 1
EndChar

StartChar: bracketright
Encoding: 93 93 63
Width: 880
GlyphClass: 2
Flags: W
HStem: -240 180<130 480> 1570 180<130 480>
VStem: 480 200<-60 1570>
LayerCount: 2
Fore
SplineSet
490 -240 m 1,0,-1
 50 -240 l 1,1,-1
 50 -230 l 1,2,-1
 130 -60 l 1,3,-1
 480 -60 l 1,4,-1
 480 1570 l 1,5,-1
 50 1570 l 1,6,-1
 50 1580 l 1,7,-1
 130 1750 l 1,8,-1
 680 1750 l 1,9,-1
 680 -150 l 1,10,-1
 490 -240 l 1,0,-1
EndSplineSet
Validated: 1
EndChar

StartChar: asciicircum
Encoding: 94 94 64
Width: 871
GlyphClass: 2
Flags: W
HStem: 1160 410
DStem2: 50 1231 208 1160 0.704339 0.709864<60.8853 362.041> 488 1570 430 1393 0.701818 -0.712356<85.3816 411.375>
LayerCount: 2
Fore
SplineSet
478 1570 m 1,0,-1
 488 1570 l 1,1,-1
 821 1232 l 1,2,-1
 668 1160 l 1,3,-1
 658 1160 l 1,4,-1
 430 1393 l 1,5,-1
 208 1160 l 1,6,-1
 198 1160 l 1,7,-1
 50 1231 l 1,8,-1
 305 1488 l 1,9,-1
 478 1570 l 1,0,-1
EndSplineSet
Validated: 1
EndChar

StartChar: underscore
Encoding: 95 95 65
Width: 1364
GlyphClass: 2
Flags: W
HStem: -410 120<202 1162>
LayerCount: 2
Fore
SplineSet
150 -410 m 1,0,-1
 150 -400 l 1,1,-1
 202 -290 l 1,2,-1
 1214 -290 l 1,3,-1
 1214 -300 l 1,4,-1
 1162 -410 l 1,5,-1
 150 -410 l 1,0,-1
EndSplineSet
Validated: 1
EndChar

StartChar: grave
Encoding: 96 96 66
Width: 377
GlyphClass: 2
Flags: W
HStem: 1160 367
VStem: 50 277
DStem2: 180 1527 50 1470 0.427336 -0.904093<0 339.921>
LayerCount: 2
Fore
SplineSet
170 1527 m 1,0,-1
 180 1527 l 1,1,-1
 327 1216 l 1,2,-1
 209 1160 l 1,3,-1
 199 1160 l 1,4,-1
 50 1470 l 1,5,-1
 170 1527 l 1,0,-1
EndSplineSet
Validated: 1
EndChar

StartChar: a
Encoding: 97 97 67
Width: 1060
GlyphClass: 2
Flags: W
HStem: -20 160<323.746 639.995> 585 160<323.746 641.353> 940 160<311 633.498>
VStem: 80 180<200.732 524.268> 700 180<195.873 529.127 677 879.268>
LayerCount: 2
Fore
SplineSet
710 -20 m 1,0,-1
 700 -20 l 1,1,-1
 700 48 l 1,2,3
 616 -20 616 -20 480 -20 c 0,4,5
 323 -20 323 -20 201.5 62 c 128,-1,6
 80 144 80 144 80 318 c 2,7,-1
 80 407 l 2,8,9
 80 581 80 581 201.5 663 c 128,-1,10
 323 745 323 745 480 745 c 0,11,12
 615 745 615 745 700 677 c 1,13,-1
 700 758 l 2,14,15
 700 857 700 857 631.5 898.5 c 128,-1,16
 563 940 563 940 465 940 c 2,17,-1
 240 940 l 1,18,-1
 240 950 l 1,19,-1
 311 1100 l 1,20,-1
 465 1100 l 2,21,22
 637 1100 637 1100 758.5 1018 c 128,-1,23
 880 936 880 936 880 762 c 2,24,-1
 880 61 l 1,25,-1
 710 -20 l 1,0,-1
482.5 140 m 128,-1,27
 568 140 568 140 636.5 181.5 c 128,-1,28
 705 223 705 223 705 322 c 2,29,-1
 705 403 l 2,30,31
 705 502 705 502 636.5 543.5 c 128,-1,32
 568 585 568 585 482.5 585 c 128,-1,33
 397 585 397 585 328.5 543.5 c 128,-1,34
 260 502 260 502 260 403 c 2,35,-1
 260 322 l 2,36,37
 260 223 260 223 328.5 181.5 c 128,-1,26
 397 140 397 140 482.5 140 c 128,-1,27
EndSplineSet
Validated: 1
EndChar

StartChar: b
Encoding: 98 98 68
Width: 1170
GlyphClass: 2
Flags: W
HStem: -20 160<425.394 764.606> 960 160<424.3 764.606> 1510 20G<308.025 360>
VStem: 180 180<200.732 899.268 1051 1449> 830 180<200.732 899.268>
LayerCount: 2
Fore
SplineSet
595 -20 m 128,-1,1
 423 -20 423 -20 301.5 62 c 128,-1,2
 180 144 180 144 180 318 c 2,3,-1
 180 1449 l 1,4,-1
 350 1530 l 1,5,-1
 360 1530 l 1,6,-1
 360 1051 l 1,7,8
 441 1120 441 1120 595 1120 c 0,9,10
 767 1120 767 1120 888.5 1038 c 128,-1,11
 1010 956 1010 956 1010 782 c 2,12,-1
 1010 318 l 2,13,14
 1010 144 1010 144 888.5 62 c 128,-1,0
 767 -20 767 -20 595 -20 c 128,-1,1
595 140 m 128,-1,16
 693 140 693 140 761.5 181.5 c 128,-1,17
 830 223 830 223 830 322 c 2,18,-1
 830 778 l 2,19,20
 830 877 830 877 761.5 918.5 c 128,-1,21
 693 960 693 960 595 960 c 128,-1,22
 497 960 497 960 428.5 918.5 c 128,-1,23
 360 877 360 877 360 778 c 2,24,-1
 360 322 l 2,25,26
 360 223 360 223 428.5 181.5 c 128,-1,15
 497 140 497 140 595 140 c 128,-1,16
EndSplineSet
Validated: 1
EndChar

StartChar: c
Encoding: 99 99 69
Width: 1070
GlyphClass: 2
Flags: W
HStem: -20 160<405.394 744.659> 960 160<405.394 744.535>
VStem: 160 180<200.732 899.268>
LayerCount: 2
Fore
SplineSet
575 -20 m 128,-1,1
 403 -20 403 -20 281.5 62 c 128,-1,2
 160 144 160 144 160 318 c 2,3,-1
 160 782 l 2,4,5
 160 956 160 956 281.5 1038 c 128,-1,6
 403 1120 403 1120 575 1120 c 128,-1,7
 747 1120 747 1120 868 1038 c 0,8,9
 978 964 978 964 989 815 c 1,10,-1
 820 734 l 1,11,-1
 810 734 l 1,12,-1
 810 778 l 2,13,14
 810 877 810 877 741.5 918.5 c 128,-1,15
 673 960 673 960 575 960 c 128,-1,16
 477 960 477 960 408.5 918.5 c 128,-1,17
 340 877 340 877 340 778 c 2,18,-1
 340 322 l 2,19,20
 340 223 340 223 408.5 181.5 c 128,-1,21
 477 140 477 140 575 140 c 128,-1,22
 673 140 673 140 742 182 c 0,23,24
 804 219 804 219 810 307 c 1,25,-1
 980 388 l 1,26,-1
 990 388 l 1,27,-1
 990 318 l 2,28,29
 990 144 990 144 868.5 62 c 128,-1,0
 747 -20 747 -20 575 -20 c 128,-1,1
EndSplineSet
Validated: 1
EndChar

StartChar: d
Encoding: 100 100 70
Width: 1170
GlyphClass: 2
Flags: W
HStem: -20 160<405.394 744.606> 960 160<405.394 745.7> 1510 20G<938.025 990>
VStem: 160 180<200.732 899.268> 810 180<200.732 899.268 1051 1449>
LayerCount: 2
Fore
SplineSet
575 -20 m 128,-1,1
 403 -20 403 -20 281.5 62 c 128,-1,2
 160 144 160 144 160 318 c 2,3,-1
 160 782 l 2,4,5
 160 956 160 956 281.5 1038 c 128,-1,6
 403 1120 403 1120 575 1120 c 0,7,8
 729 1120 729 1120 810 1051 c 1,9,-1
 810 1449 l 1,10,-1
 980 1530 l 1,11,-1
 990 1530 l 1,12,-1
 990 318 l 2,13,14
 990 144 990 144 868.5 62 c 128,-1,0
 747 -20 747 -20 575 -20 c 128,-1,1
575 140 m 128,-1,16
 673 140 673 140 741.5 181.5 c 128,-1,17
 810 223 810 223 810 322 c 2,18,-1
 810 778 l 2,19,20
 810 877 810 877 741.5 918.5 c 128,-1,21
 673 960 673 960 575 960 c 128,-1,22
 477 960 477 960 408.5 918.5 c 128,-1,23
 340 877 340 877 340 778 c 2,24,-1
 340 322 l 2,25,26
 340 223 340 223 408.5 181.5 c 128,-1,15
 477 140 477 140 575 140 c 128,-1,16
EndSplineSet
Validated: 1
EndChar

StartChar: e
Encoding: 101 101 71
Width: 1150
GlyphClass: 2
Flags: W
HStem: -20 160<405.394 744.659> 960 160<405.394 744.606>
VStem: 160 180<200.732 333 508 899.268> 810 180<734 899.268>
DStem2: 340 508 340 333 0.902064 0.431603<0 521.512>
LayerCount: 2
Fore
SplineSet
575 -20 m 128,-1,1
 403 -20 403 -20 281.5 62 c 128,-1,2
 160 144 160 144 160 318 c 2,3,-1
 160 782 l 2,4,5
 160 956 160 956 281.5 1038 c 128,-1,6
 403 1120 403 1120 575 1120 c 128,-1,7
 747 1120 747 1120 868.5 1038 c 128,-1,8
 990 956 990 956 990 782 c 2,9,-1
 990 644 l 1,10,-1
 340 333 l 1,11,-1
 340 322 l 2,12,13
 340 223 340 223 408.5 181.5 c 128,-1,14
 477 140 477 140 575 140 c 0,15,16
 674 140 674 140 742 182 c 0,17,18
 804 220 804 220 810 307 c 1,19,-1
 980 388 l 1,20,-1
 990 388 l 1,21,-1
 990 318 l 2,22,23
 990 144 990 144 868.5 62 c 128,-1,0
 747 -20 747 -20 575 -20 c 128,-1,1
340 508 m 1,24,-1
 810 734 l 1,25,-1
 810 778 l 2,26,27
 810 877 810 877 741.5 918.5 c 128,-1,28
 673 960 673 960 575 960 c 128,-1,29
 477 960 477 960 408.5 918.5 c 128,-1,30
 340 877 340 877 340 778 c 2,31,-1
 340 508 l 1,24,-1
EndSplineSet
Validated: 1
EndChar

StartChar: f
Encoding: 102 102 72
Width: 780
GlyphClass: 2
Flags: W
HStem: -20 21G<180 231.975> 740 160<360 660> 1350 160<426.502 699>
VStem: 180 180<61 740 900 1289.27>
LayerCount: 2
Fore
SplineSet
190 -20 m 1,0,-1
 180 -20 l 1,1,-1
 180 1172 l 2,2,3
 180 1346 180 1346 301.5 1428 c 128,-1,4
 423 1510 423 1510 595 1510 c 2,5,-1
 770 1510 l 1,6,-1
 770 1500 l 1,7,-1
 699 1350 l 1,8,-1
 595 1350 l 2,9,10
 497 1350 497 1350 428.5 1308.5 c 128,-1,11
 360 1267 360 1267 360 1168 c 2,12,-1
 360 900 l 1,13,-1
 731 900 l 1,14,-1
 731 890 l 1,15,-1
 660 740 l 1,16,-1
 360 740 l 1,17,-1
 360 61 l 1,18,-1
 190 -20 l 1,0,-1
EndSplineSet
Validated: 1
EndChar

StartChar: g
Encoding: 103 103 73
Width: 1170
GlyphClass: 2
Flags: W
HStem: -410 160<371 745.714> -20 160<405.394 745.586> 960 160<405.394 744.606>
VStem: 160 180<200.732 899.268> 810 180<-187.688 49 200.732 899.268>
LayerCount: 2
Fore
SplineSet
300 -410 m 1,0,-1
 300 -400 l 1,1,-1
 371 -250 l 1,2,-1
 575 -250 l 2,3,4
 673 -250 673 -250 741.5 -208.5 c 128,-1,5
 810 -167 810 -167 810 -68 c 2,6,-1
 810 49 l 1,7,8
 721 -20 721 -20 575 -20 c 0,9,10
 403 -20 403 -20 281.5 62 c 128,-1,11
 160 144 160 144 160 318 c 2,12,-1
 160 782 l 2,13,14
 160 956 160 956 281.5 1038 c 128,-1,15
 403 1120 403 1120 575 1120 c 128,-1,16
 747 1120 747 1120 868.5 1038 c 128,-1,17
 990 956 990 956 990 782 c 2,18,-1
 990 -72 l 2,19,20
 990 -242 990 -242 868 -328 c 0,21,22
 752 -410 752 -410 575 -410 c 2,23,-1
 300 -410 l 1,0,-1
575 140 m 128,-1,25
 673 140 673 140 741.5 181.5 c 128,-1,26
 810 223 810 223 810 322 c 2,27,-1
 810 778 l 2,28,29
 810 877 810 877 741.5 918.5 c 128,-1,30
 673 960 673 960 575 960 c 128,-1,31
 477 960 477 960 408.5 918.5 c 128,-1,32
 340 877 340 877 340 778 c 2,33,-1
 340 322 l 2,34,35
 340 223 340 223 408.5 181.5 c 128,-1,24
 477 140 477 140 575 140 c 128,-1,25
EndSplineSet
Validated: 1
EndChar

StartChar: h
Encoding: 104 104 74
Width: 1210
GlyphClass: 2
Flags: W
HStem: -20 21G<200 251.975 850 901.975> 960 160<444.194 784.606> 1510 20G<328.025 380>
VStem: 200 180<61 899.268 1051 1449> 850 180<61 899.268>
LayerCount: 2
Fore
SplineSet
210 -20 m 1,0,-1
 200 -20 l 1,1,-1
 200 1449 l 1,2,-1
 370 1530 l 1,3,-1
 380 1530 l 1,4,-1
 380 1051 l 1,5,6
 468 1120 468 1120 615 1120 c 0,7,8
 787 1120 787 1120 908.5 1038 c 128,-1,9
 1030 956 1030 956 1030 782 c 2,10,-1
 1030 61 l 1,11,-1
 860 -20 l 1,12,-1
 850 -20 l 1,13,-1
 850 778 l 2,14,15
 850 877 850 877 781.5 918.5 c 128,-1,16
 713 960 713 960 615 960 c 128,-1,17
 517 960 517 960 448.5 918.5 c 128,-1,18
 380 877 380 877 380 778 c 2,19,-1
 380 61 l 1,20,-1
 210 -20 l 1,0,-1
EndSplineSet
Validated: 1
EndChar

StartChar: i
Encoding: 105 105 75
Width: 580
GlyphClass: 2
Flags: W
HStem: -20 21G<200 251.975> 1100 20G<328.025 380> 1220 245<206.097 373.903>
VStem: 170 240<1257.13 1427.87> 200 180<61 1039>
LayerCount: 2
Fore
SplineSet
200 -20 m 1,0,-1
 200 1039 l 1,1,-1
 370 1120 l 1,2,-1
 380 1120 l 1,3,-1
 380 61 l 1,4,-1
 210 -20 l 1,5,-1
 200 -20 l 1,0,-1
290 1465 m 128,-1,7
 340 1465 340 1465 375 1429 c 128,-1,8
 410 1393 410 1393 410 1342.5 c 128,-1,9
 410 1292 410 1292 375 1256 c 128,-1,10
 340 1220 340 1220 290 1220 c 128,-1,11
 240 1220 240 1220 205 1256 c 128,-1,12
 170 1292 170 1292 170 1342.5 c 128,-1,13
 170 1393 170 1393 205 1429 c 128,-1,6
 240 1465 240 1465 290 1465 c 128,-1,7
EndSplineSet
Validated: 1
EndChar

StartChar: j
Encoding: 106 106 76
Width: 580
GlyphClass: 2
Flags: W
HStem: -410 21G<-35 51> 1100 20G<328.025 380> 1220 245<206.097 373.903>
VStem: 170 240<1257.13 1427.87> 200 180<-189.562 1039>
LayerCount: 2
Fore
SplineSet
-35 -410 m 1,0,1
 -35 -400 l 1,2,-1
 39 -243 l 1,3,4
 92 -233 92 -233 132 -208 c 0,5,6
 200 -167 200 -167 200 -68 c 2,7,8
 200 1039 l 17,9,-1
 370 1120 l 1,10,-1
 380 1120 l 9,11,-1
 380 -72 l 2,12,13
 380 -246 380 -246 258.5 -328 c 128,-1,14
 137 -410 137 -410 -35 -410 c 1,0,1
290 1465 m 128,-1,16
 340 1465 340 1465 375 1429 c 128,-1,17
 410 1393 410 1393 410 1342.5 c 128,-1,18
 410 1292 410 1292 375 1256 c 128,-1,19
 340 1220 340 1220 290 1220 c 128,-1,20
 240 1220 240 1220 205 1256 c 128,-1,21
 170 1292 170 1292 170 1342.5 c 128,-1,22
 170 1393 170 1393 205 1429 c 128,-1,15
 240 1465 240 1465 290 1465 c 128,-1,16
EndSplineSet
Validated: 1
EndChar

StartChar: k
Encoding: 107 107 77
Width: 1170
GlyphClass: 2
Flags: W
HStem: -20 21G<200 251.975 830 881.975> 1100 20G<796.582 868> 1510 20G<328.025 380>
VStem: 200 180<61 559.268 711 1449> 830 180<61 559.268>
DStem2: 380 711 665 777 0.730889 0.682497<253.348 599.27>
LayerCount: 2
Fore
SplineSet
210 -20 m 1,0,-1
 200 -20 l 1,1,-1
 200 1449 l 1,2,-1
 370 1530 l 1,3,-1
 380 1530 l 1,4,-1
 380 711 l 1,5,-1
 818 1120 l 1,6,-1
 828 1120 l 1,7,-1
 968 1050 l 1,8,-1
 665 777 l 1,9,10
 790 763 790 763 888 698 c 0,11,12
 1010 616 1010 616 1010 442 c 2,13,-1
 1010 61 l 1,14,-1
 840 -20 l 1,15,-1
 830 -20 l 1,16,-1
 830 438 l 2,17,18
 830 537 830 537 761.5 578.5 c 128,-1,19
 693 620 693 620 605 620 c 128,-1,20
 517 620 517 620 448.5 578.5 c 128,-1,21
 380 537 380 537 380 438 c 2,22,-1
 380 61 l 1,23,-1
 210 -20 l 1,0,-1
EndSplineSet
Validated: 1
EndChar

StartChar: l
Encoding: 108 108 78
Width: 580
GlyphClass: 2
Flags: W
HStem: -20 21G<200 251.975> 1510 20G<328.025 380>
VStem: 200 180<61 1449>
LayerCount: 2
Fore
SplineSet
200 -20 m 1,0,-1
 200 1449 l 1,1,-1
 370 1530 l 1,2,-1
 380 1530 l 1,3,-1
 380 61 l 1,4,-1
 210 -20 l 1,5,-1
 200 -20 l 1,0,-1
EndSplineSet
Validated: 1
EndChar

StartChar: m
Encoding: 109 109 79
Width: 1840
GlyphClass: 2
Flags: W
HStem: -20 21G<180 231.975 830 881.975 1480 1531.98> 960 160<425.394 764.286 1075.77 1414.66>
VStem: 180 180<61 899.268> 830 180<61 899.268> 1480 180<61 899.268>
CounterMasks: 1 38
LayerCount: 2
Fore
SplineSet
190 -20 m 1,0,-1
 180 -20 l 1,1,-1
 180 782 l 2,2,3
 180 956 180 956 301.5 1038 c 128,-1,4
 423 1120 423 1120 595 1120 c 0,5,6
 766 1120 766 1120 888 1038 c 0,7,8
 905 1027 905 1027 920 1013 c 1,9,10
 936 1026 936 1026 952 1038 c 0,11,12
 1074 1120 1074 1120 1245.5 1120 c 128,-1,13
 1417 1120 1417 1120 1538.5 1038 c 128,-1,14
 1660 956 1660 956 1660 782 c 2,15,-1
 1660 61 l 1,16,-1
 1490 -20 l 1,17,-1
 1480 -20 l 1,18,-1
 1480 778 l 2,19,20
 1480 877 1480 877 1411.5 918.5 c 128,-1,21
 1343 960 1343 960 1245 960 c 128,-1,22
 1147 960 1147 960 1078.5 918.5 c 128,-1,23
 1010 877 1010 877 1010 778 c 2,24,-1
 1010 61 l 1,25,-1
 840 -20 l 1,26,-1
 830 -20 l 1,27,-1
 830 778 l 2,28,29
 830 877 830 877 761.5 918.5 c 128,-1,30
 693 960 693 960 595 960 c 128,-1,31
 497 960 497 960 428.5 918.5 c 128,-1,32
 360 877 360 877 360 778 c 2,33,-1
 360 61 l 1,34,-1
 190 -20 l 1,0,-1
EndSplineSet
Validated: 1
EndChar

StartChar: n
Encoding: 110 110 80
Width: 1190
GlyphClass: 2
Flags: W
HStem: -20 21G<180 231.975 830 881.975> 960 160<425.394 764.606>
VStem: 180 180<61 899.268> 830 180<61 899.268>
LayerCount: 2
Fore
SplineSet
190 -20 m 1,0,-1
 180 -20 l 9,1,-1
 180 782 l 2,2,3
 180 956 180 956 301.5 1038 c 128,-1,4
 423 1120 423 1120 595 1120 c 128,-1,5
 767 1120 767 1120 888.5 1038 c 128,-1,6
 1010 956 1010 956 1010 782 c 2,7,-1
 1010 61 l 17,8,-1
 840 -20 l 1,9,-1
 830 -20 l 9,10,-1
 830 778 l 2,11,12
 830 877 830 877 761.5 918.5 c 128,-1,13
 693 960 693 960 595 960 c 128,-1,14
 497 960 497 960 428.5 918.5 c 128,-1,15
 360 877 360 877 360 778 c 2,16,-1
 360 61 l 17,17,-1
 190 -20 l 1,0,-1
EndSplineSet
Validated: 1
EndChar

StartChar: o
Encoding: 111 111 81
Width: 1150
GlyphClass: 2
Flags: W
HStem: -20 160<405.394 744.606> 960 160<405.394 744.606>
VStem: 160 180<200.732 899.268> 810 180<200.732 899.268>
LayerCount: 2
Fore
SplineSet
575 140 m 128,-1,1
 673 140 673 140 741.5 181.5 c 128,-1,2
 810 223 810 223 810 322 c 2,3,-1
 810 778 l 2,4,5
 810 877 810 877 741.5 918.5 c 128,-1,6
 673 960 673 960 575 960 c 128,-1,7
 477 960 477 960 408.5 918.5 c 128,-1,8
 340 877 340 877 340 778 c 2,9,-1
 340 322 l 2,10,11
 340 223 340 223 408.5 181.5 c 128,-1,0
 477 140 477 140 575 140 c 128,-1,1
575 -20 m 128,-1,13
 403 -20 403 -20 281.5 62 c 128,-1,14
 160 144 160 144 160 318 c 2,15,-1
 160 782 l 2,16,17
 160 956 160 956 281.5 1038 c 128,-1,18
 403 1120 403 1120 575 1120 c 128,-1,19
 747 1120 747 1120 868.5 1038 c 128,-1,20
 990 956 990 956 990 782 c 2,21,-1
 990 318 l 2,22,23
 990 144 990 144 868.5 62 c 128,-1,12
 747 -20 747 -20 575 -20 c 128,-1,13
EndSplineSet
Validated: 1
EndChar

StartChar: p
Encoding: 112 112 82
Width: 1170
GlyphClass: 2
Flags: W
HStem: -430 21G<180 231.975> -20 160<424.3 764.606> 960 160<425.394 764.606>
VStem: 180 180<-349 49 200.732 899.268> 830 180<200.732 899.268>
LayerCount: 2
Fore
SplineSet
190 -430 m 1,0,-1
 180 -430 l 1,1,-1
 180 782 l 2,2,3
 180 956 180 956 301.5 1038 c 128,-1,4
 423 1120 423 1120 595 1120 c 128,-1,5
 767 1120 767 1120 888.5 1038 c 128,-1,6
 1010 956 1010 956 1010 782 c 2,7,-1
 1010 318 l 2,8,9
 1010 144 1010 144 888.5 62 c 128,-1,10
 767 -20 767 -20 595 -20 c 0,11,12
 441 -20 441 -20 360 49 c 1,13,-1
 360 -349 l 1,14,-1
 190 -430 l 1,0,-1
595 960 m 128,-1,16
 497 960 497 960 428.5 918.5 c 128,-1,17
 360 877 360 877 360 778 c 2,18,-1
 360 322 l 2,19,20
 360 223 360 223 428.5 181.5 c 128,-1,21
 497 140 497 140 595 140 c 128,-1,22
 693 140 693 140 761.5 181.5 c 128,-1,23
 830 223 830 223 830 322 c 2,24,-1
 830 778 l 2,25,26
 830 877 830 877 761.5 918.5 c 128,-1,15
 693 960 693 960 595 960 c 128,-1,16
EndSplineSet
Validated: 1
EndChar

StartChar: q
Encoding: 113 113 83
Width: 1170
GlyphClass: 2
Flags: W
HStem: -430 21G<810 861.975> -20 160<405.394 745.7> 960 160<405.394 744.606>
VStem: 160 180<200.732 899.268> 810 180<-349 49 200.732 899.268>
LayerCount: 2
Fore
SplineSet
820 -430 m 1,0,-1
 810 -430 l 1,1,-1
 810 49 l 1,2,3
 729 -20 729 -20 575 -20 c 0,4,5
 403 -20 403 -20 281.5 62 c 128,-1,6
 160 144 160 144 160 318 c 2,7,-1
 160 782 l 2,8,9
 160 956 160 956 281.5 1038 c 128,-1,10
 403 1120 403 1120 575 1120 c 128,-1,11
 747 1120 747 1120 868.5 1038 c 128,-1,12
 990 956 990 956 990 782 c 2,13,-1
 990 -349 l 1,14,-1
 820 -430 l 1,0,-1
575 960 m 128,-1,16
 477 960 477 960 408.5 918.5 c 128,-1,17
 340 877 340 877 340 778 c 2,18,-1
 340 322 l 2,19,20
 340 223 340 223 408.5 181.5 c 128,-1,21
 477 140 477 140 575 140 c 128,-1,22
 673 140 673 140 741.5 181.5 c 128,-1,23
 810 223 810 223 810 322 c 2,24,-1
 810 778 l 2,25,26
 810 877 810 877 741.5 918.5 c 128,-1,15
 673 960 673 960 575 960 c 128,-1,16
EndSplineSet
Validated: 1
EndChar

StartChar: r
Encoding: 114 114 84
Width: 780
GlyphClass: 2
Flags: W
HStem: -20 21G<180 231.975> 940 160<426.502 699>
VStem: 180 180<61 879.268>
LayerCount: 2
Fore
SplineSet
190 -20 m 1,0,-1
 180 -20 l 9,1,-1
 180 762 l 2,2,3
 180 936 180 936 301.5 1018 c 128,-1,4
 423 1100 423 1100 595 1100 c 2,5,-1
 770 1100 l 1,6,-1
 770 1090 l 1,7,-1
 699 940 l 1,8,-1
 595 940 l 2,9,10
 497 940 497 940 428.5 898.5 c 128,-1,11
 360 857 360 857 360 758 c 2,12,-1
 360 61 l 17,13,-1
 190 -20 l 1,0,-1
EndSplineSet
Validated: 1
EndChar

StartChar: t
Encoding: 116 116 85
Width: 780
GlyphClass: 2
Flags: W
HStem: -20 21G<300 351.975> 940 160<81 300 480 699> 1510 20G<428.025 480>
VStem: 300 180<61 940 1100 1449>
LayerCount: 2
Fore
SplineSet
300 -20 m 1,0,-1
 300 940 l 1,1,-1
 10 940 l 1,2,-1
 10 950 l 1,3,-1
 81 1100 l 1,4,-1
 300 1100 l 1,5,-1
 300 1449 l 1,6,-1
 470 1530 l 1,7,-1
 480 1530 l 1,8,-1
 480 1100 l 1,9,-1
 770 1100 l 1,10,-1
 770 1090 l 1,11,-1
 699 940 l 1,12,-1
 480 940 l 1,13,-1
 480 61 l 1,14,-1
 310 -20 l 1,15,-1
 300 -20 l 1,0,-1
EndSplineSet
Validated: 1
EndChar

StartChar: u
Encoding: 117 117 86
Width: 1190
GlyphClass: 2
Flags: W
HStem: -20 160<425.394 764.606> 1100 20G<308.025 360 958.025 1010>
VStem: 180 180<200.732 1039> 830 180<200.732 1039>
LayerCount: 2
Fore
SplineSet
595 -20 m 128,-1,1
 423 -20 423 -20 301.5 62 c 128,-1,2
 180 144 180 144 180 318 c 2,3,-1
 180 1039 l 17,4,-1
 350 1120 l 1,5,-1
 360 1120 l 9,6,-1
 360 322 l 2,7,8
 360 223 360 223 428.5 181.5 c 128,-1,9
 497 140 497 140 595 140 c 128,-1,10
 693 140 693 140 761.5 181.5 c 128,-1,11
 830 223 830 223 830 322 c 2,12,-1
 830 1039 l 17,13,-1
 1000 1120 l 1,14,-1
 1010 1120 l 9,15,-1
 1010 318 l 2,16,17
 1010 144 1010 144 888.5 62 c 128,-1,0
 767 -20 767 -20 595 -20 c 128,-1,1
EndSplineSet
Validated: 1
EndChar

StartChar: v
Encoding: 118 118 87
Width: 950
GlyphClass: 2
Flags: W
HStem: -20 21G<383.765 443.133> 1100 20G<116.082 175.129 781.518 840.714>
DStem2: 168 1120 5 1047 0.340186 -0.940358<13.1959 902.381> 471 270 559 55 0.361677 0.932303<0 898.632>
LayerCount: 2
Fore
SplineSet
391 -20 m 1,0,-1
 5 1047 l 1,1,-1
 158 1120 l 1,2,-1
 168 1120 l 1,3,-1
 471 270 l 1,4,-1
 789 1120 l 1,5,-1
 799 1120 l 1,6,-1
 945 1050 l 1,7,-1
 559 55 l 1,8,-1
 401 -20 l 1,9,-1
 391 -20 l 1,0,-1
EndSplineSet
Validated: 1
EndChar

StartChar: w
Encoding: 119 119 88
Width: 1840
GlyphClass: 2
Flags: W
HStem: -20 160<425.339 764.231 1075.71 1414.61> 1100 20G<308.025 360 958.025 1010 1608.02 1660>
VStem: 180 180<200.732 1039> 830 180<200.732 1039> 1480 180<200.732 1039>
CounterMasks: 1 38
LayerCount: 2
Fore
SplineSet
594.5 -20 m 128,-1,1
 423 -20 423 -20 301.5 62 c 128,-1,2
 180 144 180 144 180 318 c 2,3,-1
 180 1039 l 1,4,-1
 350 1120 l 1,5,-1
 360 1120 l 1,6,-1
 360 322 l 2,7,8
 360 223 360 223 428.5 181.5 c 128,-1,9
 497 140 497 140 595 140 c 128,-1,10
 693 140 693 140 761.5 181.5 c 128,-1,11
 830 223 830 223 830 322 c 2,12,-1
 830 1039 l 1,13,-1
 1000 1120 l 1,14,-1
 1010 1120 l 1,15,-1
 1010 322 l 2,16,17
 1010 223 1010 223 1078.5 181.5 c 128,-1,18
 1147 140 1147 140 1245 140 c 128,-1,19
 1343 140 1343 140 1411.5 181.5 c 128,-1,20
 1480 223 1480 223 1480 322 c 2,21,-1
 1480 1039 l 1,22,-1
 1650 1120 l 1,23,-1
 1660 1120 l 1,24,-1
 1660 318 l 2,25,26
 1660 144 1660 144 1538.5 62 c 128,-1,27
 1417 -20 1417 -20 1245 -20 c 0,28,29
 1074 -20 1074 -20 952 62 c 0,30,31
 935 73 935 73 920 87 c 1,32,33
 904 74 904 74 888 62 c 0,34,0
 766 -20 766 -20 594.5 -20 c 128,-1,1
EndSplineSet
Validated: 1
EndChar

StartChar: x
Encoding: 120 120 89
Width: 886
GlyphClass: 2
Flags: W
HStem: -20 21G<126.033 190.44 682.703 747.09>
DStem2: 192 1114 40 1046 0.522581 -0.85259<0 489.311 739.009 1229.69> 40 41 178 -20 0.527934 0.849285<21.0485 513.313 772.528 1263.42>
LayerCount: 2
Fore
SplineSet
178 -20 m 1,0,-1
 168 -20 l 1,1,-1
 40 41 l 1,2,-1
 351 541 l 1,3,-1
 40 1046 l 1,4,-1
 182 1114 l 1,5,-1
 192 1114 l 1,6,-1
 448 697 l 1,7,-1
 707 1114 l 1,8,-1
 717 1114 l 1,9,-1
 846 1052 l 1,10,-1
 535 554 l 1,11,-1
 846 47 l 1,12,-1
 705 -20 l 1,13,-1
 695 -20 l 1,14,-1
 438 398 l 1,15,-1
 178 -20 l 1,0,-1
EndSplineSet
Validated: 1
EndChar

StartChar: y
Encoding: 121 121 90
Width: 1210
GlyphClass: 2
Flags: W
HStem: -410 160<391 765.714> -20 160<425.394 765.024> 1100 20G<308.025 360 958.025 1010>
VStem: 180 180<200.732 1039> 830 180<-187.688 49 200.732 1039>
LayerCount: 2
Fore
SplineSet
320 -410 m 1,0,-1
 320 -400 l 1,1,-1
 391 -250 l 1,2,-1
 595 -250 l 2,3,4
 693 -250 693 -250 761.5 -208.5 c 128,-1,5
 830 -167 830 -167 830 -68 c 2,6,-1
 830 49 l 1,7,8
 746 -20 746 -20 595 -20 c 0,9,10
 423 -20 423 -20 301.5 62 c 128,-1,11
 180 144 180 144 180 318 c 2,12,-1
 180 1039 l 1,13,-1
 350 1120 l 1,14,-1
 360 1120 l 1,15,-1
 360 322 l 2,16,17
 360 223 360 223 428.5 181.5 c 128,-1,18
 497 140 497 140 595 140 c 128,-1,19
 693 140 693 140 761.5 181.5 c 128,-1,20
 830 223 830 223 830 322 c 2,21,-1
 830 1039 l 1,22,-1
 1000 1120 l 1,23,-1
 1010 1120 l 1,24,-1
 1010 -72 l 2,25,26
 1010 -242 1010 -242 888 -328 c 0,27,28
 772 -410 772 -410 595 -410 c 2,29,-1
 320 -410 l 1,0,-1
EndSplineSet
Validated: 1
EndChar

StartChar: z
Encoding: 122 122 91
Width: 850
GlyphClass: 2
Flags: W
HStem: 0 160<309 739> 940 160<141 542>
DStem2: 40 10 309 160 0.475002 0.879985<259.773 1056.84>
LayerCount: 2
Fore
SplineSet
40 0 m 1,0,-1
 40 10 l 1,1,-1
 542 940 l 1,2,-1
 70 940 l 1,3,-1
 70 950 l 1,4,-1
 141 1100 l 1,5,-1
 810 1100 l 1,6,-1
 810 1090 l 1,7,-1
 309 160 l 1,8,-1
 810 160 l 1,9,-1
 810 150 l 1,10,-1
 739 0 l 1,11,-1
 40 0 l 1,0,-1
EndSplineSet
Validated: 1
EndChar

StartChar: braceleft
Encoding: 123 123 92
Width: 830
GlyphClass: 2
Flags: W
HStem: -240 180<574.373 780> 665 180<130 274> 1570 180<574.373 780>
VStem: 274 200<26.6064 665 845 1483.39>
CounterMasks: 1 e0
LayerCount: 2
Fore
SplineSet
780 -240 m 1,0,1
 570 -240 570 -240 422 -144 c 128,-1,2
 274 -48 274 -48 274 164 c 2,3,-1
 274 665 l 1,4,-1
 50 665 l 1,5,-1
 50 675 l 1,6,-1
 130 845 l 1,7,-1
 274 845 l 1,8,-1
 274 1346 l 2,9,10
 274 1558 274 1558 422 1654 c 128,-1,11
 570 1750 570 1750 780 1750 c 1,12,-1
 780 1570 l 1,13,14
 654 1570 654 1570 564 1521.5 c 128,-1,15
 474 1473 474 1473 474 1346 c 2,16,-1
 474 164 l 2,17,18
 474 36 474 36 564 -12 c 128,-1,19
 654 -60 654 -60 780 -60 c 1,20,-1
 780 -240 l 1,0,1
EndSplineSet
Validated: 1
EndChar

StartChar: bar
Encoding: 124 124 93
Width: 650
GlyphClass: 2
Flags: W
VStem: 250 150<-134 1644>
LayerCount: 2
Fore
SplineSet
250 -200 m 1,0,-1
 250 1644 l 1,1,-1
 390 1710 l 1,2,-1
 400 1710 l 1,3,-1
 400 -134 l 1,4,-1
 260 -200 l 1,5,-1
 250 -200 l 1,0,-1
EndSplineSet
Validated: 1
EndChar

StartChar: braceright
Encoding: 125 125 94
Width: 830
GlyphClass: 2
Flags: W
HStem: -240 180<50 255.627> 665 180<556 700> 1570 180<50 255.627>
VStem: 356 200<26.6064 665 845 1483.39>
CounterMasks: 1 e0
LayerCount: 2
Fore
SplineSet
50 -240 m 1,0,-1
 50 -60 l 1,1,2
 176 -60 176 -60 266 -12 c 128,-1,3
 356 36 356 36 356 164 c 2,4,-1
 356 1346 l 2,5,6
 356 1473 356 1473 266 1521.5 c 128,-1,7
 176 1570 176 1570 50 1570 c 1,8,-1
 50 1750 l 1,9,10
 260 1750 260 1750 408 1654 c 128,-1,11
 556 1558 556 1558 556 1346 c 2,12,-1
 556 845 l 1,13,-1
 780 845 l 1,14,-1
 780 835 l 1,15,-1
 700 665 l 1,16,-1
 556 665 l 1,17,-1
 556 164 l 2,18,19
 556 -48 556 -48 408 -144 c 128,-1,20
 260 -240 260 -240 50 -240 c 1,0,-1
EndSplineSet
Validated: 1
EndChar

StartChar: asciitilde
Encoding: 126 126 95
Width: 1138
GlyphClass: 2
Flags: W
HStem: 576 147<657.304 812.171> 790 147<325.829 480.696>
VStem: 150 157<647 774.039> 831 157<738.961 866>
LayerCount: 2
Fore
SplineSet
988 937 m 1,0,1
 988 576 988 576 732 576 c 0,2,3
 615 576 615 576 517 703 c 0,4,5
 450 790 450 790 400 790 c 0,6,7
 307 790 307 790 307 647 c 1,8,-1
 160 576 l 1,9,-1
 150 576 l 1,10,11
 150 937 150 937 406 937 c 0,12,13
 523 937 523 937 621 810 c 0,14,15
 688 723 688 723 738 723 c 0,16,17
 831 723 831 723 831 866 c 1,18,-1
 978 937 l 1,19,-1
 988 937 l 1,0,1
EndSplineSet
Validated: 1
EndChar

StartChar: exclamdown
Encoding: 161 161 97
Width: 600
GlyphClass: 2
Flags: W
HStem: -430 21G<200 252.222> 875 245<216.097 383.903>
VStem: 180 240<912.129 1082.87> 200 200<-340 610>
LayerCount: 2
Fore
SplineSet
300 1120 m 128,-1,1
 350 1120 350 1120 385 1084 c 128,-1,2
 420 1048 420 1048 420 997.5 c 128,-1,3
 420 947 420 947 385 911 c 128,-1,4
 350 875 350 875 300 875 c 128,-1,5
 250 875 250 875 215 911 c 128,-1,6
 180 947 180 947 180 997.5 c 128,-1,7
 180 1048 180 1048 215 1084 c 128,-1,0
 250 1120 250 1120 300 1120 c 128,-1,1
210 -430 m 1,8,-1
 200 -430 l 1,9,-1
 200 610 l 1,10,-1
 390 700 l 1,11,-1
 400 700 l 1,12,-1
 400 -340 l 1,13,-1
 210 -430 l 1,8,-1
EndSplineSet
Validated: 1
EndChar

StartChar: cent
Encoding: 162 162 98
Width: 1070
GlyphClass: 2
Flags: W
HStem: -18 161<402.378 525 625 747.622> 957 161<401.88 525 625 748.12>
VStem: 160 180<200.438 899.562> 525 100<-78 -13.4102 143 957 1113.41 1178>
LayerCount: 2
Fore
SplineSet
525 -18 m 1,0,1
 386 -8 386 -8 282 62 c 0,2,3
 160 144 160 144 160 318 c 2,4,-1
 160 782 l 2,5,6
 160 956 160 956 282 1038 c 0,7,8
 385 1108 385 1108 525 1118 c 1,9,-1
 525 1178 l 1,10,-1
 615 1220 l 1,11,-1
 625 1220 l 1,12,-1
 625 1118 l 1,13,14
 765 1108 765 1108 868 1038 c 0,15,16
 978 964 978 964 989 815 c 1,17,-1
 820 734 l 1,18,-1
 810 734 l 1,19,-1
 810 778 l 2,20,21
 810 876 810 876 742 918 c 0,22,23
 692 948 692 948 625 957 c 1,24,-1
 625 143 l 1,25,26
 691 151 691 151 742 182 c 0,27,28
 804 219 804 219 810 307 c 1,29,-1
 980 388 l 1,30,-1
 990 388 l 1,31,-1
 990 318 l 2,32,33
 990 144 990 144 868 62 c 0,34,35
 764 -8 764 -8 625 -18 c 1,36,-1
 625 -78 l 1,37,-1
 535 -120 l 1,38,-1
 525 -120 l 1,39,-1
 525 -18 l 1,0,1
525 143 m 1,40,-1
 525 957 l 1,41,42
 458 948 458 948 408 918 c 0,43,44
 340 876 340 876 340 778 c 2,45,-1
 340 322 l 2,46,47
 340 224 340 224 408 182 c 0,48,49
 458 152 458 152 525 143 c 1,40,-1
EndSplineSet
Validated: 1
EndChar

StartChar: sterling
Encoding: 163 163 99
Width: 1335
GlyphClass: 2
Flags: W
HStem: 0 180<230 300 500 1105> 600 180<231 300 500 835> 1350 180<564.566 865.379>
VStem: 300 200<180 600 780 1287.2>
LayerCount: 2
Fore
SplineSet
150 0 m 1,0,-1
 150 10 l 1,1,-1
 230 180 l 1,2,-1
 300 180 l 1,3,-1
 300 600 l 1,4,-1
 151 600 l 1,5,-1
 151 610 l 1,6,-1
 231 780 l 1,7,-1
 300 780 l 1,8,-1
 300 1192 l 2,9,10
 300 1366 300 1366 421.5 1448 c 128,-1,11
 543 1530 543 1530 715 1530 c 128,-1,12
 887 1530 887 1530 1008 1448 c 0,13,14
 1117 1375 1117 1375 1129 1226 c 1,15,-1
 940 1137 l 1,16,-1
 930 1137 l 1,17,-1
 930 1168 l 2,18,19
 930 1267 930 1267 861.5 1308.5 c 128,-1,20
 793 1350 793 1350 715 1350 c 128,-1,21
 637 1350 637 1350 568.5 1308.5 c 128,-1,22
 500 1267 500 1267 500 1168 c 2,23,-1
 500 780 l 1,24,-1
 915 780 l 1,25,-1
 915 770 l 1,26,-1
 835 600 l 1,27,-1
 500 600 l 1,28,-1
 500 180 l 1,29,-1
 1185 180 l 1,30,-1
 1185 170 l 1,31,-1
 1105 0 l 1,32,-1
 150 0 l 1,0,-1
EndSplineSet
Validated: 1
EndChar

StartChar: currency
Encoding: 164 164 100
Width: 1395
GlyphClass: 2
Flags: W
HStem: 241 180<488.587 901.748> 1089 180<488.265 903.238>
VStem: 190 200<505.625 1003.41> 1000 200<506.972 1004.78>
LayerCount: 2
Fore
SplineSet
695.5 421 m 128,-1,1
 822 421 822 421 911 469.5 c 128,-1,2
 1000 518 1000 518 1000 645 c 2,3,-1
 1000 865 l 2,4,5
 1000 992 1000 992 911 1040.5 c 128,-1,6
 822 1089 822 1089 695.5 1089 c 128,-1,7
 569 1089 569 1089 479.5 1040.5 c 128,-1,8
 390 992 390 992 390 865 c 2,9,-1
 390 645 l 2,10,11
 390 518 390 518 479.5 469.5 c 128,-1,0
 569 421 569 421 695.5 421 c 128,-1,1
696 1269 m 0,12,13
 873 1269 873 1269 1004 1201 c 1,14,-1
 1059 1255 l 1,15,-1
 1238 1191 l 1,16,-1
 1245 1184 l 1,17,-1
 1144 1083 l 1,18,19
 1200 996 1200 996 1200 865 c 2,20,-1
 1200 645 l 2,21,22
 1200 516 1200 516 1145 430 c 1,23,-1
 1245 330 l 1,24,-1
 1238 323 l 1,25,-1
 1059 259 l 1,26,-1
 1007 310 l 1,27,28
 874 241 874 241 696 241 c 0,29,30
 512 241 512 241 375 314 c 1,31,-1
 336 275 l 1,32,-1
 157 339 l 1,33,-1
 150 346 l 1,34,-1
 241 437 l 1,35,36
 190 521 190 521 190 645 c 2,37,-1
 190 865 l 2,38,39
 190 998 190 998 248 1085 c 1,40,-1
 150 1184 l 1,41,-1
 157 1191 l 1,42,-1
 335 1255 l 1,43,-1
 388 1202 l 1,44,45
 520 1269 520 1269 696 1269 c 0,12,13
EndSplineSet
Validated: 1
EndChar

StartChar: yen
Encoding: 165 165 101
Width: 1310
GlyphClass: 2
Flags: W
HStem: -20 21G<555 607.222> 114 120<342 555 755 968> 314 120<342 555 755 968> 1510 20G<307.778 360 1097.78 1150>
VStem: 160 200<698.606 1440> 555 200<70 114 234 314 434 444.943> 950 200<698.606 1440>
CounterMasks: 1 0e
LayerCount: 2
Fore
SplineSet
565 -20 m 1,0,-1
 555 -20 l 1,1,-1
 555 114 l 1,2,-1
 290 114 l 1,3,-1
 290 124 l 1,4,-1
 342 234 l 1,5,-1
 555 234 l 1,6,-1
 555 314 l 1,7,-1
 290 314 l 1,8,-1
 290 324 l 1,9,-1
 342 434 l 1,10,-1
 555 434 l 1,11,-1
 555 438 l 1,12,13
 416 456 416 456 307 528 c 0,14,15
 160 624 160 624 160 836 c 2,16,-1
 160 1440 l 1,17,-1
 350 1530 l 1,18,-1
 360 1530 l 1,19,-1
 360 836 l 2,20,21
 360 709 360 709 449 660.5 c 128,-1,22
 538 612 538 612 654.5 612 c 128,-1,23
 771 612 771 612 860.5 660.5 c 128,-1,24
 950 709 950 709 950 836 c 2,25,-1
 950 1440 l 1,26,-1
 1140 1530 l 1,27,-1
 1150 1530 l 1,28,-1
 1150 836 l 2,29,30
 1150 624 1150 624 1002 528 c 0,31,32
 893 457 893 457 755 438 c 1,33,-1
 755 434 l 1,34,-1
 1020 434 l 1,35,-1
 1020 424 l 1,36,-1
 968 314 l 1,37,-1
 755 314 l 1,38,-1
 755 234 l 1,39,-1
 1020 234 l 1,40,-1
 1020 224 l 1,41,-1
 968 114 l 1,42,-1
 755 114 l 1,43,-1
 755 70 l 1,44,-1
 565 -20 l 1,0,-1
EndSplineSet
Validated: 1
EndChar

StartChar: brokenbar
Encoding: 166 166 102
Width: 650
GlyphClass: 2
Flags: W
VStem: 250 150<-134 587 915 1644>
LayerCount: 2
Fore
SplineSet
250 -200 m 1,0,-1
 250 587 l 1,1,-1
 390 653 l 1,2,-1
 400 653 l 1,3,-1
 400 -134 l 1,4,-1
 260 -200 l 1,5,-1
 250 -200 l 1,0,-1
390 1710 m 1,6,-1
 400 1710 l 1,7,-1
 400 915 l 1,8,-1
 260 849 l 1,9,-1
 250 849 l 1,10,-1
 250 1644 l 1,11,-1
 390 1710 l 1,6,-1
EndSplineSet
Validated: 1
EndChar

StartChar: section
Encoding: 167 167 103
Width: 1078
GlyphClass: 2
Flags: W
HStem: -20 159<415.55 653.638> 425 161<385.696 654.252> 924 161<423.748 692.304> 1371 159<424.362 662.45>
VStem: 150 180<638.797 896.679> 209 174<1121.62 1338.3> 695 174<171.699 388.385> 748 180<613.321 871.203>
LayerCount: 2
Fore
SplineSet
534 -20 m 0,0,1
 394 -20 394 -20 301 50 c 128,-1,2
 208 120 208 120 199 231 c 1,3,-1
 362 308 l 1,4,-1
 372 308 l 1,5,-1
 372 261 l 2,6,7
 372 202 372 202 424 168 c 0,8,9
 467 139 467 139 536 139 c 0,10,11
 601 139 601 139 644 167 c 0,12,13
 695 199 695 199 695 261 c 2,14,-1
 695 295 l 2,15,16
 695 354 695 354 655.5 389.5 c 128,-1,17
 616 425 616 425 521 425 c 0,18,19
 358 425 358 425 254 507 c 128,-1,20
 150 589 150 589 150 746 c 2,21,-1
 150 782 l 2,22,23
 150 911 150 911 213 990 c 1,24,-1
 366 898 l 1,25,26
 330 856 330 856 330 778 c 2,27,-1
 330 750 l 2,28,29
 330 669 330 669 384 627.5 c 128,-1,30
 438 586 438 586 527 586 c 0,31,32
 680 586 680 586 774.5 516 c 128,-1,33
 869 446 869 446 869 298 c 2,34,-1
 869 268 l 2,35,36
 869 120 869 120 772.5 50 c 128,-1,37
 676 -20 676 -20 534 -20 c 0,0,1
544 1530 m 0,38,39
 684 1530 684 1530 777 1460 c 128,-1,40
 870 1390 870 1390 879 1279 c 1,41,-1
 716 1202 l 1,42,-1
 706 1202 l 1,43,-1
 706 1249 l 2,44,45
 706 1308 706 1308 654 1342 c 0,46,47
 611 1371 611 1371 542 1371 c 0,48,49
 477 1371 477 1371 434 1343 c 0,50,51
 383 1311 383 1311 383 1249 c 2,52,-1
 383 1215 l 2,53,54
 383 1156 383 1156 422.5 1120.5 c 128,-1,55
 462 1085 462 1085 557 1085 c 0,56,57
 720 1085 720 1085 824 1003 c 128,-1,58
 928 921 928 921 928 764 c 2,59,-1
 928 728 l 2,60,61
 928 599 928 599 865 520 c 1,62,-1
 712 612 l 1,63,64
 748 654 748 654 748 732 c 2,65,-1
 748 760 l 2,66,67
 748 841 748 841 694 882.5 c 128,-1,68
 640 924 640 924 551 924 c 0,69,70
 398 924 398 924 303.5 994 c 128,-1,71
 209 1064 209 1064 209 1212 c 2,72,-1
 209 1242 l 2,73,74
 209 1390 209 1390 305.5 1460 c 128,-1,75
 402 1530 402 1530 544 1530 c 0,38,39
EndSplineSet
Validated: 1
EndChar

StartChar: dieresis
Encoding: 168 168 104
Width: 600
GlyphClass: 2
Flags: W
HStem: 1230 227<84.0344 239.966 361.004 516.996>
VStem: 50 224<1264.55 1422.45> 328 222<1265.07 1422.93>
LayerCount: 2
Fore
SplineSet
439 1458 m 128,-1,1
 486 1458 486 1458 518 1424 c 128,-1,2
 550 1390 550 1390 550 1344 c 128,-1,3
 550 1298 550 1298 518 1264 c 128,-1,4
 486 1230 486 1230 439 1230 c 128,-1,5
 392 1230 392 1230 360 1264 c 128,-1,6
 328 1298 328 1298 328 1344 c 128,-1,7
 328 1390 328 1390 360 1424 c 128,-1,0
 392 1458 392 1458 439 1458 c 128,-1,1
162 1457 m 128,-1,9
 208 1457 208 1457 241 1423.5 c 128,-1,10
 274 1390 274 1390 274 1343.5 c 128,-1,11
 274 1297 274 1297 241 1263.5 c 128,-1,12
 208 1230 208 1230 162 1230 c 128,-1,13
 116 1230 116 1230 83 1263.5 c 128,-1,14
 50 1297 50 1297 50 1343.5 c 128,-1,15
 50 1390 50 1390 83 1423.5 c 128,-1,8
 116 1457 116 1457 162 1457 c 128,-1,9
EndSplineSet
Validated: 1
EndChar

StartChar: copyright
Encoding: 169 169 105
Width: 1401
GlyphClass: 2
Flags: W
HStem: 386 48<545.181 850.676> 546 131<601.678 828.834> 1230 130<589.043 815.667> 1478 52<544.168 856.773>
VStem: 150 50<794.694 1125.05> 436 140<697.633 1211.76> 842 140<696.125 782 1134.05 1209.34> 1200 51<785.868 1126.58>
LayerCount: 2
Fore
SplineSet
708 1360 m 0,0,1
 821 1360 821 1360 898 1310 c 0,2,3
 973 1261 973 1261 982 1140 c 1,4,-1
 852 1086 l 1,5,-1
 842 1086 l 1,6,-1
 841 1138 l 2,7,8
 841 1189 841 1189 803 1210 c 0,9,10
 766 1230 766 1230 708 1230 c 0,11,12
 576 1230 576 1230 576 1138 c 2,13,-1
 576 769 l 2,14,15
 576 717 576 717 613 697 c 128,-1,16
 650 677 650 677 708 677 c 0,17,18
 842 677 842 677 842 769 c 2,19,-1
 842 782 l 1,20,-1
 972 833 l 1,21,-1
 982 833 l 1,22,-1
 982 769 l 2,23,24
 982 652 982 652 900 599 c 128,-1,25
 818 546 818 546 708 546 c 0,26,27
 596 546 596 546 516 599 c 128,-1,28
 436 652 436 652 436 768 c 2,29,-1
 436 1139 l 2,30,31
 436 1256 436 1256 516 1308 c 128,-1,32
 596 1360 596 1360 708 1360 c 0,0,1
701 1530 m 0,33,34
 943 1530 943 1530 1099 1357 c 0,35,36
 1251 1188 1251 1188 1251 953 c 0,37,38
 1251 701 1251 701 1090 549 c 0,39,40
 919 386 919 386 699 386 c 0,41,42
 476 386 476 386 311 549 c 0,43,44
 150 708 150 708 150 953 c 0,45,46
 150 1197 150 1197 308 1362 c 0,47,48
 469 1530 469 1530 701 1530 c 0,33,34
699 1478 m 0,49,50
 499 1478 499 1478 350 1330 c 0,51,52
 200 1181 200 1181 200 953 c 0,53,54
 200 750 200 750 347 587 c 0,55,56
 485 434 485 434 701 434 c 0,57,58
 902 434 902 434 1054 587 c 0,59,60
 1200 734 1200 734 1200 953 c 0,61,62
 1200 1185 1200 1185 1056 1327 c 0,63,64
 903 1478 903 1478 699 1478 c 0,49,50
EndSplineSet
Validated: 1
EndChar

StartChar: ordfeminine
Encoding: 170 170 106
Width: 554
GlyphClass: 2
Flags: W
HStem: 790 120<102 452> 970 121<183.835 357.941> 1270 122<184.131 357.89> 1449 121<173 354.802>
VStem: 50 130<1097.91 1262.61> 360 130<1096.54 1264.54 1374 1441.46>
LayerCount: 2
Fore
SplineSet
173 1570 m 1,0,-1
 262 1570 l 2,1,2
 353 1570 353 1570 421.5 1524 c 128,-1,3
 490 1478 490 1478 490 1381 c 2,4,-1
 490 1017 l 1,5,-1
 370 969 l 1,6,-1
 360 969 l 1,7,-1
 360 987 l 1,8,9
 322 970 322 970 254 970 c 128,-1,10
 186 970 186 970 118 1016 c 128,-1,11
 50 1062 50 1062 50 1158 c 2,12,-1
 50 1204 l 2,13,14
 50 1302 50 1302 118.5 1347 c 128,-1,15
 187 1392 187 1392 254 1392 c 128,-1,16
 321 1392 321 1392 360 1374 c 1,17,-1
 360 1379 l 2,18,19
 360 1449 360 1449 262 1449 c 2,20,-1
 130 1449 l 1,21,-1
 130 1459 l 1,22,-1
 173 1570 l 1,0,-1
180 1161 m 2,23,24
 180 1091 180 1091 272 1091 c 0,25,26
 362 1091 362 1091 362 1161 c 2,27,-1
 362 1201 l 2,28,29
 362 1270 362 1270 271 1270 c 128,-1,30
 180 1270 180 1270 180 1201 c 2,31,-1
 180 1161 l 2,23,24
50 790 m 1,32,-1
 50 800 l 1,33,-1
 102 910 l 1,34,-1
 504 910 l 1,35,-1
 504 900 l 1,36,-1
 452 790 l 1,37,-1
 50 790 l 1,32,-1
EndSplineSet
Validated: 1
EndChar

StartChar: guillemotleft
Encoding: 171 171 107
Width: 1100
GlyphClass: 2
Flags: W
VStem: 150 172<669 841> 502 172<669 841>
DStem2: 322 755 150 755 0.50702 -0.861934<0 425.593> 150 755 322 755 0.50702 0.861934<87.2075 512.8> 674 755 502 755 0.50702 -0.861934<0 425.593> 502 755 674 755 0.50702 0.861934<87.2075 512.8>
LayerCount: 2
Fore
SplineSet
502 755 m 1,0,-1
 762 1197 l 1,1,-1
 772 1197 l 1,2,-1
 900 1136 l 1,3,-1
 674 755 l 1,4,-1
 900 374 l 1,5,-1
 772 313 l 1,6,-1
 762 313 l 1,7,-1
 502 755 l 1,0,-1
150 755 m 1,8,-1
 410 1197 l 1,9,-1
 420 1197 l 1,10,-1
 548 1136 l 1,11,-1
 322 755 l 1,12,-1
 548 374 l 1,13,-1
 420 313 l 1,14,-1
 410 313 l 1,15,-1
 150 755 l 1,8,-1
EndSplineSet
Validated: 1
EndChar

StartChar: logicalnot
Encoding: 172 172 108
Width: 1200
GlyphClass: 2
Flags: W
HStem: 680 150<216 864>
DStem2: 738 418 858 418 0.430979 0.902362<51.7175 290.722>
LayerCount: 2
Fore
SplineSet
216 830 m 1,0,-1
 1050 830 l 1,1,-1
 1050 820 l 1,2,-1
 858 418 l 1,3,-1
 738 418 l 1,4,-1
 864 680 l 1,5,-1
 150 680 l 1,6,-1
 150 690 l 1,7,-1
 216 830 l 1,0,-1
EndSplineSet
Validated: 1
EndChar

StartChar: uni00AD
Encoding: 173 173 109
Width: 1200
GlyphClass: 2
Flags: W
HStem: 680 150<216 984>
LayerCount: 2
Fore
SplineSet
216 830 m 5,0,-1
 1050 830 l 5,1,-1
 1050 820 l 5,2,-1
 984 680 l 5,3,-1
 150 680 l 5,4,-1
 150 690 l 5,5,-1
 216 830 l 5,0,-1
EndSplineSet
Validated: 1
EndChar

StartChar: registered
Encoding: 174 174 110
Width: 1401
GlyphClass: 2
Flags: W
HStem: 386 48<545.181 850.676> 803 131<604 698> 1219 131<604 804.808> 1478 52<544.168 856.773>
VStem: 150 50<794.694 1125.05> 464 140<596 803 934 1219> 844 140<951.084 1198.88> 1200 51<785.868 1126.58>
DStem2: 852 829 698 803 0.577669 -0.816271<0 250.784>
LayerCount: 2
Fore
SplineSet
711 934 m 2,0,1
 844 934 844 934 844 1026 c 2,2,-1
 844 1127 l 2,3,4
 844 1180 844 1180 806 1199.5 c 128,-1,5
 768 1219 768 1219 711 1219 c 2,6,-1
 604 1219 l 1,7,-1
 604 934 l 1,8,-1
 711 934 l 2,0,1
553 1350 m 1,9,-1
 711 1350 l 2,10,11
 820 1350 820 1350 903 1296 c 0,12,13
 984 1245 984 1245 984 1128 c 2,14,-1
 984 1026 l 2,15,16
 984 905 984 905 901 854 c 0,17,18
 878 840 878 840 852 829 c 1,19,-1
 1017 597 l 1,20,-1
 891 543 l 1,21,-1
 882 543 l 1,22,-1
 698 803 l 1,23,-1
 604 803 l 1,24,-1
 604 596 l 1,25,-1
 474 543 l 1,26,-1
 464 543 l 1,27,-1
 464 1306 l 1,28,-1
 553 1350 l 1,9,-1
701 1530 m 0,29,30
 943 1530 943 1530 1099 1357 c 0,31,32
 1251 1188 1251 1188 1251 953 c 0,33,34
 1251 701 1251 701 1090 549 c 0,35,36
 919 386 919 386 699 386 c 0,37,38
 476 386 476 386 311 549 c 0,39,40
 150 708 150 708 150 953 c 0,41,42
 150 1197 150 1197 308 1362 c 0,43,44
 469 1530 469 1530 701 1530 c 0,29,30
699 1478 m 0,45,46
 499 1478 499 1478 350 1330 c 0,47,48
 200 1181 200 1181 200 953 c 0,49,50
 200 750 200 750 347 587 c 0,51,52
 485 434 485 434 701 434 c 0,53,54
 902 434 902 434 1054 587 c 0,55,56
 1200 734 1200 734 1200 953 c 0,57,58
 1200 1185 1200 1185 1056 1327 c 0,59,60
 903 1478 903 1478 699 1478 c 0,45,46
EndSplineSet
Validated: 1
EndChar

StartChar: macron
Encoding: 175 175 111
Width: 600
GlyphClass: 2
Flags: W
HStem: 1299 130<107 493>
VStem: 50 500
LayerCount: 2
Fore
SplineSet
107 1429 m 1,0,-1
 550 1429 l 1,1,-1
 550 1419 l 1,2,-1
 493 1299 l 1,3,-1
 50 1299 l 1,4,-1
 50 1309 l 1,5,-1
 107 1429 l 1,0,-1
EndSplineSet
Validated: 1
EndChar

StartChar: degree
Encoding: 176 176 112
Width: 650
GlyphClass: 2
Flags: W
HStem: 1012 117<209.668 440.332> 1457 113<209.668 440.332>
VStem: 50 127<1155.82 1430.18> 473 127<1155.82 1430.18>
LayerCount: 2
Fore
SplineSet
325 1457 m 128,-1,1
 262 1457 262 1457 219.5 1431 c 128,-1,2
 177 1405 177 1405 177 1342 c 2,3,-1
 177 1244 l 2,4,5
 177 1181 177 1181 219.5 1155 c 128,-1,6
 262 1129 262 1129 325 1129 c 128,-1,7
 388 1129 388 1129 430.5 1155 c 128,-1,8
 473 1181 473 1181 473 1244 c 2,9,-1
 473 1342 l 2,10,11
 473 1405 473 1405 430.5 1431 c 128,-1,0
 388 1457 388 1457 325 1457 c 128,-1,1
325 1570 m 128,-1,13
 439 1570 439 1570 519.5 1515.5 c 128,-1,14
 600 1461 600 1461 600 1345 c 2,15,-1
 600 1237 l 2,16,17
 600 1121 600 1121 519.5 1066.5 c 128,-1,18
 439 1012 439 1012 325 1012 c 128,-1,19
 211 1012 211 1012 130.5 1066.5 c 128,-1,20
 50 1121 50 1121 50 1237 c 2,21,-1
 50 1345 l 2,22,23
 50 1461 50 1461 130.5 1515.5 c 128,-1,12
 211 1570 211 1570 325 1570 c 128,-1,13
EndSplineSet
Validated: 1
EndChar

StartChar: plusminus
Encoding: 177 177 113
Width: 1200
GlyphClass: 2
Flags: W
HStem: 275 150<216 984> 858 150<216 525 675 984>
VStem: 525 150<549 858 1008 1317>
LayerCount: 2
Fore
SplineSet
216 425 m 1,0,-1
 1050 425 l 1,1,-1
 1050 415 l 1,2,-1
 984 275 l 1,3,-1
 150 275 l 1,4,-1
 150 285 l 1,5,-1
 216 425 l 1,0,-1
525 1317 m 1,6,-1
 665 1383 l 1,7,-1
 675 1383 l 1,8,-1
 675 1008 l 1,9,-1
 1050 1008 l 1,10,-1
 1050 998 l 1,11,-1
 984 858 l 1,12,-1
 675 858 l 1,13,-1
 675 549 l 1,14,-1
 535 483 l 1,15,-1
 525 483 l 1,16,-1
 525 858 l 1,17,-1
 150 858 l 1,18,-1
 150 868 l 1,19,-1
 216 1008 l 1,20,-1
 525 1008 l 1,21,-1
 525 1317 l 1,6,-1
EndSplineSet
Validated: 1
EndChar

StartChar: uni00B2
Encoding: 178 178 114
Width: 651
VWidth: 1406
GlyphClass: 2
Flags: W
HStem: 763 131<286 554> 1438 132<205.657 433.997>
VStem: 54 140<1339 1419.88> 459 140<1187.59 1417.88>
DStem2: 94 886 286 894 0.745721 0.666259<148.508 519.744>
LayerCount: 2
Fore
SplineSet
326.5 1570 m 128,-1,1
 437 1570 437 1570 519 1518 c 0,2,3
 599 1467 599 1467 599 1352 c 2,4,-1
 599 1308 l 2,5,6
 599 1174 599 1174 455 1045 c 2,7,-1
 286 894 l 1,8,-1
 601 894 l 1,9,-1
 601 884 l 1,10,-1
 554 763 l 1,11,-1
 50 763 l 1,12,-1
 50 773 l 1,13,-1
 94 886 l 1,14,-1
 338 1104 l 2,15,16
 459 1212 459 1212 459 1303 c 2,17,-1
 459 1347 l 2,18,19
 459 1399 459 1399 421.5 1418.5 c 128,-1,20
 384 1438 384 1438 326 1438 c 0,21,22
 194 1438 194 1438 194 1347 c 2,23,-1
 194 1339 l 1,24,-1
 64 1281 l 1,25,-1
 54 1281 l 1,26,-1
 54 1347 l 2,27,28
 54 1464 54 1464 135 1517 c 128,-1,0
 216 1570 216 1570 326.5 1570 c 128,-1,1
EndSplineSet
Validated: 1
EndChar

StartChar: uni00B3
Encoding: 179 179 115
Width: 635
VWidth: 1396
GlyphClass: 2
Flags: W
HStem: 753 131<202.956 432.319> 1430 130<154 341>
VStem: 50 141<899.482 983.472> 445 140<899.236 1129.37>
LayerCount: 2
Fore
SplineSet
154 1560 m 1,0,-1
 564 1560 l 1,1,-1
 399 1271 l 1,2,3
 585 1229 585 1229 585 1057 c 2,4,-1
 585 975 l 2,5,6
 585 858 585 858 504.5 805.5 c 128,-1,7
 424 753 424 753 318 753 c 0,8,9
 208 753 208 753 133 805 c 0,10,11
 59 856 59 856 50 978 c 1,12,-1
 181 1028 l 1,13,-1
 191 1028 l 1,14,-1
 191 976 l 2,15,16
 191 884 191 884 318 884 c 128,-1,17
 445 884 445 884 445 976 c 2,18,-1
 445 1058 l 2,19,20
 445 1110 445 1110 407 1130 c 0,21,22
 370 1150 370 1150 323 1150 c 0,23,24
 284 1150 284 1150 238 1136 c 1,25,-1
 207 1178 l 1,26,-1
 341 1430 l 1,27,-1
 107 1430 l 1,28,-1
 107 1440 l 1,29,-1
 154 1560 l 1,0,-1
EndSplineSet
Validated: 1
EndChar

StartChar: acute
Encoding: 180 180 116
Width: 377
GlyphClass: 2
Flags: W
HStem: 1160 367
VStem: 50 277
DStem2: 50 1216 178 1160 0.427336 0.904093<4.06987 343.991>
LayerCount: 2
Fore
SplineSet
207 1527 m 1,0,-1
 327 1470 l 1,1,-1
 178 1160 l 1,2,-1
 168 1160 l 1,3,-1
 50 1216 l 1,4,-1
 197 1527 l 1,5,-1
 207 1527 l 1,0,-1
EndSplineSet
Validated: 1
EndChar

StartChar: uni00B5
Encoding: 181 181 117
Width: 1190
GlyphClass: 2
Flags: W
HStem: -430 21G<180 231.975> -20 160<424.194 764.606> 1100 20G<308.025 360 958.025 1010>
VStem: 180 180<-349 49 200.732 1039> 830 180<200.732 1039>
LayerCount: 2
Fore
SplineSet
190 -430 m 1,0,-1
 180 -430 l 1,1,-1
 180 1039 l 1,2,-1
 350 1120 l 1,3,-1
 360 1120 l 1,4,-1
 360 322 l 2,5,6
 360 223 360 223 428.5 181.5 c 128,-1,7
 497 140 497 140 595 140 c 128,-1,8
 693 140 693 140 761.5 181.5 c 128,-1,9
 830 223 830 223 830 322 c 2,10,-1
 830 1039 l 1,11,-1
 1000 1120 l 1,12,-1
 1010 1120 l 1,13,-1
 1010 318 l 2,14,15
 1010 144 1010 144 888.5 62 c 128,-1,16
 767 -20 767 -20 595 -20 c 0,17,18
 448 -20 448 -20 360 49 c 1,19,-1
 360 -349 l 1,20,-1
 190 -430 l 1,0,-1
EndSplineSet
Validated: 1
EndChar

StartChar: paragraph
Encoding: 182 182 118
Width: 1180
GlyphClass: 2
Flags: W
HStem: -20 21G<780 832.857> 548 982<339.61 760.273>
VStem: 780 70<8 604> 914 66<70 1140>
LayerCount: 2
Fore
SplineSet
790 -20 m 1,0,-1
 780 -20 l 1,1,-1
 780 604 l 1,2,3
 697 548 697 548 565 548 c 0,4,5
 393 548 393 548 271.5 630 c 128,-1,6
 150 712 150 712 150 886 c 2,7,-1
 150 1192 l 2,8,9
 150 1366 150 1366 271.5 1448 c 128,-1,10
 393 1530 393 1530 565 1530 c 128,-1,11
 737 1530 737 1530 858.5 1448 c 128,-1,12
 980 1366 980 1366 980 1192 c 2,13,-1
 980 70 l 1,14,-1
 914 39 l 1,15,-1
 914 1140 l 1,16,-1
 850 1110 l 1,17,-1
 850 8 l 1,18,-1
 790 -20 l 1,0,-1
EndSplineSet
Validated: 1
EndChar

StartChar: periodcentered
Encoding: 183 183 119
Width: 340
GlyphClass: 2
Flags: W
HStem: 632 245<86.0974 253.903>
VStem: 50 240<669.129 839.871>
LayerCount: 2
Fore
SplineSet
170 877 m 128,-1,1
 220 877 220 877 255 841 c 128,-1,2
 290 805 290 805 290 754.5 c 128,-1,3
 290 704 290 704 255 668 c 128,-1,4
 220 632 220 632 170 632 c 128,-1,5
 120 632 120 632 85 668 c 128,-1,6
 50 704 50 704 50 754.5 c 128,-1,7
 50 805 50 805 85 841 c 128,-1,0
 120 877 120 877 170 877 c 128,-1,1
EndSplineSet
Validated: 1
EndChar

StartChar: cedilla
Encoding: 184 184 120
Width: 420
GlyphClass: 2
Flags: W
HStem: -410 130<107 197.422>
VStem: 156 103<-61.7314 0> 222 148<-257.261 -86.9303>
LayerCount: 2
Fore
SplineSet
50 -410 m 1,0,-1
 50 -400 l 1,1,-1
 107 -280 l 1,2,3
 222 -264 222 -264 222 -173 c 0,4,5
 222 -100 222 -100 156 -76 c 1,6,-1
 156 0 l 1,7,-1
 259 0 l 1,8,-1
 259 -40 l 1,9,10
 370 -83 370 -83 370 -187 c 0,11,12
 370 -410 370 -410 50 -410 c 1,0,-1
EndSplineSet
Validated: 1
EndChar

StartChar: uni00B9
Encoding: 185 185 121
Width: 412
VWidth: 1401
GlyphClass: 2
Flags: W
VStem: 172 140<787 1380>
LayerCount: 2
Fore
SplineSet
302 1570 m 1,0,-1
 312 1570 l 1,1,-1
 312 787 l 1,2,-1
 182 736 l 1,3,-1
 172 736 l 1,4,-1
 172 1380 l 1,5,-1
 50 1322 l 1,6,-1
 50 1460 l 1,7,-1
 302 1570 l 1,0,-1
EndSplineSet
Validated: 1
EndChar

StartChar: ordmasculine
Encoding: 186 186 122
Width: 554
GlyphClass: 2
Flags: W
HStem: 790 120<102 452> 961 120<185.427 368.621> 1449 121<185.063 368.896>
VStem: 50 130<1088.91 1440.61> 374 130<1090.39 1439.62>
LayerCount: 2
Fore
SplineSet
276 1449 m 0,0,1
 180 1449 180 1449 180 1379 c 2,2,-1
 180 1152 l 2,3,4
 180 1081 180 1081 278 1081 c 0,5,6
 374 1081 374 1081 374 1152 c 2,7,-1
 374 1379 l 2,8,9
 374 1449 374 1449 276 1449 c 0,0,1
277 1570 m 128,-1,11
 369 1570 369 1570 436.5 1524 c 128,-1,12
 504 1478 504 1478 504 1382 c 2,13,-1
 504 1149 l 2,14,15
 504 1051 504 1051 436.5 1006 c 128,-1,16
 369 961 369 961 277 961 c 128,-1,17
 185 961 185 961 117.5 1007 c 128,-1,18
 50 1053 50 1053 50 1149 c 2,19,-1
 50 1382 l 2,20,21
 50 1480 50 1480 117.5 1525 c 128,-1,10
 185 1570 185 1570 277 1570 c 128,-1,11
50 790 m 1,22,-1
 50 800 l 1,23,-1
 102 910 l 1,24,-1
 504 910 l 1,25,-1
 504 900 l 1,26,-1
 452 790 l 1,27,-1
 50 790 l 1,22,-1
EndSplineSet
Validated: 1
EndChar

StartChar: guillemotright
Encoding: 187 187 123
Width: 1100
GlyphClass: 2
Flags: W
VStem: 426 172<669 841> 778 172<669 841>
DStem2: 338 1197 200 1136 0.50702 -0.861934<0 425.593> 200 374 338 313 0.50702 0.861934<17.3908 442.983> 690 1197 552 1136 0.50702 -0.861934<0 425.593> 552 374 690 313 0.50702 0.861934<17.3908 442.983>
LayerCount: 2
Fore
SplineSet
598 755 m 1,0,-1
 338 313 l 1,1,-1
 328 313 l 1,2,-1
 200 374 l 1,3,-1
 426 755 l 1,4,-1
 200 1136 l 1,5,-1
 328 1197 l 1,6,-1
 338 1197 l 1,7,-1
 598 755 l 1,0,-1
950 755 m 1,8,-1
 690 313 l 1,9,-1
 680 313 l 1,10,-1
 552 374 l 1,11,-1
 778 755 l 1,12,-1
 552 1136 l 1,13,-1
 680 1197 l 1,14,-1
 690 1197 l 1,15,-1
 950 755 l 1,8,-1
EndSplineSet
Validated: 1
EndChar

StartChar: onequarter
Encoding: 188 188 124
Width: 1572
VWidth: 1401
GlyphClass: 2
Flags: W
HStem: -20 21G<413.032 473.341 1206 1266.98> 180 131<1043 1206 1346 1375> 1510 20G<356.182 412 1011.67 1072.29>
VStem: 272 140<747 1340> 1206 140<31 180 311 550>
DStem2: 327 42 464 -20 0.423185 0.906043<1.80173 1641.88> 820 190 1043 311 0.562937 0.8265<225.541 514.834>
LayerCount: 2
Fore
SplineSet
454 -20 m 1,0,-1
 327 42 l 1,1,-1
 1021 1530 l 1,2,-1
 1031 1530 l 1,3,-1
 1159 1468 l 1,4,-1
 464 -20 l 1,5,-1
 454 -20 l 1,0,-1
402 1530 m 1,6,-1
 412 1530 l 1,7,-1
 412 747 l 1,8,-1
 282 696 l 1,9,-1
 272 696 l 1,10,-1
 272 1340 l 1,11,-1
 150 1282 l 1,12,-1
 150 1420 l 1,13,-1
 402 1530 l 1,6,-1
1043 311 m 1,14,-1
 1206 311 l 1,15,-1
 1206 550 l 1,16,-1
 1043 311 l 1,14,-1
1216 -20 m 1,17,-1
 1206 -20 l 1,18,-1
 1206 180 l 1,19,-1
 820 180 l 1,20,-1
 820 190 l 1,21,-1
 1213 767 l 1,22,-1
 1336 815 l 1,23,-1
 1346 815 l 1,24,-1
 1346 311 l 1,25,-1
 1422 311 l 1,26,-1
 1422 301 l 1,27,-1
 1375 180 l 1,28,-1
 1346 180 l 1,29,-1
 1346 31 l 1,30,-1
 1216 -20 l 1,17,-1
EndSplineSet
Validated: 1
EndChar

StartChar: onehalf
Encoding: 189 189 125
Width: 1718
VWidth: 1401
GlyphClass: 2
Flags: W
HStem: -20 21G<413.032 473.341> 0 131<1253 1521> 675 132<1172.66 1401> 1510 20G<356.182 412 1011.67 1072.29>
VStem: 272 140<747 1340> 1021 140<576 656.875> 1426 140<424.589 654.883>
DStem2: 327 42 464 -20 0.423185 0.906043<1.80173 1641.88> 1061 123 1253 131 0.745721 0.666259<148.508 519.744>
LayerCount: 2
Fore
SplineSet
1017 0 m 1,0,-1
 1017 10 l 1,1,-1
 1061 123 l 1,2,-1
 1305 341 l 2,3,4
 1426 449 1426 449 1426 540 c 2,5,-1
 1426 584 l 2,6,7
 1426 636 1426 636 1388.5 655.5 c 128,-1,8
 1351 675 1351 675 1293 675 c 0,9,10
 1161 675 1161 675 1161 584 c 2,11,-1
 1161 576 l 1,12,-1
 1031 518 l 1,13,-1
 1021 518 l 1,14,-1
 1021 584 l 2,15,16
 1021 701 1021 701 1102 754 c 128,-1,17
 1183 807 1183 807 1293.5 807 c 128,-1,18
 1404 807 1404 807 1486 755 c 0,19,20
 1566 704 1566 704 1566 589 c 2,21,-1
 1566 545 l 2,22,23
 1566 411 1566 411 1422 282 c 2,24,-1
 1253 131 l 1,25,-1
 1568 131 l 1,26,-1
 1568 121 l 1,27,-1
 1521 0 l 1,28,-1
 1017 0 l 1,0,-1
454 -20 m 1,29,-1
 327 42 l 1,30,-1
 1021 1530 l 1,31,-1
 1031 1530 l 1,32,-1
 1159 1468 l 1,33,-1
 464 -20 l 1,34,-1
 454 -20 l 1,29,-1
402 1530 m 1,35,-1
 412 1530 l 1,36,-1
 412 747 l 1,37,-1
 282 696 l 1,38,-1
 272 696 l 1,39,-1
 272 1340 l 1,40,-1
 150 1282 l 1,41,-1
 150 1420 l 1,42,-1
 402 1530 l 1,35,-1
EndSplineSet
Validated: 1
EndChar

StartChar: threequarters
Encoding: 190 190 126
Width: 1796
VWidth: 1401
GlyphClass: 2
Flags: W
HStem: -20 21G<637.032 697.341 1430 1490.98> 180 131<1267 1430 1570 1599> 723 131<302.956 532.319> 1400 130<254 441>
VStem: 150 141<869.482 953.472> 545 140<869.236 1099.37> 1430 140<31 180 311 550>
DStem2: 551 42 688 -20 0.423185 0.906043<1.80173 1641.88> 1044 190 1267 311 0.562937 0.8265<225.541 514.834>
LayerCount: 2
Fore
SplineSet
254 1530 m 1,0,-1
 664 1530 l 1,1,-1
 499 1241 l 1,2,3
 685 1199 685 1199 685 1027 c 2,4,-1
 685 945 l 2,5,6
 685 828 685 828 604.5 775.5 c 128,-1,7
 524 723 524 723 418 723 c 0,8,9
 308 723 308 723 233 775 c 0,10,11
 159 826 159 826 150 948 c 1,12,-1
 281 998 l 1,13,-1
 291 998 l 1,14,-1
 291 946 l 2,15,16
 291 854 291 854 418 854 c 128,-1,17
 545 854 545 854 545 946 c 2,18,-1
 545 1028 l 2,19,20
 545 1080 545 1080 507 1100 c 0,21,22
 470 1120 470 1120 423 1120 c 0,23,24
 384 1120 384 1120 338 1106 c 1,25,-1
 307 1148 l 1,26,-1
 441 1400 l 1,27,-1
 207 1400 l 1,28,-1
 207 1410 l 1,29,-1
 254 1530 l 1,0,-1
678 -20 m 1,30,-1
 551 42 l 1,31,-1
 1245 1530 l 1,32,-1
 1255 1530 l 1,33,-1
 1383 1468 l 1,34,-1
 688 -20 l 1,35,-1
 678 -20 l 1,30,-1
1267 311 m 1,36,-1
 1430 311 l 1,37,-1
 1430 550 l 1,38,-1
 1267 311 l 1,36,-1
1440 -20 m 1,39,-1
 1430 -20 l 1,40,-1
 1430 180 l 1,41,-1
 1044 180 l 1,42,-1
 1044 190 l 1,43,-1
 1437 767 l 1,44,-1
 1560 815 l 1,45,-1
 1570 815 l 1,46,-1
 1570 311 l 1,47,-1
 1646 311 l 1,48,-1
 1646 301 l 1,49,-1
 1599 180 l 1,50,-1
 1570 180 l 1,51,-1
 1570 31 l 1,52,-1
 1440 -20 l 1,39,-1
EndSplineSet
Validated: 1
EndChar

StartChar: questiondown
Encoding: 191 191 127
Width: 1310
GlyphClass: 2
Flags: W
HStem: -430 180<448.798 861.904> 875 245<591.097 758.903>
VStem: 150 200<-163.394 203.305> 555 240<912.129 1082.87> 569 203<542.324 646> 960 200<-163.394 -26>
LayerCount: 2
Fore
SplineSet
655.5 -430 m 128,-1,1
 445 -430 445 -430 297.5 -334 c 128,-1,2
 150 -238 150 -238 150 -26 c 2,3,-1
 150 30 l 2,4,5
 150 344 150 344 479 509 c 0,6,7
 569 554 569 554 569 646 c 1,8,-1
 762 739 l 1,9,-1
 772 739 l 1,10,11
 772 462 772 462 562 357 c 0,12,13
 350 250 350 250 350 28 c 2,14,-1
 350 -26 l 2,15,16
 350 -153 350 -153 439.5 -201.5 c 128,-1,17
 529 -250 529 -250 655.5 -250 c 128,-1,18
 782 -250 782 -250 871 -201.5 c 128,-1,19
 960 -153 960 -153 960 -26 c 1,20,-1
 1150 64 l 1,21,-1
 1160 64 l 1,22,-1
 1160 -26 l 2,23,24
 1160 -238 1160 -238 1013 -334 c 128,-1,0
 866 -430 866 -430 655.5 -430 c 128,-1,1
675 1120 m 128,-1,26
 725 1120 725 1120 760 1084 c 128,-1,27
 795 1048 795 1048 795 997.5 c 128,-1,28
 795 947 795 947 760 911 c 128,-1,29
 725 875 725 875 675 875 c 128,-1,30
 625 875 625 875 590 911 c 128,-1,31
 555 947 555 947 555 997.5 c 128,-1,32
 555 1048 555 1048 590 1084 c 128,-1,25
 625 1120 625 1120 675 1120 c 128,-1,26
EndSplineSet
Validated: 1
EndChar

StartChar: endash
Encoding: 8211 8211 128
Width: 1200
GlyphClass: 2
Flags: W
HStem: 680 150<216 984>
LayerCount: 2
Fore
SplineSet
216 830 m 5,0,-1
 1050 830 l 5,1,-1
 1050 820 l 5,2,-1
 984 680 l 5,3,-1
 150 680 l 5,4,-1
 150 690 l 5,5,-1
 216 830 l 5,0,-1
EndSplineSet
Validated: 1
EndChar

StartChar: emdash
Encoding: 8212 8212 129
Width: 1500
GlyphClass: 2
Flags: W
HStem: 680 150<216 1284>
LayerCount: 2
Fore
SplineSet
216 830 m 1,0,-1
 1350 830 l 1,1,-1
 1350 820 l 1,2,-1
 1284 680 l 1,3,-1
 150 680 l 1,4,-1
 150 690 l 1,5,-1
 216 830 l 1,0,-1
EndSplineSet
Validated: 1
EndChar

StartChar: afii00208
Encoding: 8213 8213 130
Width: 1500
GlyphClass: 2
Flags: W
HStem: 680 150<216 1284>
LayerCount: 2
Fore
SplineSet
216 830 m 1,0,-1
 1350 830 l 1,1,-1
 1350 820 l 1,2,-1
 1284 680 l 1,3,-1
 150 680 l 1,4,-1
 150 690 l 1,5,-1
 216 830 l 1,0,-1
EndSplineSet
Validated: 1
EndChar

StartChar: quoteleft
Encoding: 8216 8216 131
Width: 389
GlyphClass: 2
Flags: W
HStem: 1046 554
VStem: 50 155<1202.44 1446.68>
LayerCount: 2
Fore
SplineSet
275 1600 m 1,0,-1
 282 1593 l 1,1,2
 205 1463 205 1463 205 1334 c 128,-1,3
 205 1205 205 1205 339 1126 c 1,4,-1
 169 1046 l 1,5,-1
 159 1046 l 1,6,7
 50 1153 50 1153 50 1290 c 0,8,9
 50 1487 50 1487 275 1600 c 1,0,-1
EndSplineSet
Validated: 1
EndChar

StartChar: quoteright
Encoding: 8217 8217 132
Width: 389
GlyphClass: 2
Flags: W
HStem: 1046 554
VStem: 184 155<1199.32 1443.56>
LayerCount: 2
Fore
SplineSet
220 1600 m 1,0,-1
 230 1600 l 1,1,2
 339 1493 339 1493 339 1356 c 0,3,4
 339 1159 339 1159 114 1046 c 1,5,-1
 107 1053 l 1,6,7
 184 1183 184 1183 184 1312 c 128,-1,8
 184 1441 184 1441 50 1520 c 1,9,-1
 220 1600 l 1,0,-1
EndSplineSet
Validated: 1
EndChar

StartChar: quotesinglbase
Encoding: 8218 8218 133
Width: 389
GlyphClass: 2
Flags: W
HStem: -276 554
VStem: 184 155<-122.682 121.561>
LayerCount: 2
Fore
SplineSet
220 278 m 1,0,-1
 230 278 l 1,1,2
 339 171 339 171 339 34 c 0,3,4
 339 -163 339 -163 114 -276 c 1,5,-1
 107 -269 l 1,6,7
 184 -139 184 -139 184 -10 c 128,-1,8
 184 119 184 119 50 198 c 1,9,-1
 220 278 l 1,0,-1
EndSplineSet
Validated: 1
EndChar

StartChar: quotereversed
Encoding: 8219 8219 134
Width: 389
GlyphClass: 2
Flags: W
HStem: 1046 554
VStem: 50 155<1199.32 1443.56>
LayerCount: 2
Fore
SplineSet
169 1600 m 1,0,-1
 339 1520 l 1,1,2
 205 1441 205 1441 205 1312 c 128,-1,3
 205 1183 205 1183 282 1053 c 1,4,-1
 275 1046 l 1,5,6
 50 1159 50 1159 50 1356 c 0,7,8
 50 1493 50 1493 159 1600 c 1,9,-1
 169 1600 l 1,0,-1
EndSplineSet
Validated: 1
EndChar

StartChar: quotedblleft
Encoding: 8220 8220 135
Width: 688
GlyphClass: 2
Flags: W
HStem: 1046 554
VStem: 50 155<1202.44 1446.68> 349 155<1202.44 1446.68>
LayerCount: 2
Fore
SplineSet
275 1600 m 1,0,-1
 282 1593 l 1,1,2
 205 1463 205 1463 205 1334 c 128,-1,3
 205 1205 205 1205 339 1126 c 1,4,-1
 169 1046 l 1,5,-1
 159 1046 l 1,6,7
 50 1153 50 1153 50 1290 c 0,8,9
 50 1487 50 1487 275 1600 c 1,0,-1
574 1600 m 1,10,-1
 581 1593 l 1,11,12
 504 1463 504 1463 504 1334 c 128,-1,13
 504 1205 504 1205 638 1126 c 1,14,-1
 468 1046 l 1,15,-1
 458 1046 l 1,16,17
 349 1153 349 1153 349 1290 c 0,18,19
 349 1487 349 1487 574 1600 c 1,10,-1
EndSplineSet
Validated: 1
EndChar

StartChar: quotedblright
Encoding: 8221 8221 136
Width: 688
GlyphClass: 2
Flags: W
HStem: 1046 554
VStem: 184 155<1199.32 1443.56> 483 155<1199.32 1443.56>
LayerCount: 2
Fore
SplineSet
519 1600 m 1,0,-1
 529 1600 l 1,1,2
 638 1493 638 1493 638 1356 c 0,3,4
 638 1159 638 1159 413 1046 c 1,5,-1
 406 1053 l 1,6,7
 483 1183 483 1183 483 1312 c 128,-1,8
 483 1441 483 1441 349 1520 c 1,9,-1
 519 1600 l 1,0,-1
220 1600 m 1,10,-1
 230 1600 l 1,11,12
 339 1493 339 1493 339 1356 c 0,13,14
 339 1159 339 1159 114 1046 c 1,15,-1
 107 1053 l 1,16,17
 184 1183 184 1183 184 1312 c 128,-1,18
 184 1441 184 1441 50 1520 c 1,19,-1
 220 1600 l 1,10,-1
EndSplineSet
Validated: 1
EndChar

StartChar: quotedblbase
Encoding: 8222 8222 137
Width: 688
GlyphClass: 2
Flags: W
HStem: -276 554
VStem: 184 155<-122.682 121.561> 483 155<-122.682 121.561>
LayerCount: 2
Fore
SplineSet
519 278 m 1,0,-1
 529 278 l 1,1,2
 638 171 638 171 638 34 c 0,3,4
 638 -163 638 -163 413 -276 c 1,5,-1
 406 -269 l 1,6,7
 483 -139 483 -139 483 -10 c 128,-1,8
 483 119 483 119 349 198 c 1,9,-1
 519 278 l 1,0,-1
220 278 m 1,10,-1
 230 278 l 1,11,12
 339 171 339 171 339 34 c 0,13,14
 339 -163 339 -163 114 -276 c 1,15,-1
 107 -269 l 1,16,17
 184 -139 184 -139 184 -10 c 128,-1,18
 184 119 184 119 50 198 c 1,19,-1
 220 278 l 1,10,-1
EndSplineSet
Validated: 1
EndChar

StartChar: dagger
Encoding: 8224 8224 138
Width: 1214
GlyphClass: 2
Flags: W
HStem: -20 21G<507 559.222> 998 180<230 507 707 984> 1510 20G<654.778 707>
VStem: 507 200<70 998 1178 1440>
LayerCount: 2
Fore
SplineSet
517 -20 m 1,0,-1
 507 -20 l 1,1,-1
 507 998 l 1,2,-1
 150 998 l 1,3,-1
 150 1008 l 1,4,-1
 230 1178 l 1,5,-1
 507 1178 l 1,6,-1
 507 1440 l 1,7,-1
 697 1530 l 1,8,-1
 707 1530 l 1,9,-1
 707 1178 l 1,10,-1
 1064 1178 l 1,11,-1
 1064 1168 l 1,12,-1
 984 998 l 1,13,-1
 707 998 l 1,14,-1
 707 70 l 1,15,-1
 517 -20 l 1,0,-1
EndSplineSet
Validated: 1
EndChar

StartChar: daggerdbl
Encoding: 8225 8225 139
Width: 1214
GlyphClass: 2
Flags: W
HStem: -20 21G<507 559.222> 332 180<230 507 707 984> 998 180<230 507 707 984> 1510 20G<654.778 707>
VStem: 507 200<70 332 512 998 1178 1440>
LayerCount: 2
Fore
SplineSet
517 -20 m 1,0,-1
 507 -20 l 1,1,-1
 507 332 l 1,2,-1
 150 332 l 1,3,-1
 150 342 l 1,4,-1
 230 512 l 1,5,-1
 507 512 l 1,6,-1
 507 998 l 1,7,-1
 150 998 l 1,8,-1
 150 1008 l 1,9,-1
 230 1178 l 1,10,-1
 507 1178 l 1,11,-1
 507 1440 l 1,12,-1
 697 1530 l 1,13,-1
 707 1530 l 1,14,-1
 707 1178 l 1,15,-1
 1064 1178 l 1,16,-1
 1064 1168 l 1,17,-1
 984 998 l 1,18,-1
 707 998 l 1,19,-1
 707 512 l 1,20,-1
 1064 512 l 1,21,-1
 1064 502 l 1,22,-1
 984 332 l 1,23,-1
 707 332 l 1,24,-1
 707 70 l 1,25,-1
 517 -20 l 1,0,-1
EndSplineSet
Validated: 1
EndChar

StartChar: bullet
Encoding: 8226 8226 140
Width: 904
GlyphClass: 2
Flags: W
HStem: 448 614<264.112 639.888>
VStem: 150 604<549.618 960.382>
LayerCount: 2
Fore
SplineSet
452 1062 m 128,-1,1
 577 1062 577 1062 665.5 1002 c 128,-1,2
 754 942 754 942 754 814 c 2,3,-1
 754 696 l 2,4,5
 754 568 754 568 665.5 508 c 128,-1,6
 577 448 577 448 452 448 c 128,-1,7
 327 448 327 448 238.5 508 c 128,-1,8
 150 568 150 568 150 696 c 2,9,-1
 150 814 l 2,10,11
 150 942 150 942 238.5 1002 c 128,-1,0
 327 1062 327 1062 452 1062 c 128,-1,1
EndSplineSet
Validated: 1
EndChar

StartChar: ellipsis
Encoding: 8230 8230 141
Width: 1012
GlyphClass: 2
Flags: W
HStem: -20 245<86.0974 253.903 422.097 589.903 758.097 925.903>
VStem: 50 240<17.1285 187.871> 386 240<17.1285 187.871> 722 240<17.1285 187.871>
CounterMasks: 1 70
LayerCount: 2
Fore
SplineSet
842 -20 m 128,-1,1
 792 -20 792 -20 757 16 c 128,-1,2
 722 52 722 52 722 102.5 c 128,-1,3
 722 153 722 153 757 189 c 128,-1,4
 792 225 792 225 842 225 c 128,-1,5
 892 225 892 225 927 189 c 128,-1,6
 962 153 962 153 962 102.5 c 128,-1,7
 962 52 962 52 927 16 c 128,-1,0
 892 -20 892 -20 842 -20 c 128,-1,1
506 -20 m 128,-1,9
 456 -20 456 -20 421 16 c 128,-1,10
 386 52 386 52 386 102.5 c 128,-1,11
 386 153 386 153 421 189 c 128,-1,12
 456 225 456 225 506 225 c 128,-1,13
 556 225 556 225 591 189 c 128,-1,14
 626 153 626 153 626 102.5 c 128,-1,15
 626 52 626 52 591 16 c 128,-1,8
 556 -20 556 -20 506 -20 c 128,-1,9
170 -20 m 128,-1,17
 120 -20 120 -20 85 16 c 128,-1,18
 50 52 50 52 50 102.5 c 128,-1,19
 50 153 50 153 85 189 c 128,-1,20
 120 225 120 225 170 225 c 128,-1,21
 220 225 220 225 255 189 c 128,-1,22
 290 153 290 153 290 102.5 c 128,-1,23
 290 52 290 52 255 16 c 128,-1,16
 220 -20 220 -20 170 -20 c 128,-1,17
EndSplineSet
Validated: 1
EndChar

StartChar: perthousand
Encoding: 8240 8240 142
Width: 2220
GlyphClass: 2
Flags: W
HStem: -20 129<969.952 1220.05 1642.95 1893.05> 470 124<969.952 1220.05 1642.95 1893.05> 916 129<326.952 577.048> 1406 124<326.952 577.048>
VStem: 150 139<1077.56 1374.78> 615 139<1077.56 1374.78> 793 139<141.562 438.777> 1258 139<141.562 438.777> 1466 139<141.562 438.777> 1931 139<141.562 438.777>
DStem2: 358 42 495 -20 0.423185 0.906043<1.80173 1641.88>
LayerCount: 2
Fore
SplineSet
1768 109 m 128,-1,1
 1837 109 1837 109 1884 137.5 c 128,-1,2
 1931 166 1931 166 1931 235 c 2,3,-1
 1931 343 l 2,4,5
 1931 412 1931 412 1884 441 c 128,-1,6
 1837 470 1837 470 1768 470 c 128,-1,7
 1699 470 1699 470 1652 441 c 128,-1,8
 1605 412 1605 412 1605 343 c 2,9,-1
 1605 235 l 2,10,11
 1605 166 1605 166 1652 137.5 c 128,-1,0
 1699 109 1699 109 1768 109 c 128,-1,1
1768 -20 m 128,-1,13
 1643 -20 1643 -20 1554.5 40 c 128,-1,14
 1466 100 1466 100 1466 228 c 2,15,-1
 1466 346 l 2,16,17
 1466 474 1466 474 1554.5 534 c 128,-1,18
 1643 594 1643 594 1768 594 c 128,-1,19
 1893 594 1893 594 1981.5 534 c 128,-1,20
 2070 474 2070 474 2070 346 c 2,21,-1
 2070 228 l 2,22,23
 2070 100 2070 100 1981.5 40 c 128,-1,12
 1893 -20 1893 -20 1768 -20 c 128,-1,13
1095 109 m 128,-1,25
 1164 109 1164 109 1211 137.5 c 128,-1,26
 1258 166 1258 166 1258 235 c 2,27,-1
 1258 343 l 2,28,29
 1258 412 1258 412 1211 441 c 128,-1,30
 1164 470 1164 470 1095 470 c 128,-1,31
 1026 470 1026 470 979 441 c 128,-1,32
 932 412 932 412 932 343 c 2,33,-1
 932 235 l 2,34,35
 932 166 932 166 979 137.5 c 128,-1,24
 1026 109 1026 109 1095 109 c 128,-1,25
1095 -20 m 128,-1,37
 970 -20 970 -20 881.5 40 c 128,-1,38
 793 100 793 100 793 228 c 2,39,-1
 793 346 l 2,40,41
 793 474 793 474 881.5 534 c 128,-1,42
 970 594 970 594 1095 594 c 128,-1,43
 1220 594 1220 594 1308.5 534 c 128,-1,44
 1397 474 1397 474 1397 346 c 2,45,-1
 1397 228 l 2,46,47
 1397 100 1397 100 1308.5 40 c 128,-1,36
 1220 -20 1220 -20 1095 -20 c 128,-1,37
452 1406 m 128,-1,49
 383 1406 383 1406 336 1377 c 128,-1,50
 289 1348 289 1348 289 1279 c 2,51,-1
 289 1171 l 2,52,53
 289 1102 289 1102 336 1073.5 c 128,-1,54
 383 1045 383 1045 452 1045 c 128,-1,55
 521 1045 521 1045 568 1073.5 c 128,-1,56
 615 1102 615 1102 615 1171 c 2,57,-1
 615 1279 l 2,58,59
 615 1348 615 1348 568 1377 c 128,-1,48
 521 1406 521 1406 452 1406 c 128,-1,49
452 1530 m 128,-1,61
 577 1530 577 1530 665.5 1470 c 128,-1,62
 754 1410 754 1410 754 1282 c 2,63,-1
 754 1164 l 2,64,65
 754 1036 754 1036 665.5 976 c 128,-1,66
 577 916 577 916 452 916 c 128,-1,67
 327 916 327 916 238.5 976 c 128,-1,68
 150 1036 150 1036 150 1164 c 2,69,-1
 150 1282 l 2,70,71
 150 1410 150 1410 238.5 1470 c 128,-1,60
 327 1530 327 1530 452 1530 c 128,-1,61
485 -20 m 1,72,-1
 358 42 l 1,73,-1
 1052 1530 l 1,74,-1
 1062 1530 l 1,75,-1
 1190 1468 l 1,76,-1
 495 -20 l 1,77,-1
 485 -20 l 1,72,-1
EndSplineSet
Validated: 1
EndChar

StartChar: minute
Encoding: 8242 8242 143
Width: 414
GlyphClass: 2
Flags: W
HStem: 1201 399
VStem: 50 314
LayerCount: 2
Fore
SplineSet
201 1600 m 1,0,-1
 211 1600 l 1,1,-1
 364 1527 l 1,2,-1
 154 1201 l 1,3,-1
 144 1201 l 1,4,-1
 50 1245 l 1,5,-1
 201 1600 l 1,0,-1
EndSplineSet
Validated: 1
EndChar

StartChar: second
Encoding: 8243 8243 144
Width: 667
GlyphClass: 2
Flags: W
HStem: 1201 399
VStem: 50 567
LayerCount: 2
Fore
SplineSet
454 1600 m 1,0,-1
 464 1600 l 1,1,-1
 617 1527 l 1,2,-1
 407 1201 l 1,3,-1
 397 1201 l 1,4,-1
 303 1245 l 1,5,-1
 454 1600 l 1,0,-1
201 1600 m 1,6,-1
 211 1600 l 1,7,-1
 364 1527 l 1,8,-1
 154 1201 l 1,9,-1
 144 1201 l 1,10,-1
 50 1245 l 1,11,-1
 201 1600 l 1,6,-1
EndSplineSet
Validated: 1
EndChar

StartChar: guilsinglleft
Encoding: 8249 8249 145
Width: 748
GlyphClass: 2
Flags: W
VStem: 150 172<669 841>
DStem2: 322 755 150 755 0.50702 -0.861934<0 425.593> 150 755 322 755 0.50702 0.861934<87.2075 512.8>
LayerCount: 2
Fore
SplineSet
150 755 m 1,0,-1
 410 1197 l 1,1,-1
 420 1197 l 1,2,-1
 548 1136 l 1,3,-1
 322 755 l 1,4,-1
 548 374 l 1,5,-1
 420 313 l 1,6,-1
 410 313 l 1,7,-1
 150 755 l 1,0,-1
EndSplineSet
Validated: 1
EndChar

StartChar: guilsinglright
Encoding: 8250 8250 146
Width: 798
GlyphClass: 2
Flags: W
VStem: 426 172<669 841>
DStem2: 338 1197 200 1136 0.50702 -0.861934<0 425.593> 200 374 338 313 0.50702 0.861934<17.3908 442.983>
LayerCount: 2
Fore
SplineSet
598 755 m 1,0,-1
 338 313 l 1,1,-1
 328 313 l 1,2,-1
 200 374 l 1,3,-1
 426 755 l 1,4,-1
 200 1136 l 1,5,-1
 328 1197 l 1,6,-1
 338 1197 l 1,7,-1
 598 755 l 1,0,-1
EndSplineSet
Validated: 1
EndChar

StartChar: fraction
Encoding: 8260 8260 147
Width: 852
GlyphClass: 2
Flags: W
HStem: -20 21G<96.0323 156.341> 1510 20G<694.672 755.29>
DStem2: 10 42 147 -20 0.423185 0.906043<1.80173 1641.88>
LayerCount: 2
Fore
SplineSet
137 -20 m 1,0,-1
 10 42 l 1,1,-1
 704 1530 l 1,2,-1
 714 1530 l 1,3,-1
 842 1468 l 1,4,-1
 147 -20 l 1,5,-1
 137 -20 l 1,0,-1
EndSplineSet
Validated: 1
EndChar

StartChar: Euro
Encoding: 8364 8364 148
Width: 1400
GlyphClass: 2
Flags: W
HStem: -20 180<538.798 951.904> 595 120<132 240 440 918> 795 120<132 240 440 918> 1350 180<538.798 951.904>
VStem: 240 200<246.606 595 715 795 915 1263.39> 1050 200<246.606 384>
LayerCount: 2
Fore
SplineSet
745.5 -20 m 128,-1,1
 535 -20 535 -20 387.5 76 c 128,-1,2
 240 172 240 172 240 384 c 2,3,-1
 240 595 l 1,4,-1
 80 595 l 1,5,-1
 80 605 l 1,6,-1
 132 715 l 1,7,-1
 240 715 l 1,8,-1
 240 795 l 1,9,-1
 80 795 l 1,10,-1
 80 805 l 1,11,-1
 132 915 l 1,12,-1
 240 915 l 1,13,-1
 240 1126 l 2,14,15
 240 1338 240 1338 387.5 1434 c 128,-1,16
 535 1530 535 1530 745.5 1530 c 128,-1,17
 956 1530 956 1530 1103 1434 c 0,18,19
 1240 1344 1240 1344 1250 1153 c 1,20,-1
 1060 1062 l 1,21,-1
 1050 1062 l 1,22,-1
 1050 1126 l 2,23,24
 1050 1253 1050 1253 961 1301.5 c 128,-1,25
 872 1350 872 1350 745.5 1350 c 128,-1,26
 619 1350 619 1350 529.5 1301.5 c 128,-1,27
 440 1253 440 1253 440 1126 c 2,28,-1
 440 915 l 1,29,-1
 970 915 l 1,30,-1
 970 905 l 1,31,-1
 918 795 l 1,32,-1
 440 795 l 1,33,-1
 440 715 l 1,34,-1
 970 715 l 1,35,-1
 970 705 l 1,36,-1
 918 595 l 1,37,-1
 440 595 l 1,38,-1
 440 384 l 2,39,40
 440 257 440 257 529.5 208.5 c 128,-1,41
 619 160 619 160 745.5 160 c 128,-1,42
 872 160 872 160 961 208.5 c 128,-1,43
 1050 257 1050 257 1050 384 c 1,44,-1
 1240 474 l 1,45,-1
 1250 474 l 1,46,-1
 1250 384 l 2,47,48
 1250 172 1250 172 1103 76 c 128,-1,0
 956 -20 956 -20 745.5 -20 c 128,-1,1
EndSplineSet
Validated: 1
EndChar

StartChar: afii61248
Encoding: 8453 8453 149
Width: 1625
GlyphClass: 2
Flags: W
HStem: -20 130<1082.88 1321.21> 663 130<1082.46 1309.48> 716 131<315.678 542.834> 1400 130<303.043 529.667>
VStem: 150 140<867.633 1381.76> 556 140<866.125 952 1304.05 1379.34> 929 140<128.753 646.124> 1335 140<128.753 642.367>
DStem2: 397 42 534 -20 0.423185 0.906043<1.80173 1641.88>
LayerCount: 2
Fore
SplineSet
422 1530 m 0,0,1
 535 1530 535 1530 612 1480 c 0,2,3
 687 1431 687 1431 696 1310 c 1,4,-1
 566 1256 l 1,5,-1
 556 1256 l 1,6,-1
 555 1308 l 2,7,8
 555 1359 555 1359 517 1380 c 0,9,10
 480 1400 480 1400 422 1400 c 0,11,12
 290 1400 290 1400 290 1308 c 2,13,-1
 290 939 l 2,14,15
 290 887 290 887 327 867 c 128,-1,16
 364 847 364 847 422 847 c 0,17,18
 556 847 556 847 556 939 c 2,19,-1
 556 952 l 1,20,-1
 686 1003 l 1,21,-1
 696 1003 l 1,22,-1
 696 939 l 2,23,24
 696 822 696 822 614 769 c 128,-1,25
 532 716 532 716 422 716 c 0,26,27
 310 716 310 716 230 769 c 128,-1,28
 150 822 150 822 150 938 c 2,29,-1
 150 1309 l 2,30,31
 150 1426 150 1426 230 1478 c 128,-1,32
 310 1530 310 1530 422 1530 c 0,0,1
1203 110 m 0,33,34
 1335 110 1335 110 1335 202 c 2,35,-1
 1335 571 l 2,36,37
 1335 623 1335 623 1297 643 c 128,-1,38
 1259 663 1259 663 1202 663 c 0,39,40
 1069 663 1069 663 1069 571 c 2,41,-1
 1069 202 l 2,42,43
 1069 110 1069 110 1203 110 c 0,33,34
1202 -20 m 128,-1,45
 1091 -20 1091 -20 1010 32.5 c 128,-1,46
 929 85 929 85 929 201 c 2,47,-1
 929 572 l 2,48,49
 929 686 929 686 1009.5 739.5 c 128,-1,50
 1090 793 1090 793 1201.5 793 c 128,-1,51
 1313 793 1313 793 1394 740.5 c 128,-1,52
 1475 688 1475 688 1475 572 c 2,53,-1
 1475 201 l 2,54,55
 1475 85 1475 85 1394 32.5 c 128,-1,44
 1313 -20 1313 -20 1202 -20 c 128,-1,45
524 -20 m 1,56,-1
 397 42 l 1,57,-1
 1091 1530 l 1,58,-1
 1101 1530 l 1,59,-1
 1229 1468 l 1,60,-1
 534 -20 l 1,61,-1
 524 -20 l 1,56,-1
EndSplineSet
Validated: 1
EndChar

StartChar: afii61289
Encoding: 8467 8467 150
Width: 958
GlyphClass: 2
Flags: W
HStem: -20 136<458.002 574.715> 0 21G<50 263> 1510 20G<632 703>
VStem: 232 155<466 819.618> 655 153<1042.58 1357.48>
LayerCount: 2
Fore
SplineSet
387 466 m 1,0,1
 498 708 498 708 554 860 c 0,2,3
 655 1134 655 1134 655 1359 c 1,4,5
 563 1238 563 1238 503 1067 c 0,6,7
 387 740 387 740 387 466 c 1,0,1
50 0 m 1,8,9
 171 158 171 158 244 282 c 1,10,11
 232 366 232 366 232 443 c 0,12,13
 232 629 232 629 279 848 c 0,14,15
 367 1251 367 1251 517 1434 c 0,16,17
 595 1530 595 1530 669 1530 c 0,18,19
 737 1530 737 1530 772 1479 c 0,20,21
 808 1429 808 1429 808 1318 c 0,22,23
 808 1226 808 1226 778 1072 c 0,24,25
 708 722 708 722 422 271 c 1,26,27
 454 116 454 116 511 116 c 0,28,29
 535 116 535 116 562.5 145 c 128,-1,30
 590 174 590 174 616 228 c 1,31,-1
 792 228 l 1,32,33
 715 100 715 100 650.5 40 c 128,-1,34
 586 -20 586 -20 502 -20 c 0,35,36
 382 -20 382 -20 305 90 c 1,37,-1
 251 0 l 1,38,-1
 50 0 l 1,8,9
EndSplineSet
Validated: 1
EndChar

StartChar: trademark
Encoding: 8482 8482 151
Width: 1778
GlyphClass: 2
Flags: W
HStem: 1400 130<147 313 453 619 826.082 1059.95 1231.37 1464.43>
VStem: 313 140<767 1400> 678 140<769 1391.76> 1083 140<769 1388.85> 1488 140<769 1388.85>
LayerCount: 2
Fore
SplineSet
951 1540 m 0,0,1
 1052 1540 1052 1540 1140 1490 c 0,2,3
 1147 1486 1147 1486 1153 1480 c 1,4,5
 1237 1540 1237 1540 1352 1540 c 128,-1,6
 1467 1540 1467 1540 1548 1487 c 0,7,8
 1628 1435 1628 1435 1628 1319 c 2,9,-1
 1628 769 l 1,10,-1
 1498 716 l 1,11,-1
 1488 716 l 1,12,-1
 1488 1318 l 2,13,14
 1488 1369 1488 1369 1450.5 1389.5 c 128,-1,15
 1413 1410 1413 1410 1356 1410 c 0,16,17
 1223 1410 1223 1410 1223 1318 c 2,18,-1
 1223 769 l 1,19,-1
 1093 716 l 1,20,-1
 1083 716 l 1,21,-1
 1083 1318 l 2,22,23
 1083 1369 1083 1369 1046 1389.5 c 128,-1,24
 1009 1410 1009 1410 951 1410 c 0,25,26
 818 1410 818 1410 818 1318 c 2,27,-1
 818 769 l 1,28,-1
 688 716 l 1,29,-1
 678 716 l 1,30,-1
 678 1319 l 2,31,32
 678 1436 678 1436 759 1488 c 128,-1,33
 840 1540 840 1540 951 1540 c 0,0,1
147 1530 m 1,34,-1
 666 1530 l 1,35,-1
 666 1520 l 1,36,-1
 619 1400 l 1,37,-1
 453 1400 l 1,38,-1
 453 767 l 1,39,-1
 323 716 l 1,40,-1
 313 716 l 1,41,-1
 313 1400 l 1,42,-1
 100 1400 l 1,43,-1
 100 1410 l 1,44,-1
 147 1530 l 1,34,-1
EndSplineSet
Validated: 1
EndChar

StartChar: uni2126
Encoding: 8486 8486 152
Width: 1410
GlyphClass: 2
Flags: W
HStem: 0 391<484.463 608 802 926.476> 0 180<280 446 964 1130> 1350 180<498.798 911.904>
VStem: 200 200<469.606 1263.39> 446 162<180 268.098> 802 162<180 267.289> 1010 200<469.606 1263.39>
LayerCount: 2
Fore
SplineSet
608 0 m 1,0,-1
 200 0 l 1,1,-1
 200 10 l 1,2,-1
 280 180 l 1,3,-1
 446 180 l 1,4,-1
 446 248 l 1,5,6
 394 269 394 269 348 299 c 0,7,8
 200 395 200 395 200 607 c 2,9,-1
 200 1126 l 2,10,11
 200 1338 200 1338 347.5 1434 c 128,-1,12
 495 1530 495 1530 705.5 1530 c 128,-1,13
 916 1530 916 1530 1063 1434 c 128,-1,14
 1210 1338 1210 1338 1210 1126 c 2,15,-1
 1210 607 l 2,16,17
 1210 395 1210 395 1063 299 c 0,18,19
 1016 268 1016 268 964 247 c 1,20,-1
 964 180 l 1,21,-1
 1210 180 l 1,22,-1
 1210 170 l 1,23,-1
 1130 0 l 1,24,-1
 802 0 l 1,25,-1
 802 391 l 1,26,27
 868 403 868 403 921 432 c 0,28,29
 1010 479 1010 479 1010 607 c 2,30,-1
 1010 1126 l 2,31,32
 1010 1253 1010 1253 921 1301.5 c 128,-1,33
 832 1350 832 1350 705.5 1350 c 128,-1,34
 579 1350 579 1350 489.5 1301.5 c 128,-1,35
 400 1253 400 1253 400 1126 c 2,36,-1
 400 607 l 2,37,38
 400 480 400 480 490 432 c 0,39,40
 543 403 543 403 608 391 c 1,41,-1
 608 0 l 1,0,-1
EndSplineSet
Validated: 1
EndChar

StartChar: estimated
Encoding: 8494 8494 153
Width: 1330
GlyphClass: 2
Flags: W
HStem: -20 92<451.758 852.453> 525 80<348 983> 1036 84<468.183 852.399>
VStem: 100 248<309.991 525 605 788.181> 983 247<605 774.087>
LayerCount: 2
Fore
SplineSet
1104 204 m 1,0,1
 1032 113 1032 113 948 61 c 0,2,3
 817 -20 817 -20 665 -20 c 0,4,5
 409 -20 409 -20 256 139 c 0,6,7
 100 301 100 301 100 550 c 0,8,9
 100 788 100 788 249 952 c 24,10,11
 402 1120 402 1120 666 1120 c 0,12,13
 915 1120 915 1120 1064 964 c 280,14,15
 1230 790 1230 790 1230 525 c 1,16,-1
 348 525 l 1,17,-1
 348 192 l 1,18,19
 459 72 459 72 666 72 c 256,20,21
 789 72 789 72 880 132 c 0,22,23
 962 186 962 186 1011 266 c 1,24,25
 1104 204 l 1,0,1
348 605 m 1,26,-1
 983 605 l 1,27,-1
 983 903 l 1,28,29
 852 1036 852 1036 666 1036 c 0,30,31
 475 1036 475 1036 348 914 c 1,32,-1
 348 605 l 1,26,-1
EndSplineSet
Validated: 1
EndChar

StartChar: partialdiff
Encoding: 8706 8706 154
Width: 1285
GlyphClass: 2
Flags: W
HStem: -20 153<399.379 663.581> 870 170<546.66 823.335> 1378 152<492 830.299>
VStem: 150 188<198.966 600.959> 952 183<930 1235.35>
LayerCount: 2
Fore
SplineSet
512 -20 m 0,0,1
 150 -20 150 -20 150 375 c 0,2,3
 150 631 150 631 286 815 c 0,4,5
 454 1040 454 1040 672 1040 c 0,6,7
 859 1040 859 1040 952 930 c 1,8,9
 952 1136 952 1136 907 1239 c 0,10,11
 846 1378 846 1378 678 1378 c 0,12,13
 547 1378 547 1378 420 1294 c 1,14,-1
 420 1468 l 1,15,16
 554 1530 554 1530 703 1530 c 0,17,18
 1135 1530 1135 1530 1135 934 c 0,19,20
 1135 545 1135 545 966.5 262.5 c 128,-1,21
 798 -20 798 -20 512 -20 c 0,0,1
525 133 m 0,22,23
 663 133 663 133 772.5 286 c 128,-1,24
 882 439 882 439 920 680 c 1,25,26
 898 765 898 765 834.5 817.5 c 128,-1,27
 771 870 771 870 695 870 c 0,28,29
 535 870 535 870 436.5 710 c 128,-1,30
 338 550 338 550 338 369 c 0,31,32
 338 133 338 133 525 133 c 0,22,23
EndSplineSet
Validated: 1
EndChar

StartChar: uni2206
Encoding: 8710 8710 155
Width: 1331
GlyphClass: 2
Flags: W
HStem: 0 180<266 1057>
DStem2: 5 0 266 180 0.355307 0.93475<260.99 1387.14> 746 1550 660 1235 0.350461 -0.936577<264.882 1392.1>
LayerCount: 2
Fore
SplineSet
5 0 m 1,0,-1
 563 1468 l 1,1,-1
 736 1550 l 1,2,-1
 746 1550 l 1,3,-1
 1326 0 l 1,4,-1
 5 0 l 1,0,-1
266 180 m 1,5,-1
 1057 180 l 1,6,-1
 660 1235 l 1,7,-1
 266 180 l 1,5,-1
EndSplineSet
Validated: 1
EndChar

StartChar: product
Encoding: 8719 8719 156
Width: 1400
GlyphClass: 2
Flags: W
HStem: -430 21G<200 252.222 1000 1052.22> 1330 180<400 1000>
VStem: 200 200<-340 1330> 1000 200<-340 1330>
LayerCount: 2
Fore
SplineSet
210 -430 m 1,0,-1
 200 -430 l 1,1,-1
 200 1460 l 1,2,-1
 306 1510 l 1,3,-1
 1200 1510 l 1,4,-1
 1200 -340 l 1,5,-1
 1010 -430 l 1,6,-1
 1000 -430 l 1,7,-1
 1000 1330 l 1,8,-1
 400 1330 l 1,9,-1
 400 -340 l 1,10,-1
 210 -430 l 1,0,-1
EndSplineSet
Validated: 1
EndChar

StartChar: summation
Encoding: 8721 8721 157
Width: 1203
GlyphClass: 2
Flags: W
HStem: -410 180<405 973> 1330 180<401 953>
DStem2: 100 -410 405 -230 0.431264 0.902226<293.936 1108.37> 401 1330 101 1460 0.480758 -0.876854<0 733.966>
LayerCount: 2
Fore
SplineSet
100 -410 m 1,0,-1
 578 590 l 1,1,-1
 101 1460 l 1,2,-1
 207 1510 l 1,3,-1
 1033 1510 l 1,4,-1
 1033 1500 l 1,5,-1
 953 1330 l 1,6,-1
 401 1330 l 1,7,-1
 808 596 l 1,8,-1
 405 -230 l 1,9,-1
 1053 -230 l 1,10,-1
 1053 -240 l 1,11,-1
 973 -410 l 1,12,-1
 100 -410 l 1,0,-1
EndSplineSet
Validated: 1
EndChar

StartChar: minus
Encoding: 8722 8722 158
Width: 1200
GlyphClass: 2
Flags: W
HStem: 680 150<216 984>
LayerCount: 2
Fore
SplineSet
216 830 m 5,0,-1
 1050 830 l 5,1,-1
 1050 820 l 5,2,-1
 984 680 l 5,3,-1
 150 680 l 5,4,-1
 150 690 l 5,5,-1
 216 830 l 5,0,-1
EndSplineSet
Validated: 1
EndChar

StartChar: uni2215
Encoding: 8725 8725 159
Width: 852
GlyphClass: 2
Flags: W
HStem: -20 21G<96.0323 156.341> 1510 20G<694.672 755.29>
DStem2: 10 42 147 -20 0.423185 0.906043<1.80173 1641.88>
LayerCount: 2
Fore
SplineSet
137 -20 m 1,0,-1
 10 42 l 1,1,-1
 704 1530 l 1,2,-1
 714 1530 l 1,3,-1
 842 1468 l 1,4,-1
 147 -20 l 1,5,-1
 137 -20 l 1,0,-1
EndSplineSet
Validated: 1
EndChar

StartChar: uni2219
Encoding: 8729 8729 160
Width: 340
GlyphClass: 2
Flags: W
HStem: 632 245<86.0974 253.903>
VStem: 50 240<669.129 839.871>
LayerCount: 2
Fore
SplineSet
170 877 m 128,-1,1
 220 877 220 877 255 841 c 128,-1,2
 290 805 290 805 290 754.5 c 128,-1,3
 290 704 290 704 255 668 c 128,-1,4
 220 632 220 632 170 632 c 128,-1,5
 120 632 120 632 85 668 c 128,-1,6
 50 704 50 704 50 754.5 c 128,-1,7
 50 805 50 805 85 841 c 128,-1,0
 120 877 120 877 170 877 c 128,-1,1
EndSplineSet
Validated: 1
EndChar

StartChar: radical
Encoding: 8730 8730 161
Width: 1066
GlyphClass: 2
Flags: W
HStem: -20 21G<312.829 372.133> 1510 20G<852.698 911.714>
DStem2: 213 806 50 733 0.337524 -0.941317<13.6997 567.663> 400 270 488 55 0.35178 0.936083<0 1330.63>
LayerCount: 2
Fore
SplineSet
320 -20 m 1,0,-1
 50 733 l 1,1,-1
 203 806 l 1,2,-1
 213 806 l 1,3,-1
 400 270 l 1,4,-1
 860 1530 l 1,5,-1
 870 1530 l 1,6,-1
 1016 1460 l 1,7,-1
 488 55 l 1,8,-1
 330 -20 l 1,9,-1
 320 -20 l 1,0,-1
EndSplineSet
Validated: 1
EndChar

StartChar: infinity
Encoding: 8734 8734 162
Width: 1369
GlyphClass: 2
Flags: W
HStem: 448 129<326.952 576.895 791.863 1042.05> 938 124<326.952 576.244 792.523 1042.05>
VStem: 150 139<609.562 906.777> 615 139<607.321 907.148> 1080 139<609.562 906.777>
CounterMasks: 1 38
LayerCount: 2
Fore
SplineSet
917 577 m 128,-1,1
 986 577 986 577 1033 605.5 c 128,-1,2
 1080 634 1080 634 1080 703 c 2,3,-1
 1080 811 l 2,4,5
 1080 880 1080 880 1033 909 c 128,-1,6
 986 938 986 938 917 938 c 128,-1,7
 848 938 848 938 801 909 c 128,-1,8
 754 880 754 880 754 811 c 2,9,-1
 754 703 l 2,10,11
 754 634 754 634 801 605.5 c 128,-1,0
 848 577 848 577 917 577 c 128,-1,1
452 577 m 128,-1,13
 521 577 521 577 568 605.5 c 128,-1,14
 615 634 615 634 615 703 c 2,15,-1
 615 811 l 2,16,17
 615 880 615 880 568 909 c 128,-1,18
 521 938 521 938 452 938 c 128,-1,19
 383 938 383 938 336 909 c 128,-1,20
 289 880 289 880 289 811 c 2,21,-1
 289 703 l 2,22,23
 289 634 289 634 336 605.5 c 128,-1,12
 383 577 383 577 452 577 c 128,-1,13
452 1062 m 0,24,25
 580 1062 580 1062 666 1002 c 0,26,27
 676 995 676 995 684 987 c 1,28,29
 693 995 693 995 704 1002 c 0,30,31
 794 1062 794 1062 917 1062 c 0,32,33
 1042 1062 1042 1062 1130.5 1002 c 128,-1,34
 1219 942 1219 942 1219 814 c 2,35,-1
 1219 696 l 2,36,37
 1219 568 1219 568 1130.5 508 c 128,-1,38
 1042 448 1042 448 917 448 c 0,39,40
 798 448 798 448 704 508 c 0,41,42
 693 515 693 515 684 523 c 1,43,44
 676 515 676 515 666 508 c 0,45,46
 576 448 576 448 452 448 c 0,47,48
 327 448 327 448 238.5 508 c 128,-1,49
 150 568 150 568 150 696 c 2,50,-1
 150 814 l 2,51,52
 150 942 150 942 238.5 1002 c 128,-1,53
 327 1062 327 1062 452 1062 c 0,24,25
EndSplineSet
Validated: 1
EndChar

StartChar: approxequal
Encoding: 8776 8776 163
Width: 1138
GlyphClass: 2
Flags: W
HStem: 376 147<657.304 812.171> 590 147<325.829 480.696> 776 147<657.304 812.171> 990 147<325.829 480.696>
VStem: 150 157<447 574.039 847 974.039> 831 157<538.961 666 938.961 1066>
LayerCount: 2
Fore
SplineSet
988 737 m 1,0,1
 988 376 988 376 732 376 c 0,2,3
 615 376 615 376 517 503 c 0,4,5
 450 590 450 590 400 590 c 0,6,7
 307 590 307 590 307 447 c 1,8,-1
 160 376 l 1,9,-1
 150 376 l 1,10,11
 150 737 150 737 406 737 c 0,12,13
 523 737 523 737 621 610 c 0,14,15
 688 523 688 523 738 523 c 0,16,17
 831 523 831 523 831 666 c 1,18,-1
 978 737 l 1,19,-1
 988 737 l 1,0,1
988 1137 m 1,20,21
 988 776 988 776 732 776 c 0,22,23
 615 776 615 776 517 903 c 0,24,25
 450 990 450 990 400 990 c 0,26,27
 307 990 307 990 307 847 c 1,28,-1
 160 776 l 1,29,-1
 150 776 l 1,30,31
 150 1137 150 1137 406 1137 c 0,32,33
 523 1137 523 1137 621 1010 c 0,34,35
 688 923 688 923 738 923 c 0,36,37
 831 923 831 923 831 1066 c 1,38,-1
 978 1137 l 1,39,-1
 988 1137 l 1,20,21
EndSplineSet
Validated: 1
EndChar

StartChar: notequal
Encoding: 8800 8800 164
Width: 1200
GlyphClass: 2
Flags: W
HStem: 480 150<216 417 596 984> 880 150<216 603 783 984>
DStem2: 272 170 380 166 0.422674 0.906282<42.0237 342.235 553.836 783.365 995.389 1296.51>
LayerCount: 2
Fore
SplineSet
216 1030 m 1,0,-1
 673 1030 l 1,1,-1
 820 1345 l 1,2,-1
 919 1345 l 1,3,-1
 928 1341 l 1,4,-1
 783 1030 l 1,5,-1
 1050 1030 l 1,6,-1
 1050 1020 l 1,7,-1
 984 880 l 1,8,-1
 713 880 l 1,9,-1
 596 630 l 1,10,-1
 1050 630 l 1,11,-1
 1050 620 l 1,12,-1
 984 480 l 1,13,-1
 526 480 l 1,14,-1
 380 166 l 1,15,-1
 281 166 l 1,16,-1
 272 170 l 1,17,-1
 417 480 l 1,18,-1
 150 480 l 1,19,-1
 150 490 l 1,20,-1
 216 630 l 1,21,-1
 487 630 l 1,22,-1
 603 880 l 1,23,-1
 150 880 l 1,24,-1
 150 890 l 1,25,-1
 216 1030 l 1,0,-1
EndSplineSet
Validated: 1
EndChar

StartChar: lessequal
Encoding: 8804 8804 165
Width: 1315
GlyphClass: 2
Flags: W
HStem: 275 150<216 1049>
DStem2: 392 888 150 818 0.942662 -0.33375<0 751.043> 216 968 392 888 0.937519 0.347934<137.169 893.848>
LayerCount: 2
Fore
SplineSet
1054 1279 m 1,0,-1
 1115 1152 l 1,1,-1
 1115 1142 l 1,2,-1
 392 888 l 1,3,-1
 1115 643 l 1,4,-1
 1115 633 l 1,5,-1
 1051 499 l 1,6,-1
 150 818 l 1,7,-1
 150 828 l 1,8,-1
 216 968 l 1,9,-1
 1054 1279 l 1,0,-1
216 425 m 1,10,-1
 1115 425 l 1,11,-1
 1115 415 l 1,12,-1
 1049 275 l 1,13,-1
 150 275 l 1,14,-1
 150 285 l 1,15,-1
 216 425 l 1,10,-1
EndSplineSet
Validated: 1
EndChar

StartChar: greaterequal
Encoding: 8805 8805 166
Width: 1315
GlyphClass: 2
Flags: W
HStem: 275 150<266 1099>
DStem2: 264 1279 200 1135 0.942662 -0.33375<0 751.043> 200 636 261 499 0.937519 0.347934<9.52175 766.201>
LayerCount: 2
Fore
SplineSet
264 1279 m 1,0,-1
 1165 960 l 1,1,-1
 1165 950 l 1,2,-1
 1099 810 l 1,3,-1
 261 499 l 1,4,-1
 200 626 l 1,5,-1
 200 636 l 1,6,-1
 923 890 l 1,7,-1
 200 1135 l 1,8,-1
 200 1145 l 1,9,-1
 264 1279 l 1,0,-1
266 425 m 1,10,-1
 1165 425 l 1,11,-1
 1165 415 l 1,12,-1
 1099 275 l 1,13,-1
 200 275 l 1,14,-1
 200 285 l 1,15,-1
 266 425 l 1,10,-1
EndSplineSet
Validated: 1
EndChar

StartChar: lozenge
Encoding: 9674 9674 167
Width: 1134
GlyphClass: 2
Flags: W
HStem: -20 21G<554.678 579.273> 1510 20G<555.207 578.838>
DStem2: 100 738 288 775 0.507923 0.861403<127.361 627.638> 288 775 100 738 0.524536 -0.851388<0 582.074> 567 1530 542 1206 0.509354 -0.860557<266.087 853.984> 591 278 567 -20 0.523035 0.852311<0 492.332>
LayerCount: 2
Fore
SplineSet
591 278 m 5,0,-1
 843 701 l 1,1,-1
 542 1206 l 1,2,-1
 288 775 l 1,3,-1
 591 278 l 5,0,-1
567 -20 m 1,4,-1
 100 738 l 1,5,-1
 567 1530 l 1,6,-1
 1034 741 l 1,7,-1
 567 -20 l 1,4,-1
EndSplineSet
Validated: 1
EndChar

StartChar: Oslash
Encoding: 216 216 168
Width: 1330
Flags: W
HStem: -40 21G<241 358.333> -20 180<464.543 871.96> 1350 180<459.445 865.801>
VStem: 160 200<273.412 1263.39> 970 200<246.606 1236.59>
DStem2: 241 -36 349 -40 0.422823 0.906212<42.04 127.07 340 1452.18 1665.89 1750.14>
LayerCount: 2
Fore
SplineSet
666 -20 m 0,0,1
 507 -20 507 -20 384 35 c 1,2,-1
 349 -40 l 1,3,-1
 250 -40 l 1,4,-1
 241 -36 l 1,5,-1
 297 83 l 1,6,7
 160 180 160 180 160 384 c 2,8,-1
 160 1126 l 2,9,10
 160 1338 160 1338 308 1434 c 128,-1,11
 456 1530 456 1530 666 1530 c 0,12,13
 824 1530 824 1530 946 1476 c 1,14,-1
 981 1550 l 1,15,-1
 1080 1550 l 1,16,-1
 1089 1546 l 1,17,-1
 1033 1427 l 1,18,19
 1170 1330 1170 1330 1170 1126 c 2,20,-1
 1170 384 l 2,21,22
 1170 172 1170 172 1023 76 c 128,-1,23
 876 -20 876 -20 666 -20 c 0,0,1
666 160 m 0,24,25
 792 160 792 160 881 208.5 c 128,-1,26
 970 257 970 257 970 384 c 2,27,-1
 970 1126 l 2,28,29
 970 1193 970 1193 945 1238 c 1,30,-1
 462 202 l 1,31,32
 548 160 548 160 666 160 c 0,24,25
385 272 m 1,33,-1
 868 1308 l 1,34,35
 784 1350 784 1350 666 1350 c 0,36,37
 540 1350 540 1350 450 1301.5 c 128,-1,38
 360 1253 360 1253 360 1126 c 2,39,-1
 360 384 l 2,40,41
 360 317 360 317 385 272 c 1,33,-1
EndSplineSet
Validated: 1
EndChar

StartChar: oslash
Encoding: 248 248 169
Width: 1150
Flags: W
HStem: -40 21G<247 364.231> -20 160<450.762 744.606> 960 160<405.394 699.238>
VStem: 160 180<222.685 899.268> 810 180<200.732 876.898>
DStem2: 247 -36 355 -40 0.422379 0.906419<41.9913 105.146 283.635 1055.77 1235.07 1297.41>
LayerCount: 2
Fore
SplineSet
575 140 m 0,0,1
 673 140 673 140 741.5 181.5 c 128,-1,2
 810 223 810 223 810 322 c 2,3,-1
 810 778 l 2,4,5
 810 840 810 840 783 879 c 1,6,-1
 449 162 l 1,7,8
 504 140 504 140 575 140 c 0,0,1
575 -20 m 0,9,10
 467 -20 467 -20 379 12 c 1,11,-1
 355 -40 l 1,12,-1
 256 -40 l 1,13,-1
 247 -36 l 1,14,-1
 290 56 l 1,15,16
 160 145 160 145 160 318 c 2,17,-1
 160 782 l 2,18,19
 160 956 160 956 281.5 1038 c 128,-1,20
 403 1120 403 1120 575 1120 c 0,21,22
 683 1120 683 1120 771 1088 c 1,23,-1
 795 1140 l 1,24,-1
 894 1140 l 1,25,-1
 903 1136 l 1,26,-1
 860 1044 l 1,27,28
 990 954 990 954 990 782 c 2,29,-1
 990 318 l 2,30,31
 990 144 990 144 868.5 62 c 128,-1,32
 747 -20 747 -20 575 -20 c 0,9,10
367 221 m 1,33,-1
 701 938 l 1,34,35
 646 960 646 960 575 960 c 0,36,37
 477 960 477 960 408.5 918.5 c 128,-1,38
 340 877 340 877 340 778 c 2,39,-1
 340 322 l 2,40,41
 340 260 340 260 367 221 c 1,33,-1
EndSplineSet
Validated: 1
EndChar

StartChar: multiply
Encoding: 215 215 170
Width: 1142
Flags: W
HStem: 649 212<465 677>
VStem: 465 212<649 861>
DStem2: 353 1080 200 1020 0.706507 -0.707706<0 309.006 459.04 768.046> 200 490 353 430 0.706507 0.707706<65.6332 374.639 524.673 833.679>
LayerCount: 2
Fore
SplineSet
789 1080 m 1,0,-1
 935 1027 l 1,1,-1
 942 1020 l 1,2,-1
 677 755 l 1,3,-1
 942 490 l 1,4,-1
 935 483 l 1,5,-1
 789 430 l 1,6,-1
 571 649 l 1,7,-1
 353 430 l 1,8,-1
 207 483 l 1,9,-1
 200 490 l 1,10,-1
 465 755 l 1,11,-1
 200 1020 l 1,12,-1
 207 1027 l 1,13,-1
 353 1080 l 1,14,-1
 571 861 l 1,15,-1
 789 1080 l 1,0,-1
EndSplineSet
Validated: 1
EndChar

StartChar: divide
Encoding: 247 247 171
Width: 1200
Flags: W
HStem: 306 245<516.097 683.903> 680 150<216 984> 959 245<516.097 683.903>
VStem: 480 240<343.129 513.871 996.129 1166.87>
CounterMasks: 1 e0
LayerCount: 2
Fore
SplineSet
216 830 m 1,0,-1
 1050 830 l 1,1,-1
 1050 820 l 1,2,-1
 984 680 l 1,3,-1
 150 680 l 1,4,-1
 150 690 l 1,5,-1
 216 830 l 1,0,-1
600 1204 m 128,-1,7
 650 1204 650 1204 685 1168 c 128,-1,8
 720 1132 720 1132 720 1081.5 c 128,-1,9
 720 1031 720 1031 685 995 c 128,-1,10
 650 959 650 959 600 959 c 128,-1,11
 550 959 550 959 515 995 c 128,-1,12
 480 1031 480 1031 480 1081.5 c 128,-1,13
 480 1132 480 1132 515 1168 c 128,-1,6
 550 1204 550 1204 600 1204 c 128,-1,7
600 306 m 128,-1,15
 550 306 550 306 515 342 c 128,-1,16
 480 378 480 378 480 428.5 c 128,-1,17
 480 479 480 479 515 515 c 128,-1,18
 550 551 550 551 600 551 c 128,-1,19
 650 551 650 551 685 515 c 128,-1,20
 720 479 720 479 720 428.5 c 128,-1,21
 720 378 720 378 685 342 c 128,-1,14
 650 306 650 306 600 306 c 128,-1,15
EndSplineSet
Validated: 1
EndChar

StartChar: uni1E02
Encoding: 7682 7682 172
Width: 1250
Flags: W
HStem: 0 180<400 860.345> 746 180<400 814.313> 1330 180<400 814.375> 1630 245<521.097 688.903>
VStem: 200 200<180 746 926 1330> 485 240<1667.13 1837.87> 880 190<986.732 1267.2> 960 200<267.067 658.289>
LayerCount: 2
Fore
SplineSet
400 180 m 1,0,-1
 655 180 l 2,1,2
 779 180 779 180 870 228 c 0,3,4
 960 276 960 276 960 404 c 2,5,-1
 960 522 l 2,6,7
 960 649 960 649 870 698 c 0,8,9
 782 746 782 746 655 746 c 2,10,-1
 400 746 l 1,11,-1
 400 180 l 1,0,-1
200 0 m 1,12,-1
 200 1440 l 1,13,-1
 348 1510 l 1,14,-1
 655 1510 l 2,15,16
 827 1510 827 1510 948.5 1428 c 128,-1,17
 1070 1346 1070 1346 1070 1172 c 2,18,-1
 1070 1084 l 2,19,20
 1070 917 1070 917 937 851 c 1,21,22
 1160 779 1160 779 1160 522 c 2,23,-1
 1160 404 l 2,24,25
 1160 193 1160 193 1012 96 c 0,26,27
 865 0 865 0 655 0 c 2,28,-1
 200 0 l 1,12,-1
400 926 m 1,29,-1
 645 926 l 2,30,31
 743 926 743 926 811.5 967.5 c 128,-1,32
 880 1009 880 1009 880 1108 c 2,33,-1
 880 1148 l 2,34,35
 880 1247 880 1247 811.5 1288.5 c 128,-1,36
 743 1330 743 1330 645 1330 c 2,37,-1
 400 1330 l 1,38,-1
 400 926 l 1,29,-1
605 1875 m 128,-1,40
 655 1875 655 1875 690 1839 c 128,-1,41
 725 1803 725 1803 725 1752.5 c 128,-1,42
 725 1702 725 1702 690 1666 c 128,-1,43
 655 1630 655 1630 605 1630 c 128,-1,44
 555 1630 555 1630 520 1666 c 128,-1,45
 485 1702 485 1702 485 1752.5 c 128,-1,46
 485 1803 485 1803 520 1839 c 128,-1,39
 555 1875 555 1875 605 1875 c 128,-1,40
EndSplineSet
Validated: 1
EndChar

StartChar: uni1E03
Encoding: 7683 7683 173
Width: 1170
Flags: W
HStem: -20 160<425.394 764.606> 960 160<424.3 764.606> 1220 245<512.097 679.903> 1510 20G<308.025 360>
VStem: 180 180<200.732 899.268 1051 1449> 476 240<1257.13 1427.87> 830 180<200.732 899.268>
LayerCount: 2
Fore
SplineSet
595 -20 m 128,-1,1
 423 -20 423 -20 301.5 62 c 128,-1,2
 180 144 180 144 180 318 c 2,3,-1
 180 1449 l 1,4,-1
 350 1530 l 1,5,-1
 360 1530 l 1,6,-1
 360 1051 l 1,7,8
 441 1120 441 1120 595 1120 c 0,9,10
 767 1120 767 1120 888.5 1038 c 128,-1,11
 1010 956 1010 956 1010 782 c 2,12,-1
 1010 318 l 2,13,14
 1010 144 1010 144 888.5 62 c 128,-1,0
 767 -20 767 -20 595 -20 c 128,-1,1
595 140 m 128,-1,16
 693 140 693 140 761.5 181.5 c 128,-1,17
 830 223 830 223 830 322 c 2,18,-1
 830 778 l 2,19,20
 830 877 830 877 761.5 918.5 c 128,-1,21
 693 960 693 960 595 960 c 128,-1,22
 497 960 497 960 428.5 918.5 c 128,-1,23
 360 877 360 877 360 778 c 2,24,-1
 360 322 l 2,25,26
 360 223 360 223 428.5 181.5 c 128,-1,15
 497 140 497 140 595 140 c 128,-1,16
596 1465 m 128,-1,28
 646 1465 646 1465 681 1429 c 128,-1,29
 716 1393 716 1393 716 1342.5 c 128,-1,30
 716 1292 716 1292 681 1256 c 128,-1,31
 646 1220 646 1220 596 1220 c 128,-1,32
 546 1220 546 1220 511 1256 c 128,-1,33
 476 1292 476 1292 476 1342.5 c 128,-1,34
 476 1393 476 1393 511 1429 c 128,-1,27
 546 1465 546 1465 596 1465 c 128,-1,28
EndSplineSet
Validated: 1
EndChar

StartChar: uni1E0A
Encoding: 7690 7690 174
Width: 1350
Flags: W
HStem: 0 180<400 890.345> 1330 180<400 889.847> 1630 245<551.097 718.903>
VStem: 200 200<180 1330> 515 240<1667.13 1837.87> 990 200<266.146 1243.39>
LayerCount: 2
Fore
SplineSet
400 180 m 1,0,-1
 685 180 l 2,1,2
 812 180 812 180 900 228 c 0,3,4
 990 276 990 276 990 404 c 2,5,-1
 990 1106 l 2,6,7
 990 1234 990 1234 900 1282 c 0,8,9
 812 1330 812 1330 685 1330 c 2,10,-1
 400 1330 l 1,11,-1
 400 180 l 1,0,-1
200 0 m 1,12,-1
 200 1440 l 1,13,-1
 348 1510 l 1,14,-1
 685 1510 l 2,15,16
 894 1510 894 1510 1042 1414 c 128,-1,17
 1190 1318 1190 1318 1190 1106 c 2,18,19
 1190 404 l 2,20,21
 1190 191 1190 191 1042 96 c 0,22,23
 895 0 895 0 685 0 c 2,24,-1
 200 0 l 1,12,-1
635 1875 m 128,-1,26
 685 1875 685 1875 720 1839 c 128,-1,27
 755 1803 755 1803 755 1752.5 c 128,-1,28
 755 1702 755 1702 720 1666 c 128,-1,29
 685 1630 685 1630 635 1630 c 128,-1,30
 585 1630 585 1630 550 1666 c 128,-1,31
 515 1702 515 1702 515 1752.5 c 128,-1,32
 515 1803 515 1803 550 1839 c 128,-1,25
 585 1875 585 1875 635 1875 c 128,-1,26
EndSplineSet
Validated: 1
EndChar

StartChar: uni1E0B
Encoding: 7691 7691 175
Width: 1170
Flags: W
HStem: -20 160<405.394 744.606> 960 160<405.394 745.7> 1220 245<490.097 657.903> 1510 20G<938.025 990>
VStem: 160 180<200.732 899.268> 454 240<1257.13 1427.87> 810 180<200.732 899.268 1051 1449>
LayerCount: 2
Fore
SplineSet
575 -20 m 128,-1,1
 403 -20 403 -20 281.5 62 c 128,-1,2
 160 144 160 144 160 318 c 2,3,-1
 160 782 l 2,4,5
 160 956 160 956 281.5 1038 c 128,-1,6
 403 1120 403 1120 575 1120 c 0,7,8
 729 1120 729 1120 810 1051 c 1,9,-1
 810 1449 l 1,10,-1
 980 1530 l 1,11,-1
 990 1530 l 1,12,-1
 990 318 l 2,13,14
 990 144 990 144 868.5 62 c 128,-1,0
 747 -20 747 -20 575 -20 c 128,-1,1
575 140 m 128,-1,16
 673 140 673 140 741.5 181.5 c 128,-1,17
 810 223 810 223 810 322 c 2,18,-1
 810 778 l 2,19,20
 810 877 810 877 741.5 918.5 c 128,-1,21
 673 960 673 960 575 960 c 128,-1,22
 477 960 477 960 408.5 918.5 c 128,-1,23
 340 877 340 877 340 778 c 2,24,-1
 340 322 l 2,25,26
 340 223 340 223 408.5 181.5 c 128,-1,15
 477 140 477 140 575 140 c 128,-1,16
574 1465 m 128,-1,28
 624 1465 624 1465 659 1429 c 128,-1,29
 694 1393 694 1393 694 1342.5 c 128,-1,30
 694 1292 694 1292 659 1256 c 128,-1,31
 624 1220 624 1220 574 1220 c 128,-1,32
 524 1220 524 1220 489 1256 c 128,-1,33
 454 1292 454 1292 454 1342.5 c 128,-1,34
 454 1393 454 1393 489 1429 c 128,-1,27
 524 1465 524 1465 574 1465 c 128,-1,28
EndSplineSet
Validated: 1
EndChar

StartChar: uni1E1E
Encoding: 7710 7710 176
Width: 1010
Flags: W
HStem: -20 21G<200 252.222> 665 180<400 880> 1330 180<400 880> 1630 245<510.097 677.903>
VStem: 200 200<70 665 845 1330> 474 240<1667.13 1837.87>
LayerCount: 2
Fore
SplineSet
200 -20 m 1,0,-1
 200 1440 l 1,1,-1
 348 1510 l 1,2,-1
 960 1510 l 1,3,-1
 960 1500 l 1,4,-1
 880 1330 l 1,5,-1
 400 1330 l 1,6,-1
 400 845 l 1,7,-1
 960 845 l 1,8,-1
 960 835 l 1,9,-1
 880 665 l 1,10,-1
 400 665 l 1,11,-1
 400 70 l 1,12,-1
 210 -20 l 1,13,-1
 200 -20 l 1,0,-1
594 1875 m 128,-1,15
 644 1875 644 1875 679 1839 c 128,-1,16
 714 1803 714 1803 714 1752.5 c 128,-1,17
 714 1702 714 1702 679 1666 c 128,-1,18
 644 1630 644 1630 594 1630 c 128,-1,19
 544 1630 544 1630 509 1666 c 128,-1,20
 474 1702 474 1702 474 1752.5 c 128,-1,21
 474 1803 474 1803 509 1839 c 128,-1,14
 544 1875 544 1875 594 1875 c 128,-1,15
EndSplineSet
Validated: 1
EndChar

StartChar: uni1E1F
Encoding: 7711 7711 177
Width: 780
Flags: W
HStem: -20 21G<180 231.975> 740 160<360 660> 1350 160<426.502 699> 1630 245<356.097 523.903>
VStem: 180 180<61 740 900 1289.27> 320 240<1667.13 1837.87>
LayerCount: 2
Fore
SplineSet
190 -20 m 1,0,-1
 180 -20 l 1,1,-1
 180 1172 l 2,2,3
 180 1346 180 1346 301.5 1428 c 128,-1,4
 423 1510 423 1510 595 1510 c 2,5,-1
 770 1510 l 1,6,-1
 770 1500 l 1,7,-1
 699 1350 l 1,8,-1
 595 1350 l 2,9,10
 497 1350 497 1350 428.5 1308.5 c 128,-1,11
 360 1267 360 1267 360 1168 c 2,12,-1
 360 900 l 1,13,-1
 731 900 l 1,14,-1
 731 890 l 1,15,-1
 660 740 l 1,16,-1
 360 740 l 1,17,-1
 360 61 l 1,18,-1
 190 -20 l 1,0,-1
440 1875 m 128,-1,20
 490 1875 490 1875 525 1839 c 128,-1,21
 560 1803 560 1803 560 1752.5 c 128,-1,22
 560 1702 560 1702 525 1666 c 128,-1,23
 490 1630 490 1630 440 1630 c 128,-1,24
 390 1630 390 1630 355 1666 c 128,-1,25
 320 1702 320 1702 320 1752.5 c 128,-1,26
 320 1803 320 1803 355 1839 c 128,-1,19
 390 1875 390 1875 440 1875 c 128,-1,20
EndSplineSet
Validated: 1
EndChar

StartChar: uni1E40
Encoding: 7744 7744 178
Width: 2180
Flags: W
HStem: -20 21G<180 232.222 990 1042.22 1800 1852.22> 1350 180<478.798 891.904 1289.17 1701.96> 1630 245<1003.1 1170.9>
VStem: 180 200<70 1263.39> 967 240<1667.13 1837.87> 990 200<70 1265.78> 1800 200<70 1263.39>
LayerCount: 2
Fore
SplineSet
190 -20 m 1,0,-1
 180 -20 l 1,1,-1
 180 1126 l 2,2,3
 180 1338 180 1338 327.5 1434 c 128,-1,4
 475 1530 475 1530 685.5 1530 c 128,-1,5
 896 1530 896 1530 1043 1434 c 0,6,7
 1069 1417 1069 1417 1090 1397 c 1,8,9
 1112 1417 1112 1417 1138 1434 c 0,10,11
 1286 1530 1286 1530 1496 1530 c 128,-1,12
 1706 1530 1706 1530 1853 1434 c 128,-1,13
 2000 1338 2000 1338 2000 1126 c 2,14,-1
 2000 70 l 1,15,-1
 1810 -20 l 1,16,-1
 1800 -20 l 1,17,-1
 1800 1126 l 2,18,19
 1800 1253 1800 1253 1711 1301.5 c 128,-1,20
 1622 1350 1622 1350 1495.5 1350 c 128,-1,21
 1369 1350 1369 1350 1279.5 1301.5 c 128,-1,22
 1190 1253 1190 1253 1190 1126 c 2,23,-1
 1190 70 l 1,24,-1
 1000 -20 l 1,25,-1
 990 -20 l 1,26,-1
 990 1126 l 2,27,28
 990 1253 990 1253 901 1301.5 c 128,-1,29
 812 1350 812 1350 685.5 1350 c 128,-1,30
 559 1350 559 1350 469.5 1301.5 c 128,-1,31
 380 1253 380 1253 380 1126 c 2,32,-1
 380 70 l 1,33,-1
 190 -20 l 1,0,-1
1087 1875 m 128,-1,35
 1137 1875 1137 1875 1172 1839 c 128,-1,36
 1207 1803 1207 1803 1207 1752.5 c 128,-1,37
 1207 1702 1207 1702 1172 1666 c 128,-1,38
 1137 1630 1137 1630 1087 1630 c 128,-1,39
 1037 1630 1037 1630 1002 1666 c 128,-1,40
 967 1702 967 1702 967 1752.5 c 128,-1,41
 967 1803 967 1803 1002 1839 c 128,-1,34
 1037 1875 1037 1875 1087 1875 c 128,-1,35
EndSplineSet
Validated: 1
EndChar

StartChar: uni1E41
Encoding: 7745 7745 179
Width: 1840
Flags: W
HStem: -20 21G<180 231.975 830 881.975 1480 1531.98> 960 160<425.394 764.286 1075.77 1414.66> 1220 245<832.097 999.903>
VStem: 180 180<61 899.268> 796 240<1257.13 1427.87> 830 180<61 899.268> 1480 180<61 899.268>
LayerCount: 2
Fore
SplineSet
190 -20 m 1,0,-1
 180 -20 l 1,1,-1
 180 782 l 2,2,3
 180 956 180 956 301.5 1038 c 128,-1,4
 423 1120 423 1120 595 1120 c 0,5,6
 766 1120 766 1120 888 1038 c 0,7,8
 905 1027 905 1027 920 1013 c 1,9,10
 936 1026 936 1026 952 1038 c 0,11,12
 1074 1120 1074 1120 1245.5 1120 c 128,-1,13
 1417 1120 1417 1120 1538.5 1038 c 128,-1,14
 1660 956 1660 956 1660 782 c 2,15,-1
 1660 61 l 1,16,-1
 1490 -20 l 1,17,-1
 1480 -20 l 1,18,-1
 1480 778 l 2,19,20
 1480 877 1480 877 1411.5 918.5 c 128,-1,21
 1343 960 1343 960 1245 960 c 128,-1,22
 1147 960 1147 960 1078.5 918.5 c 128,-1,23
 1010 877 1010 877 1010 778 c 2,24,-1
 1010 61 l 1,25,-1
 840 -20 l 1,26,-1
 830 -20 l 1,27,-1
 830 778 l 2,28,29
 830 877 830 877 761.5 918.5 c 128,-1,30
 693 960 693 960 595 960 c 128,-1,31
 497 960 497 960 428.5 918.5 c 128,-1,32
 360 877 360 877 360 778 c 2,33,-1
 360 61 l 1,34,-1
 190 -20 l 1,0,-1
916 1465 m 128,-1,36
 966 1465 966 1465 1001 1429 c 128,-1,37
 1036 1393 1036 1393 1036 1342.5 c 128,-1,38
 1036 1292 1036 1292 1001 1256 c 128,-1,39
 966 1220 966 1220 916 1220 c 128,-1,40
 866 1220 866 1220 831 1256 c 128,-1,41
 796 1292 796 1292 796 1342.5 c 128,-1,42
 796 1393 796 1393 831 1429 c 128,-1,35
 866 1465 866 1465 916 1465 c 128,-1,36
EndSplineSet
Validated: 1
EndChar

StartChar: uni1E56
Encoding: 7766 7766 180
Width: 1210
Flags: W
HStem: -20 21G<200 252.222> 500 180<400 860.345> 1330 180<400 859.847> 1630 245<504.097 671.903>
VStem: 200 200<70 500 680 1330> 468 240<1667.13 1837.87> 960 200<767.067 1243.39>
LayerCount: 2
Fore
SplineSet
210 -20 m 1,0,-1
 200 -20 l 1,1,-1
 200 1440 l 1,2,-1
 348 1510 l 1,3,-1
 655 1510 l 2,4,5
 864 1510 864 1510 1012 1414 c 128,-1,6
 1160 1318 1160 1318 1160 1106 c 2,7,-1
 1160 904 l 2,8,9
 1160 693 1160 693 1012 596 c 0,10,11
 865 500 865 500 655 500 c 2,12,-1
 400 500 l 1,13,-1
 400 70 l 1,14,-1
 210 -20 l 1,0,-1
400 680 m 1,15,-1
 655 680 l 2,16,17
 782 680 782 680 870 728 c 0,18,19
 960 776 960 776 960 904 c 2,20,-1
 960 1106 l 2,21,22
 960 1234 960 1234 870 1282 c 0,23,24
 782 1330 782 1330 655 1330 c 2,25,-1
 400 1330 l 1,26,-1
 400 680 l 1,15,-1
588 1875 m 128,-1,28
 638 1875 638 1875 673 1839 c 128,-1,29
 708 1803 708 1803 708 1752.5 c 128,-1,30
 708 1702 708 1702 673 1666 c 128,-1,31
 638 1630 638 1630 588 1630 c 128,-1,32
 538 1630 538 1630 503 1666 c 128,-1,33
 468 1702 468 1702 468 1752.5 c 128,-1,34
 468 1803 468 1803 503 1839 c 128,-1,27
 538 1875 538 1875 588 1875 c 128,-1,28
EndSplineSet
Validated: 1
EndChar

StartChar: uni1E57
Encoding: 7767 7767 181
Width: 1170
Flags: W
HStem: -430 21G<180 231.975> -20 160<424.3 764.606> 960 160<425.394 764.606> 1220 245<514.097 681.903>
VStem: 180 180<-349 49 200.732 899.268> 478 240<1257.13 1427.87> 830 180<200.732 899.268>
LayerCount: 2
Fore
SplineSet
190 -430 m 1,0,-1
 180 -430 l 1,1,-1
 180 782 l 2,2,3
 180 956 180 956 301.5 1038 c 128,-1,4
 423 1120 423 1120 595 1120 c 128,-1,5
 767 1120 767 1120 888.5 1038 c 128,-1,6
 1010 956 1010 956 1010 782 c 2,7,-1
 1010 318 l 2,8,9
 1010 144 1010 144 888.5 62 c 128,-1,10
 767 -20 767 -20 595 -20 c 0,11,12
 441 -20 441 -20 360 49 c 1,13,-1
 360 -349 l 1,14,-1
 190 -430 l 1,0,-1
595 960 m 128,-1,16
 497 960 497 960 428.5 918.5 c 128,-1,17
 360 877 360 877 360 778 c 2,18,-1
 360 322 l 2,19,20
 360 223 360 223 428.5 181.5 c 128,-1,21
 497 140 497 140 595 140 c 128,-1,22
 693 140 693 140 761.5 181.5 c 128,-1,23
 830 223 830 223 830 322 c 2,24,-1
 830 778 l 2,25,26
 830 877 830 877 761.5 918.5 c 128,-1,15
 693 960 693 960 595 960 c 128,-1,16
598 1465 m 128,-1,28
 648 1465 648 1465 683 1429 c 128,-1,29
 718 1393 718 1393 718 1342.5 c 128,-1,30
 718 1292 718 1292 683 1256 c 128,-1,31
 648 1220 648 1220 598 1220 c 128,-1,32
 548 1220 548 1220 513 1256 c 128,-1,33
 478 1292 478 1292 478 1342.5 c 128,-1,34
 478 1393 478 1393 513 1429 c 128,-1,27
 548 1465 548 1465 598 1465 c 128,-1,28
EndSplineSet
Validated: 1
EndChar

StartChar: uni1E6A
Encoding: 7786 7786 182
Width: 1070
Flags: W
HStem: -20 21G<435 487.222> 1330 180<90 435 635 980> 1630 245<445.097 612.903>
VStem: 409 240<1667.13 1837.87> 435 200<70 1330>
LayerCount: 2
Fore
SplineSet
435 -20 m 1,0,-1
 435 1330 l 1,1,-1
 10 1330 l 1,2,-1
 10 1340 l 1,3,-1
 90 1510 l 1,4,-1
 1060 1510 l 1,5,-1
 1060 1500 l 1,6,-1
 980 1330 l 1,7,-1
 635 1330 l 1,8,-1
 635 70 l 1,9,-1
 445 -20 l 1,10,-1
 435 -20 l 1,0,-1
529 1875 m 128,-1,12
 579 1875 579 1875 614 1839 c 128,-1,13
 649 1803 649 1803 649 1752.5 c 128,-1,14
 649 1702 649 1702 614 1666 c 128,-1,15
 579 1630 579 1630 529 1630 c 128,-1,16
 479 1630 479 1630 444 1666 c 128,-1,17
 409 1702 409 1702 409 1752.5 c 128,-1,18
 409 1803 409 1803 444 1839 c 128,-1,11
 479 1875 479 1875 529 1875 c 128,-1,12
EndSplineSet
Validated: 1
EndChar

StartChar: uni1E6B
Encoding: 7787 7787 183
Width: 780
Flags: W
HStem: -20 21G<300 351.975> 940 160<81 300 480 699> 1510 20G<428.025 480> 1630 245<306.097 473.903>
VStem: 270 240<1667.13 1837.87> 300 180<61 940 1100 1449>
LayerCount: 2
Fore
SplineSet
300 -20 m 1,0,-1
 300 940 l 1,1,-1
 10 940 l 1,2,-1
 10 950 l 1,3,-1
 81 1100 l 1,4,-1
 300 1100 l 1,5,-1
 300 1449 l 1,6,-1
 470 1530 l 1,7,-1
 480 1530 l 1,8,-1
 480 1100 l 1,9,-1
 770 1100 l 1,10,-1
 770 1090 l 1,11,-1
 699 940 l 1,12,-1
 480 940 l 1,13,-1
 480 61 l 1,14,-1
 310 -20 l 1,15,-1
 300 -20 l 1,0,-1
390 1875 m 128,-1,17
 440 1875 440 1875 475 1839 c 128,-1,18
 510 1803 510 1803 510 1752.5 c 128,-1,19
 510 1702 510 1702 475 1666 c 128,-1,20
 440 1630 440 1630 390 1630 c 128,-1,21
 340 1630 340 1630 305 1666 c 128,-1,22
 270 1702 270 1702 270 1752.5 c 128,-1,23
 270 1803 270 1803 305 1839 c 128,-1,16
 340 1875 340 1875 390 1875 c 128,-1,17
EndSplineSet
Validated: 1
EndChar

StartChar: uni1E60
Encoding: 7776 7776 184
Width: 1130
Flags: W
HStem: -20 180<356.986 752.312> 751 200<408.223 758.048> 1350 180<407.674 727.127> 1630 245<483.097 650.903>
VStem: 148 200<1007.75 1291.77> 447 240<1667.13 1837.87> 850 200<246.606 668.172>
LayerCount: 2
Fore
SplineSet
554.5 -20 m 128,-1,1
 354 -20 354 -20 207 76 c 0,2,3
 70 166 70 166 60 357 c 1,4,-1
 250 448 l 1,5,-1
 260 448 l 9,6,-1
 260 384 l 2,7,8
 260 257 260 257 349 208.5 c 128,-1,9
 438 160 438 160 554.5 160 c 128,-1,10
 671 160 671 160 760.5 208.5 c 128,-1,11
 850 257 850 257 850 384 c 2,12,-1
 850 527 l 2,13,14
 850 654 850 654 766 702.5 c 128,-1,15
 682 751 682 751 563 751 c 8,16,17
 391 751 391 751 269.5 833 c 128,-1,18
 148 915 148 915 148 1089 c 2,19,-1
 148 1192 l 2,20,21
 148 1366 148 1366 269.5 1448 c 128,-1,22
 391 1530 391 1530 563 1530 c 24,23,24
 734 1530 734 1530 856 1448 c 0,25,26
 964 1375 964 1375 977 1230 c 1,27,-1
 798 1145 l 1,28,-1
 788 1145 l 1,29,-1
 788 1168 l 2,30,31
 788 1267 788 1267 724 1308.5 c 128,-1,32
 660 1350 660 1350 567 1350 c 152,-1,33
 474 1350 474 1350 411 1308.5 c 128,-1,34
 348 1267 348 1267 348 1168 c 2,35,-1
 348 1133 l 2,36,37
 348 1034 348 1034 411 992.5 c 128,-1,38
 474 951 474 951 562 951 c 16,39,40
 763 951 763 951 906.5 855 c 128,-1,41
 1050 759 1050 759 1050 547 c 2,42,-1
 1050 384 l 2,43,44
 1050 172 1050 172 902.5 76 c 128,-1,0
 755 -20 755 -20 554.5 -20 c 128,-1,1
567 1875 m 128,-1,46
 617 1875 617 1875 652 1839 c 128,-1,47
 687 1803 687 1803 687 1752.5 c 128,-1,48
 687 1702 687 1702 652 1666 c 128,-1,49
 617 1630 617 1630 567 1630 c 128,-1,50
 517 1630 517 1630 482 1666 c 128,-1,51
 447 1702 447 1702 447 1752.5 c 128,-1,52
 447 1803 447 1803 482 1839 c 128,-1,45
 517 1875 517 1875 567 1875 c 128,-1,46
EndSplineSet
Validated: 1
EndChar

StartChar: uni1E61
Encoding: 7777 7777 185
Width: 930
Flags: W
HStem: -20 160<299.061 614.312> 514 161<345.748 614.304> 961 159<346.362 584.45> 1220 245<369.097 536.903>
VStem: 131 174<711.615 928.301> 333 240<1257.13 1427.87> 670 180<196.101 461.203>
LayerCount: 2
Fore
SplineSet
454 -20 m 0,0,1
 291 -20 291 -20 181 62 c 0,2,3
 70 145 70 145 60 285 c 1,4,-1
 229 366 l 1,5,-1
 239 366 l 1,6,-1
 239 322 l 2,7,8
 239 223 239 223 302 181.5 c 128,-1,9
 365 140 365 140 459 140 c 128,-1,10
 553 140 553 140 611.5 181.5 c 128,-1,11
 670 223 670 223 670 322 c 2,12,-1
 670 350 l 2,13,14
 670 431 670 431 616 472.5 c 128,-1,15
 562 514 562 514 473 514 c 0,16,17
 320 514 320 514 225.5 584 c 128,-1,18
 131 654 131 654 131 802 c 2,19,-1
 131 832 l 2,20,21
 131 980 131 980 227.5 1050 c 128,-1,22
 324 1120 324 1120 466 1120 c 0,23,24
 606 1120 606 1120 699 1050 c 128,-1,25
 792 980 792 980 801 869 c 1,26,-1
 638 792 l 1,27,-1
 628 792 l 1,28,-1
 628 839 l 2,29,30
 628 898 628 898 576 932 c 0,31,32
 533 961 533 961 464 961 c 0,33,34
 399 961 399 961 356 933 c 0,35,36
 305 901 305 901 305 839 c 2,37,-1
 305 805 l 2,38,39
 305 746 305 746 344.5 710.5 c 128,-1,40
 384 675 384 675 479 675 c 0,41,42
 642 675 642 675 746 593 c 128,-1,43
 850 511 850 511 850 354 c 2,44,-1
 850 318 l 2,45,46
 850 144 850 144 736.5 62 c 128,-1,47
 623 -20 623 -20 454 -20 c 0,0,1
453 1465 m 128,-1,49
 503 1465 503 1465 538 1429 c 128,-1,50
 573 1393 573 1393 573 1342.5 c 128,-1,51
 573 1292 573 1292 538 1256 c 128,-1,52
 503 1220 503 1220 453 1220 c 128,-1,53
 403 1220 403 1220 368 1256 c 128,-1,54
 333 1292 333 1292 333 1342.5 c 128,-1,55
 333 1393 333 1393 368 1429 c 128,-1,48
 403 1465 403 1465 453 1465 c 128,-1,49
EndSplineSet
Validated: 1
EndChar

StartChar: Wgrave
Encoding: 7808 7808 186
Width: 2180
Flags: W
HStem: -20 180<478.041 890.828 1288.1 1701.2> 1510 20G<327.778 380 1137.78 1190 1947.78 2000>
VStem: 180 200<246.606 1440> 990 200<244.215 1440> 1800 200<246.606 1440>
DStem2: 1030 1937 900 1880 0.427336 -0.904093<0 339.921>
CounterMasks: 1 38
LayerCount: 2
Fore
SplineSet
684 -20 m 128,-1,1
 474 -20 474 -20 327 76 c 128,-1,2
 180 172 180 172 180 384 c 2,3,-1
 180 1440 l 1,4,-1
 370 1530 l 1,5,-1
 380 1530 l 1,6,-1
 380 384 l 2,7,8
 380 257 380 257 469 208.5 c 128,-1,9
 558 160 558 160 684.5 160 c 128,-1,10
 811 160 811 160 900.5 208.5 c 128,-1,11
 990 257 990 257 990 384 c 2,12,-1
 990 1440 l 1,13,-1
 1180 1530 l 1,14,-1
 1190 1530 l 1,15,-1
 1190 384 l 2,16,17
 1190 257 1190 257 1279 208.5 c 128,-1,18
 1368 160 1368 160 1494.5 160 c 128,-1,19
 1621 160 1621 160 1710.5 208.5 c 128,-1,20
 1800 257 1800 257 1800 384 c 2,21,-1
 1800 1440 l 1,22,-1
 1990 1530 l 1,23,-1
 2000 1530 l 1,24,-1
 2000 384 l 2,25,26
 2000 172 2000 172 1852.5 76 c 128,-1,27
 1705 -20 1705 -20 1494.5 -20 c 128,-1,28
 1284 -20 1284 -20 1137 76 c 0,29,30
 1111 93 1111 93 1090 113 c 1,31,32
 1068 93 1068 93 1042 76 c 0,33,0
 894 -20 894 -20 684 -20 c 128,-1,1
1020 1937 m 1,34,-1
 1030 1937 l 1,35,-1
 1177 1626 l 1,36,-1
 1059 1570 l 1,37,-1
 1049 1570 l 1,38,-1
 900 1880 l 1,39,-1
 1020 1937 l 1,34,-1
EndSplineSet
Validated: 1
EndChar

StartChar: wgrave
Encoding: 7809 7809 187
Width: 1840
Flags: W
HStem: -20 160<425.339 764.231 1075.71 1414.61> 1100 20G<308.025 360 958.025 1010 1608.02 1660>
VStem: 180 180<200.732 1039> 830 180<200.732 1039> 1480 180<200.732 1039>
DStem2: 862 1527 732 1470 0.427336 -0.904093<0 339.921>
CounterMasks: 1 38
LayerCount: 2
Fore
SplineSet
594.5 -20 m 128,-1,1
 423 -20 423 -20 301.5 62 c 128,-1,2
 180 144 180 144 180 318 c 2,3,-1
 180 1039 l 1,4,-1
 350 1120 l 1,5,-1
 360 1120 l 1,6,-1
 360 322 l 2,7,8
 360 223 360 223 428.5 181.5 c 128,-1,9
 497 140 497 140 595 140 c 128,-1,10
 693 140 693 140 761.5 181.5 c 128,-1,11
 830 223 830 223 830 322 c 2,12,-1
 830 1039 l 1,13,-1
 1000 1120 l 1,14,-1
 1010 1120 l 1,15,-1
 1010 322 l 2,16,17
 1010 223 1010 223 1078.5 181.5 c 128,-1,18
 1147 140 1147 140 1245 140 c 128,-1,19
 1343 140 1343 140 1411.5 181.5 c 128,-1,20
 1480 223 1480 223 1480 322 c 2,21,-1
 1480 1039 l 1,22,-1
 1650 1120 l 1,23,-1
 1660 1120 l 1,24,-1
 1660 318 l 2,25,26
 1660 144 1660 144 1538.5 62 c 128,-1,27
 1417 -20 1417 -20 1245 -20 c 0,28,29
 1074 -20 1074 -20 952 62 c 0,30,31
 935 73 935 73 920 87 c 1,32,33
 904 74 904 74 888 62 c 0,34,0
 766 -20 766 -20 594.5 -20 c 128,-1,1
852 1527 m 1,35,-1
 862 1527 l 1,36,-1
 1009 1216 l 1,37,-1
 891 1160 l 1,38,-1
 881 1160 l 1,39,-1
 732 1470 l 1,40,-1
 852 1527 l 1,35,-1
EndSplineSet
Validated: 1
EndChar

StartChar: Wacute
Encoding: 7810 7810 188
Width: 2180
Flags: W
HStem: -20 180<478.041 890.828 1288.1 1701.2> 1510 20G<327.778 380 1137.78 1190 1947.78 2000>
VStem: 180 200<246.606 1440> 990 200<244.215 1440> 1800 200<246.606 1440>
DStem2: 980 1626 1108 1570 0.427336 0.904093<4.06987 343.991>
CounterMasks: 1 38
LayerCount: 2
Fore
SplineSet
684 -20 m 128,-1,1
 474 -20 474 -20 327 76 c 128,-1,2
 180 172 180 172 180 384 c 2,3,-1
 180 1440 l 1,4,-1
 370 1530 l 1,5,-1
 380 1530 l 1,6,-1
 380 384 l 2,7,8
 380 257 380 257 469 208.5 c 128,-1,9
 558 160 558 160 684.5 160 c 128,-1,10
 811 160 811 160 900.5 208.5 c 128,-1,11
 990 257 990 257 990 384 c 2,12,-1
 990 1440 l 1,13,-1
 1180 1530 l 1,14,-1
 1190 1530 l 1,15,-1
 1190 384 l 2,16,17
 1190 257 1190 257 1279 208.5 c 128,-1,18
 1368 160 1368 160 1494.5 160 c 128,-1,19
 1621 160 1621 160 1710.5 208.5 c 128,-1,20
 1800 257 1800 257 1800 384 c 2,21,-1
 1800 1440 l 1,22,-1
 1990 1530 l 1,23,-1
 2000 1530 l 1,24,-1
 2000 384 l 2,25,26
 2000 172 2000 172 1852.5 76 c 128,-1,27
 1705 -20 1705 -20 1494.5 -20 c 128,-1,28
 1284 -20 1284 -20 1137 76 c 0,29,30
 1111 93 1111 93 1090 113 c 1,31,32
 1068 93 1068 93 1042 76 c 0,33,0
 894 -20 894 -20 684 -20 c 128,-1,1
1137 1937 m 1,34,-1
 1257 1880 l 1,35,-1
 1108 1570 l 1,36,-1
 1098 1570 l 1,37,-1
 980 1626 l 1,38,-1
 1127 1937 l 1,39,-1
 1137 1937 l 1,34,-1
EndSplineSet
Validated: 1
EndChar

StartChar: wacute
Encoding: 7811 7811 189
Width: 1840
Flags: W
HStem: -20 160<425.339 764.231 1075.71 1414.61> 1100 20G<308.025 360 958.025 1010 1608.02 1660>
VStem: 180 180<200.732 1039> 830 180<200.732 1039> 1480 180<200.732 1039>
DStem2: 802 1216 930 1160 0.427336 0.904093<4.06987 343.991>
CounterMasks: 1 38
LayerCount: 2
Fore
SplineSet
594.5 -20 m 128,-1,1
 423 -20 423 -20 301.5 62 c 128,-1,2
 180 144 180 144 180 318 c 2,3,-1
 180 1039 l 1,4,-1
 350 1120 l 1,5,-1
 360 1120 l 1,6,-1
 360 322 l 2,7,8
 360 223 360 223 428.5 181.5 c 128,-1,9
 497 140 497 140 595 140 c 128,-1,10
 693 140 693 140 761.5 181.5 c 128,-1,11
 830 223 830 223 830 322 c 2,12,-1
 830 1039 l 1,13,-1
 1000 1120 l 1,14,-1
 1010 1120 l 1,15,-1
 1010 322 l 2,16,17
 1010 223 1010 223 1078.5 181.5 c 128,-1,18
 1147 140 1147 140 1245 140 c 128,-1,19
 1343 140 1343 140 1411.5 181.5 c 128,-1,20
 1480 223 1480 223 1480 322 c 2,21,-1
 1480 1039 l 1,22,-1
 1650 1120 l 1,23,-1
 1660 1120 l 1,24,-1
 1660 318 l 2,25,26
 1660 144 1660 144 1538.5 62 c 128,-1,27
 1417 -20 1417 -20 1245 -20 c 0,28,29
 1074 -20 1074 -20 952 62 c 0,30,31
 935 73 935 73 920 87 c 1,32,33
 904 74 904 74 888 62 c 0,34,0
 766 -20 766 -20 594.5 -20 c 128,-1,1
959 1527 m 1,35,-1
 1079 1470 l 1,36,-1
 930 1160 l 1,37,-1
 920 1160 l 1,38,-1
 802 1216 l 1,39,-1
 949 1527 l 1,40,-1
 959 1527 l 1,35,-1
EndSplineSet
Validated: 1
EndChar

StartChar: Wdieresis
Encoding: 7812 7812 190
Width: 2180
Flags: W
HStem: -20 180<478.041 890.828 1288.1 1701.2> 1510 20G<327.778 380 1137.78 1190 1947.78 2000> 1640 227<866.034 1021.97 1143 1299>
VStem: 180 200<246.606 1440> 832 224<1674.55 1832.45> 990 200<244.215 1440> 1110 222<1675.07 1832.93> 1800 200<246.606 1440>
LayerCount: 2
Fore
SplineSet
684 -20 m 128,-1,1
 474 -20 474 -20 327 76 c 128,-1,2
 180 172 180 172 180 384 c 2,3,-1
 180 1440 l 1,4,-1
 370 1530 l 1,5,-1
 380 1530 l 1,6,-1
 380 384 l 2,7,8
 380 257 380 257 469 208.5 c 128,-1,9
 558 160 558 160 684.5 160 c 128,-1,10
 811 160 811 160 900.5 208.5 c 128,-1,11
 990 257 990 257 990 384 c 2,12,-1
 990 1440 l 1,13,-1
 1180 1530 l 1,14,-1
 1190 1530 l 1,15,-1
 1190 384 l 2,16,17
 1190 257 1190 257 1279 208.5 c 128,-1,18
 1368 160 1368 160 1494.5 160 c 128,-1,19
 1621 160 1621 160 1710.5 208.5 c 128,-1,20
 1800 257 1800 257 1800 384 c 2,21,-1
 1800 1440 l 1,22,-1
 1990 1530 l 1,23,-1
 2000 1530 l 1,24,-1
 2000 384 l 2,25,26
 2000 172 2000 172 1852.5 76 c 128,-1,27
 1705 -20 1705 -20 1494.5 -20 c 128,-1,28
 1284 -20 1284 -20 1137 76 c 0,29,30
 1111 93 1111 93 1090 113 c 1,31,32
 1068 93 1068 93 1042 76 c 0,33,0
 894 -20 894 -20 684 -20 c 128,-1,1
1221 1868 m 128,-1,35
 1268 1868 1268 1868 1300 1834 c 128,-1,36
 1332 1800 1332 1800 1332 1754 c 128,-1,37
 1332 1708 1332 1708 1300 1674 c 128,-1,38
 1268 1640 1268 1640 1221 1640 c 128,-1,39
 1174 1640 1174 1640 1142 1674 c 128,-1,40
 1110 1708 1110 1708 1110 1754 c 128,-1,41
 1110 1800 1110 1800 1142 1834 c 128,-1,34
 1174 1868 1174 1868 1221 1868 c 128,-1,35
944 1867 m 128,-1,43
 990 1867 990 1867 1023 1833.5 c 128,-1,44
 1056 1800 1056 1800 1056 1753.5 c 128,-1,45
 1056 1707 1056 1707 1023 1673.5 c 128,-1,46
 990 1640 990 1640 944 1640 c 128,-1,47
 898 1640 898 1640 865 1673.5 c 128,-1,48
 832 1707 832 1707 832 1753.5 c 128,-1,49
 832 1800 832 1800 865 1833.5 c 128,-1,42
 898 1867 898 1867 944 1867 c 128,-1,43
EndSplineSet
Validated: 1
EndChar

StartChar: wdieresis
Encoding: 7813 7813 191
Width: 1840
Flags: W
HStem: -20 160<425.339 764.231 1075.71 1414.61> 1100 20G<308.025 360 958.025 1010 1608.02 1660> 1230 227<703.034 858.966 980.004 1136>
VStem: 180 180<200.732 1039> 669 224<1264.55 1422.45> 830 180<200.732 1039> 947 222<1265.07 1422.93> 1480 180<200.732 1039>
LayerCount: 2
Fore
SplineSet
594.5 -20 m 128,-1,1
 423 -20 423 -20 301.5 62 c 128,-1,2
 180 144 180 144 180 318 c 2,3,-1
 180 1039 l 1,4,-1
 350 1120 l 1,5,-1
 360 1120 l 1,6,-1
 360 322 l 2,7,8
 360 223 360 223 428.5 181.5 c 128,-1,9
 497 140 497 140 595 140 c 128,-1,10
 693 140 693 140 761.5 181.5 c 128,-1,11
 830 223 830 223 830 322 c 2,12,-1
 830 1039 l 1,13,-1
 1000 1120 l 1,14,-1
 1010 1120 l 1,15,-1
 1010 322 l 2,16,17
 1010 223 1010 223 1078.5 181.5 c 128,-1,18
 1147 140 1147 140 1245 140 c 128,-1,19
 1343 140 1343 140 1411.5 181.5 c 128,-1,20
 1480 223 1480 223 1480 322 c 2,21,-1
 1480 1039 l 1,22,-1
 1650 1120 l 1,23,-1
 1660 1120 l 1,24,-1
 1660 318 l 2,25,26
 1660 144 1660 144 1538.5 62 c 128,-1,27
 1417 -20 1417 -20 1245 -20 c 0,28,29
 1074 -20 1074 -20 952 62 c 0,30,31
 935 73 935 73 920 87 c 1,32,33
 904 74 904 74 888 62 c 0,34,0
 766 -20 766 -20 594.5 -20 c 128,-1,1
1058 1458 m 128,-1,36
 1105 1458 1105 1458 1137 1424 c 128,-1,37
 1169 1390 1169 1390 1169 1344 c 128,-1,38
 1169 1298 1169 1298 1137 1264 c 128,-1,39
 1105 1230 1105 1230 1058 1230 c 128,-1,40
 1011 1230 1011 1230 979 1264 c 128,-1,41
 947 1298 947 1298 947 1344 c 128,-1,42
 947 1390 947 1390 979 1424 c 128,-1,35
 1011 1458 1011 1458 1058 1458 c 128,-1,36
781 1457 m 128,-1,44
 827 1457 827 1457 860 1423.5 c 128,-1,45
 893 1390 893 1390 893 1343.5 c 128,-1,46
 893 1297 893 1297 860 1263.5 c 128,-1,47
 827 1230 827 1230 781 1230 c 128,-1,48
 735 1230 735 1230 702 1263.5 c 128,-1,49
 669 1297 669 1297 669 1343.5 c 128,-1,50
 669 1390 669 1390 702 1423.5 c 128,-1,43
 735 1457 735 1457 781 1457 c 128,-1,44
EndSplineSet
Validated: 1
EndChar

StartChar: Ygrave
Encoding: 7922 7922 192
Width: 1230
Flags: W
HStem: -20 21G<515 567.222> 1510 20G<267.778 320 1057.78 1110>
VStem: 120 200<698.606 1440> 515 200<70 444.943> 910 200<698.606 1440>
DStem2: 602 1937 472 1880 0.427336 -0.904093<0 339.921>
CounterMasks: 1 38
LayerCount: 2
Fore
SplineSet
525 -20 m 1,0,-1
 515 -20 l 1,1,-1
 515 438 l 1,2,3
 376 456 376 456 267 528 c 0,4,5
 120 624 120 624 120 836 c 2,6,-1
 120 1440 l 1,7,-1
 310 1530 l 1,8,-1
 320 1530 l 1,9,-1
 320 836 l 2,10,11
 320 709 320 709 409 660.5 c 128,-1,12
 498 612 498 612 614.5 612 c 128,-1,13
 731 612 731 612 820.5 660.5 c 128,-1,14
 910 709 910 709 910 836 c 2,15,-1
 910 1440 l 1,16,-1
 1100 1530 l 1,17,-1
 1110 1530 l 1,18,-1
 1110 836 l 2,19,20
 1110 624 1110 624 962 528 c 0,21,22
 853 457 853 457 715 438 c 1,23,-1
 715 70 l 1,24,-1
 525 -20 l 1,0,-1
592 1937 m 1,25,-1
 602 1937 l 1,26,-1
 749 1626 l 1,27,-1
 631 1570 l 1,28,-1
 621 1570 l 1,29,-1
 472 1880 l 1,30,-1
 592 1937 l 1,25,-1
EndSplineSet
Validated: 1
EndChar

StartChar: ygrave
Encoding: 7923 7923 193
Width: 1210
Flags: W
HStem: -410 160<391 765.714> -20 160<425.394 765.024> 1100 20G<308.025 360 958.025 1010>
VStem: 180 180<200.732 1039> 830 180<-187.688 49 200.732 1039>
DStem2: 545 1527 415 1470 0.427336 -0.904093<0 339.921>
LayerCount: 2
Fore
SplineSet
320 -410 m 1,0,-1
 320 -400 l 1,1,-1
 391 -250 l 1,2,-1
 595 -250 l 2,3,4
 693 -250 693 -250 761.5 -208.5 c 128,-1,5
 830 -167 830 -167 830 -68 c 2,6,-1
 830 49 l 1,7,8
 746 -20 746 -20 595 -20 c 0,9,10
 423 -20 423 -20 301.5 62 c 128,-1,11
 180 144 180 144 180 318 c 2,12,-1
 180 1039 l 1,13,-1
 350 1120 l 1,14,-1
 360 1120 l 1,15,-1
 360 322 l 2,16,17
 360 223 360 223 428.5 181.5 c 128,-1,18
 497 140 497 140 595 140 c 128,-1,19
 693 140 693 140 761.5 181.5 c 128,-1,20
 830 223 830 223 830 322 c 2,21,-1
 830 1039 l 1,22,-1
 1000 1120 l 1,23,-1
 1010 1120 l 1,24,-1
 1010 -72 l 2,25,26
 1010 -242 1010 -242 888 -328 c 0,27,28
 772 -410 772 -410 595 -410 c 2,29,-1
 320 -410 l 1,0,-1
535 1527 m 1,30,-1
 545 1527 l 1,31,-1
 692 1216 l 1,32,-1
 574 1160 l 1,33,-1
 564 1160 l 1,34,-1
 415 1470 l 1,35,-1
 535 1527 l 1,30,-1
EndSplineSet
Validated: 1
EndChar

StartChar: AE
Encoding: 198 198 194
Width: 1688
Flags: W
HStem: -20 21G<180 232.222> 0 180<1028 1558> 665 180<380 828 1028 1508> 1330 180<1028 1508> 1350 180<478.853 826.594>
VStem: 180 200<70 665 845 1263.39> 828 200<180 665 845 1330>
LayerCount: 2
Fore
SplineSet
828 1331 m 1,0,1
 763 1350 763 1350 686 1350 c 0,2,3
 559 1350 559 1350 469.5 1301.5 c 128,-1,4
 380 1253 380 1253 380 1126 c 2,5,-1
 380 845 l 1,6,-1
 828 845 l 1,7,-1
 828 1331 l 1,0,1
1558 0 m 1,8,-1
 828 0 l 1,9,-1
 828 665 l 1,10,-1
 380 665 l 1,11,-1
 380 70 l 1,12,-1
 190 -20 l 1,13,-1
 180 -20 l 1,14,-1
 180 1126 l 2,15,16
 180 1338 180 1338 327.5 1434 c 128,-1,17
 475 1530 475 1530 686 1530 c 0,18,19
 777 1530 777 1530 862 1510 c 1,20,-1
 1588 1510 l 1,21,-1
 1588 1500 l 1,22,-1
 1508 1330 l 1,23,-1
 1028 1330 l 1,24,-1
 1028 845 l 1,25,-1
 1588 845 l 1,26,-1
 1588 835 l 1,27,-1
 1508 665 l 1,28,-1
 1028 665 l 1,29,-1
 1028 180 l 1,30,-1
 1638 180 l 1,31,-1
 1638 170 l 1,32,-1
 1558 0 l 1,8,-1
EndSplineSet
Validated: 1
EndChar

StartChar: Eth
Encoding: 208 208 195
Width: 1350
Flags: W
HStem: 0 180<400 890.345> 695 120<92 200 400 678> 1330 180<400 889.847>
VStem: 200 200<180 695 815 1330> 990 200<266.146 1243.39>
CounterMasks: 1 e0
LayerCount: 2
Fore
SplineSet
200 0 m 1,0,-1
 200 695 l 1,1,-1
 40 695 l 1,2,-1
 40 705 l 1,3,-1
 92 815 l 1,4,-1
 200 815 l 1,5,-1
 200 1440 l 1,6,-1
 348 1510 l 1,7,-1
 685 1510 l 2,8,9
 894 1510 894 1510 1042 1414 c 128,-1,10
 1190 1318 1190 1318 1190 1106 c 2,11,-1
 1190 404 l 2,12,13
 1190 191 1190 191 1042 96 c 0,14,15
 895 0 895 0 685 0 c 2,16,-1
 200 0 l 1,0,-1
400 180 m 1,17,-1
 685 180 l 2,18,19
 812 180 812 180 900 228 c 0,20,21
 990 276 990 276 990 404 c 2,22,-1
 990 1106 l 2,23,24
 990 1234 990 1234 900 1282 c 0,25,26
 812 1330 812 1330 685 1330 c 2,27,-1
 400 1330 l 1,28,-1
 400 815 l 1,29,-1
 730 815 l 1,30,-1
 730 805 l 1,31,-1
 678 695 l 1,32,-1
 400 695 l 1,33,-1
 400 180 l 1,17,-1
EndSplineSet
Validated: 1
EndChar

StartChar: Dcroat
Encoding: 272 272 196
Width: 1350
Flags: W
HStem: 0 180<400 890.345> 695 120<92 200 400 678> 1330 180<400 889.847>
VStem: 200 200<180 695 815 1330> 990 200<266.146 1243.39>
CounterMasks: 1 e0
LayerCount: 2
Fore
SplineSet
200 0 m 1,0,-1
 200 695 l 1,1,-1
 40 695 l 1,2,-1
 40 705 l 1,3,-1
 92 815 l 1,4,-1
 200 815 l 1,5,-1
 200 1440 l 1,6,-1
 348 1510 l 1,7,-1
 685 1510 l 2,8,9
 894 1510 894 1510 1042 1414 c 128,-1,10
 1190 1318 1190 1318 1190 1106 c 2,11,-1
 1190 404 l 2,12,13
 1190 191 1190 191 1042 96 c 0,14,15
 895 0 895 0 685 0 c 2,16,-1
 200 0 l 1,0,-1
400 180 m 1,17,-1
 685 180 l 2,18,19
 812 180 812 180 900 228 c 0,20,21
 990 276 990 276 990 404 c 2,22,-1
 990 1106 l 2,23,24
 990 1234 990 1234 900 1282 c 0,25,26
 812 1330 812 1330 685 1330 c 2,27,-1
 400 1330 l 1,28,-1
 400 815 l 1,29,-1
 730 815 l 1,30,-1
 730 805 l 1,31,-1
 678 695 l 1,32,-1
 400 695 l 1,33,-1
 400 180 l 1,17,-1
EndSplineSet
Validated: 1
EndChar

StartChar: Hbar
Encoding: 294 294 197
Width: 1400
Flags: W
HStem: -20 21G<200 252.222 1000 1052.22> 665 180<400 1000> 1250 120<92 200 400 1000 1200 1308> 1510 20G<347.778 400 1147.78 1200>
VStem: 200 200<70 665 845 1250 1370 1440> 1000 200<70 665 845 1250 1370 1440>
LayerCount: 2
Fore
SplineSet
210 -20 m 1,0,-1
 200 -20 l 1,1,-1
 200 1250 l 1,2,-1
 40 1250 l 1,3,-1
 40 1260 l 1,4,-1
 92 1370 l 1,5,-1
 200 1370 l 1,6,-1
 200 1440 l 1,7,-1
 390 1530 l 1,8,-1
 400 1530 l 1,9,-1
 400 1370 l 1,10,-1
 1000 1370 l 1,11,-1
 1000 1440 l 1,12,-1
 1190 1530 l 1,13,-1
 1200 1530 l 1,14,-1
 1200 1370 l 1,15,-1
 1360 1370 l 1,16,-1
 1360 1360 l 1,17,-1
 1308 1250 l 1,18,-1
 1200 1250 l 1,19,-1
 1200 70 l 1,20,-1
 1010 -20 l 1,21,-1
 1000 -20 l 1,22,-1
 1000 665 l 1,23,-1
 400 665 l 1,24,-1
 400 70 l 1,25,-1
 210 -20 l 1,0,-1
400 1250 m 1,26,-1
 400 845 l 1,27,-1
 1000 845 l 1,28,-1
 1000 1250 l 1,29,-1
 400 1250 l 1,26,-1
EndSplineSet
Validated: 1
EndChar

StartChar: IJ
Encoding: 306 306 198
Width: 1660
Flags: W
HStem: -20 180<815.709 1200.54> 1330 180<715 1300> 1510 20G<347.778 400>
VStem: 200 200<70 1440> 1300 200<246.606 1330>
LayerCount: 2
Fore
SplineSet
1011 -20 m 0,0,1
 813 -20 813 -20 666 76 c 0,2,3
 530 165 530 165 520 359 c 1,4,-1
 709 448 l 1,5,-1
 719 448 l 9,6,-1
 719 384 l 2,7,8
 719 257 719 257 808 208.5 c 128,-1,9
 897 160 897 160 1011 160 c 0,10,11
 1121 160 1121 160 1211 209 c 0,12,13
 1300 257 1300 257 1300 384 c 2,14,-1
 1300 1330 l 17,15,-1
 635 1330 l 1,16,-1
 635 1340 l 1,17,-1
 715 1510 l 1,18,-1
 1500 1510 l 9,19,-1
 1500 384 l 2,20,21
 1500 172 1500 172 1352 76 c 0,22,23
 1205 -20 1205 -20 1011 -20 c 0,0,1
200 -20 m 1,24,-1
 200 1440 l 1,25,-1
 390 1530 l 1,26,-1
 400 1530 l 1,27,-1
 400 70 l 1,28,-1
 210 -20 l 1,29,-1
 200 -20 l 1,24,-1
EndSplineSet
Validated: 1
EndChar

StartChar: lslash
Encoding: 322 322 199
Width: 684
Flags: W
HStem: -20 21G<252 303.975> 1510 20G<380.025 432>
VStem: 252 180<61 647 863 1449>
DStem2: 50 685 55 555 0.906303 0.422628<0 167.013 421.436 588.026>
LayerCount: 2
Fore
SplineSet
262 -20 m 1,0,-1
 252 -20 l 1,1,-1
 252 647 l 1,2,-1
 55 555 l 1,3,-1
 50 564 l 1,4,-1
 50 685 l 1,5,-1
 252 779 l 1,6,-1
 252 1449 l 1,7,-1
 422 1530 l 1,8,-1
 432 1530 l 1,9,-1
 432 863 l 1,10,-1
 629 955 l 1,11,-1
 634 946 l 1,12,-1
 634 824 l 1,13,-1
 432 730 l 1,14,-1
 432 61 l 1,15,-1
 262 -20 l 1,0,-1
EndSplineSet
Validated: 1
EndChar

StartChar: Lslash
Encoding: 321 321 200
Width: 1020
Flags: W
HStem: 0 180<400 930> 1510 20G<347.778 400>
VStem: 200 200<180 590 816 1440>
DStem2: 120 686 200 590 0.906902 0.421341<0 32.1034 308.707 587.776>
LayerCount: 2
Fore
SplineSet
200 0 m 1,0,-1
 200 590 l 1,1,-1
 125 555 l 1,2,-1
 120 564 l 1,3,-1
 120 686 l 1,4,-1
 200 723 l 1,5,-1
 200 1440 l 1,6,-1
 390 1530 l 1,7,-1
 400 1530 l 1,8,-1
 400 816 l 1,9,-1
 699 955 l 1,10,-1
 704 946 l 1,11,-1
 704 824 l 1,12,-1
 400 683 l 1,13,-1
 400 180 l 1,14,-1
 1010 180 l 1,15,-1
 1010 170 l 1,16,-1
 930 0 l 1,17,-1
 200 0 l 1,0,-1
EndSplineSet
Validated: 1
EndChar

StartChar: Eng
Encoding: 330 330 201
Width: 1370
Flags: W
HStem: -410 21G<686 791> -20 21G<180 232.222> 1350 180<478.798 891.904>
VStem: 180 200<70 1263.39> 990 200<-143.394 1263.39>
LayerCount: 2
Fore
SplineSet
190 -20 m 1,0,-1
 180 -20 l 9,1,-1
 180 1126 l 2,2,3
 180 1338 180 1338 327.5 1434 c 128,-1,4
 475 1530 475 1530 685.5 1530 c 128,-1,5
 896 1530 896 1530 1043 1434 c 128,-1,6
 1190 1338 1190 1338 1190 1126 c 2,7,-1
 1190 -6 l 2,8,9
 1190 -218 1190 -218 1043 -314 c 128,-1,10
 896 -410 896 -410 686 -410 c 9,11,-1
 686 -400 l 1,12,-1
 768 -224 l 1,13,14
 843 -213 843 -213 901 -182 c 0,15,16
 990 -133 990 -133 990 -6 c 10,17,-1
 990 1126 l 2,18,19
 990 1253 990 1253 901 1301.5 c 128,-1,20
 812 1350 812 1350 685.5 1350 c 128,-1,21
 559 1350 559 1350 469.5 1301.5 c 128,-1,22
 380 1253 380 1253 380 1126 c 2,23,-1
 380 70 l 17,24,-1
 190 -20 l 1,0,-1
EndSplineSet
Validated: 1
EndChar

StartChar: OE
Encoding: 338 338 202
Width: 1674
Flags: W
HStem: -20 180<458.853 812.896> 0 180<1014 1544> 665 180<1014 1494> 1330 180<1014 1494> 1350 180<458.853 812.193>
VStem: 160 200<246.606 1263.39> 814 200<180 665 845 1330>
LayerCount: 2
Fore
SplineSet
1544 0 m 1,0,-1
 843 0 l 1,1,2
 759 -20 759 -20 666 -20 c 0,3,4
 455 -20 455 -20 307.5 76 c 128,-1,5
 160 172 160 172 160 384 c 2,6,-1
 160 1126 l 2,7,8
 160 1338 160 1338 307.5 1434 c 128,-1,9
 455 1530 455 1530 666 1530 c 0,10,11
 761 1530 761 1530 844 1510 c 1,12,-1
 1574 1510 l 1,13,-1
 1574 1500 l 1,14,-1
 1494 1330 l 1,15,-1
 1014 1330 l 1,16,-1
 1014 845 l 1,17,-1
 1574 845 l 1,18,-1
 1574 835 l 1,19,-1
 1494 665 l 1,20,-1
 1014 665 l 1,21,-1
 1014 180 l 1,22,-1
 1624 180 l 1,23,-1
 1624 170 l 1,24,-1
 1544 0 l 1,0,-1
814 1330 m 1,25,26
 748 1350 748 1350 666 1350 c 0,27,28
 539 1350 539 1350 449.5 1301.5 c 128,-1,29
 360 1253 360 1253 360 1126 c 2,30,-1
 360 384 l 2,31,32
 360 257 360 257 449.5 208.5 c 128,-1,33
 539 160 539 160 666 160 c 0,34,35
 748 160 748 160 814 180 c 1,36,-1
 814 1330 l 1,25,26
EndSplineSet
Validated: 1
EndChar

StartChar: Thorn
Encoding: 222 222 203
Width: 1210
Flags: W
HStem: -20 21G<200 252.222> 250 180<400 860.345> 1080 180<400 859.847> 1510 20G<347.778 400>
VStem: 200 200<70 250 430 1080 1260 1440> 960 200<517.067 993.394>
LayerCount: 2
Fore
SplineSet
210 -20 m 1,0,-1
 200 -20 l 1,1,-1
 200 1440 l 1,2,-1
 390 1530 l 1,3,-1
 400 1530 l 1,4,-1
 400 1260 l 1,5,-1
 655 1260 l 2,6,7
 864 1260 864 1260 1012 1164 c 128,-1,8
 1160 1068 1160 1068 1160 856 c 2,9,-1
 1160 654 l 2,10,11
 1160 443 1160 443 1012 346 c 0,12,13
 865 250 865 250 655 250 c 2,14,-1
 400 250 l 1,15,-1
 400 70 l 1,16,-1
 210 -20 l 1,0,-1
400 1080 m 1,17,-1
 400 430 l 1,18,-1
 655 430 l 2,19,20
 782 430 782 430 870 478 c 0,21,22
 960 526 960 526 960 654 c 2,23,-1
 960 856 l 2,24,25
 960 984 960 984 870 1032 c 0,26,27
 782 1080 782 1080 655 1080 c 2,28,-1
 400 1080 l 1,17,-1
EndSplineSet
Validated: 1
EndChar

StartChar: Tbar
Encoding: 358 358 204
Width: 1070
Flags: W
HStem: -20 21G<435 487.222> 460 120<292 435 635 778> 1330 180<90 435 635 980>
VStem: 435 200<70 460 580 1330>
LayerCount: 2
Fore
SplineSet
445 -20 m 1,0,-1
 435 -20 l 1,1,-1
 435 460 l 1,2,-1
 240 460 l 1,3,-1
 240 470 l 1,4,-1
 292 580 l 1,5,-1
 435 580 l 1,6,-1
 435 1330 l 1,7,-1
 10 1330 l 1,8,-1
 10 1340 l 1,9,-1
 90 1510 l 1,10,-1
 1060 1510 l 1,11,-1
 1060 1500 l 1,12,-1
 980 1330 l 1,13,-1
 635 1330 l 1,14,-1
 635 580 l 1,15,-1
 830 580 l 1,16,-1
 830 570 l 1,17,-1
 778 460 l 1,18,-1
 635 460 l 1,19,-1
 635 70 l 1,20,-1
 445 -20 l 1,0,-1
EndSplineSet
Validated: 1
EndChar

StartChar: tbar
Encoding: 359 359 205
Width: 780
Flags: W
HStem: -20 21G<300 351.975> 460 120<152 300 480 628> 940 160<81 300 480 699> 1510 20G<428.025 480>
VStem: 300 180<61 460 580 940 1100 1449>
LayerCount: 2
Fore
SplineSet
310 -20 m 1,0,-1
 300 -20 l 1,1,-1
 300 460 l 1,2,-1
 100 460 l 1,3,-1
 100 470 l 1,4,-1
 152 580 l 1,5,-1
 300 580 l 1,6,-1
 300 940 l 1,7,-1
 10 940 l 1,8,-1
 10 950 l 1,9,-1
 81 1100 l 1,10,-1
 300 1100 l 1,11,-1
 300 1449 l 1,12,-1
 470 1530 l 1,13,-1
 480 1530 l 1,14,-1
 480 1100 l 1,15,-1
 770 1100 l 1,16,-1
 770 1090 l 1,17,-1
 699 940 l 1,18,-1
 480 940 l 1,19,-1
 480 580 l 1,20,-1
 680 580 l 1,21,-1
 680 570 l 1,22,-1
 628 460 l 1,23,-1
 480 460 l 1,24,-1
 480 61 l 1,25,-1
 310 -20 l 1,0,-1
EndSplineSet
Validated: 1
EndChar

StartChar: thorn
Encoding: 254 254 206
Width: 1190
Flags: W
HStem: -430 21G<200 251.975> -20 160<444.3 784.606> 960 160<444.751 784.606> 1510 20G<328.025 380>
VStem: 200 180<-349 49 200.732 899.268 1051 1449> 850 180<200.732 899.268>
LayerCount: 2
Fore
SplineSet
210 -430 m 1,0,-1
 200 -430 l 1,1,-1
 200 1449 l 1,2,-1
 370 1530 l 1,3,-1
 380 1530 l 1,4,-1
 380 1051 l 1,5,6
 463 1120 463 1120 615 1120 c 0,7,8
 787 1120 787 1120 908.5 1038 c 128,-1,9
 1030 956 1030 956 1030 782 c 2,10,-1
 1030 318 l 2,11,12
 1030 144 1030 144 908.5 62 c 128,-1,13
 787 -20 787 -20 615 -20 c 0,14,15
 461 -20 461 -20 380 49 c 1,16,-1
 380 -349 l 1,17,-1
 210 -430 l 1,0,-1
615 960 m 128,-1,19
 517 960 517 960 448.5 918.5 c 128,-1,20
 380 877 380 877 380 778 c 2,21,-1
 380 322 l 2,22,23
 380 223 380 223 448.5 181.5 c 128,-1,24
 517 140 517 140 615 140 c 128,-1,25
 713 140 713 140 781.5 181.5 c 128,-1,26
 850 223 850 223 850 322 c 2,27,-1
 850 778 l 2,28,29
 850 877 850 877 781.5 918.5 c 128,-1,18
 713 960 713 960 615 960 c 128,-1,19
EndSplineSet
Validated: 1
EndChar

StartChar: eth
Encoding: 240 240 207
Width: 1150
Flags: W
HStem: -20 160<405.394 744.606> 960 160<406.502 593.116> 1510 20G<414.278 481.426>
VStem: 160 180<200.732 899.268> 810 180<200.732 899.071>
DStem2: 295 1309 300 1180 0.905974 0.423333<0 112.729 309.614 438.473> 464 1530 311 1458 0.642015 -0.766692<0 89.6227 255.811 398.448>
LayerCount: 2
Fore
SplineSet
595 1120 m 1,0,-1
 477 1262 l 1,1,-1
 300 1180 l 1,2,-1
 295 1189 l 1,3,-1
 295 1309 l 1,4,-1
 397 1357 l 1,5,-1
 311 1458 l 1,6,-1
 454 1530 l 1,7,-1
 464 1530 l 1,8,-1
 552 1429 l 1,9,-1
 738 1516 l 1,10,-1
 743 1507 l 1,11,-1
 743 1386 l 1,12,-1
 626 1332 l 1,13,-1
 912 995 l 2,14,15
 990 903 990 903 990 782 c 2,16,-1
 990 318 l 2,17,18
 990 144 990 144 868.5 62 c 128,-1,19
 747 -20 747 -20 575 -20 c 128,-1,20
 403 -20 403 -20 281.5 62 c 128,-1,21
 160 144 160 144 160 318 c 2,22,-1
 160 782 l 2,23,24
 160 956 160 956 281.5 1038 c 128,-1,25
 403 1120 403 1120 575 1120 c 2,26,27
 595 1120 l 1,0,-1
575 140 m 128,-1,29
 673 140 673 140 741.5 181.5 c 128,-1,30
 810 223 810 223 810 322 c 2,31,-1
 810 778 l 2,32,33
 810 877 810 877 741.5 918.5 c 128,-1,34
 673 960 673 960 575 960 c 128,-1,35
 477 960 477 960 408.5 918.5 c 128,-1,36
 340 877 340 877 340 778 c 2,37,-1
 340 322 l 2,38,39
 340 223 340 223 408.5 181.5 c 128,-1,28
 477 140 477 140 575 140 c 128,-1,29
EndSplineSet
Validated: 1
EndChar

StartChar: oe
Encoding: 339 339 208
Width: 1737
Flags: W
HStem: -20 160<405.394 744.286 992.126 1331.66> 960 160<405.394 744.286 992.278 1331.61>
VStem: 160 180<200.732 899.268> 810 180<200.732 363 538 899.268> 1397 180<734 899.268>
DStem2: 990 538 990 363 0.901978 0.431782<0 451.734>
LayerCount: 2
Fore
SplineSet
575 140 m 128,-1,1
 673 140 673 140 741.5 181.5 c 128,-1,2
 810 223 810 223 810 322 c 2,3,-1
 810 778 l 2,4,5
 810 877 810 877 741.5 918.5 c 128,-1,6
 673 960 673 960 575 960 c 128,-1,7
 477 960 477 960 408.5 918.5 c 128,-1,8
 340 877 340 877 340 778 c 2,9,-1
 340 322 l 2,10,11
 340 223 340 223 408.5 181.5 c 128,-1,0
 477 140 477 140 575 140 c 128,-1,1
575 -20 m 0,12,13
 403 -20 403 -20 281.5 62 c 128,-1,14
 160 144 160 144 160 318 c 2,15,-1
 160 782 l 2,16,17
 160 956 160 956 281.5 1038 c 128,-1,18
 403 1120 403 1120 575 1120 c 0,19,20
 746 1120 746 1120 868 1038 c 1,21,22
 990 1120 990 1120 1162 1120 c 128,-1,23
 1334 1120 1334 1120 1455.5 1038 c 128,-1,24
 1577 956 1577 956 1577 782 c 2,25,-1
 1577 644 l 1,26,-1
 990 363 l 1,27,-1
 990 318 l 2,28,29
 990 252 990 252 972 199 c 1,30,31
 982 190 982 190 996 182 c 0,32,33
 1064 140 1064 140 1162 140 c 0,34,35
 1261 140 1261 140 1329 182 c 0,36,37
 1391 220 1391 220 1397 307 c 1,38,-1
 1567 388 l 1,39,-1
 1577 388 l 1,40,-1
 1577 318 l 2,41,42
 1577 144 1577 144 1455.5 62 c 128,-1,43
 1334 -20 1334 -20 1162 -20 c 128,-1,44
 990 -20 990 -20 868 62 c 1,45,46
 746 -20 746 -20 575 -20 c 0,12,13
990 538 m 1,47,-1
 1397 734 l 1,48,-1
 1397 778 l 2,49,50
 1397 877 1397 877 1328.5 918.5 c 128,-1,51
 1260 960 1260 960 1162 960 c 128,-1,52
 1064 960 1064 960 996 918 c 0,53,54
 983 910 983 910 972 901 c 1,55,56
 990 848 990 848 990 782 c 2,57,-1
 990 538 l 1,47,-1
EndSplineSet
Validated: 1
EndChar

StartChar: eng
Encoding: 331 331 209
Width: 1190
Flags: W
HStem: -410 21G<595 681> -20 21G<180 231.975> 960 160<425.394 764.606>
VStem: 180 180<61 899.268> 830 180<-189.562 899.268>
LayerCount: 2
Fore
SplineSet
190 -20 m 1,0,-1
 180 -20 l 9,1,-1
 180 782 l 2,2,3
 180 956 180 956 301.5 1038 c 128,-1,4
 423 1120 423 1120 595 1120 c 128,-1,5
 767 1120 767 1120 888.5 1038 c 128,-1,6
 1010 956 1010 956 1010 782 c 2,7,-1
 1010 -72 l 2,8,9
 1010 -246 1010 -246 888.5 -328 c 128,-1,10
 767 -410 767 -410 595 -410 c 1,11,-1
 595 -400 l 1,12,-1
 669 -243 l 1,13,14
 722 -233 722 -233 762 -208 c 0,15,16
 830 -167 830 -167 830 -68 c 2,17,-1
 830 778 l 2,18,19
 830 877 830 877 761.5 918.5 c 128,-1,20
 693 960 693 960 595 960 c 128,-1,21
 497 960 497 960 428.5 918.5 c 128,-1,22
 360 877 360 877 360 778 c 2,23,-1
 360 61 l 17,24,-1
 190 -20 l 1,0,-1
EndSplineSet
Validated: 1
EndChar

StartChar: kgreenlandic
Encoding: 312 312 210
Width: 1170
Flags: W
HStem: -20 21G<200 251.975 830 881.975> 1100 20G<328.025 380 796.582 868>
VStem: 200 180<61 559.268 711 1039> 830 180<61 559.268>
DStem2: 380 711 665 777 0.730889 0.682497<253.348 599.27>
LayerCount: 2
Fore
SplineSet
210 -20 m 1,0,-1
 200 -20 l 1,1,-1
 200 1039 l 1,2,-1
 370 1120 l 1,3,-1
 380 1120 l 1,4,-1
 380 711 l 1,5,-1
 818 1120 l 1,6,-1
 828 1120 l 1,7,-1
 968 1050 l 1,8,-1
 665 777 l 1,9,10
 790 763 790 763 888 698 c 0,11,12
 1010 616 1010 616 1010 442 c 2,13,-1
 1010 61 l 1,14,-1
 840 -20 l 1,15,-1
 830 -20 l 1,16,-1
 830 438 l 2,17,18
 830 537 830 537 761.5 578.5 c 128,-1,19
 693 620 693 620 605 620 c 128,-1,20
 517 620 517 620 448.5 578.5 c 128,-1,21
 380 537 380 537 380 438 c 2,22,-1
 380 61 l 1,23,-1
 210 -20 l 1,0,-1
EndSplineSet
Validated: 1
EndChar

StartChar: ij
Encoding: 307 307 211
Width: 1100
Flags: W
HStem: -410 21G<485 571> -20 21G<200 251.975> 1100 20G<328.025 380 848.025 900> 1220 245<206.097 373.903 726.097 893.903>
VStem: 170 240<1257.13 1427.87> 200 180<61 1039> 690 240<1257.13 1427.87> 720 180<-189.562 1039>
LayerCount: 2
Fore
SplineSet
485 -410 m 1,0,1
 485 -400 l 1,2,-1
 559 -243 l 1,3,4
 612 -233 612 -233 652 -208 c 0,5,6
 720 -167 720 -167 720 -68 c 2,7,8
 720 1039 l 17,9,-1
 890 1120 l 1,10,-1
 900 1120 l 9,11,-1
 900 -72 l 2,12,13
 900 -246 900 -246 778.5 -328 c 128,-1,14
 657 -410 657 -410 485 -410 c 1,0,1
200 -20 m 1,15,-1
 200 1039 l 1,16,-1
 370 1120 l 1,17,-1
 380 1120 l 1,18,-1
 380 61 l 1,19,-1
 210 -20 l 1,20,-1
 200 -20 l 1,15,-1
810 1465 m 128,-1,22
 860 1465 860 1465 895 1429 c 128,-1,23
 930 1393 930 1393 930 1342.5 c 128,-1,24
 930 1292 930 1292 895 1256 c 128,-1,25
 860 1220 860 1220 810 1220 c 128,-1,26
 760 1220 760 1220 725 1256 c 128,-1,27
 690 1292 690 1292 690 1342.5 c 128,-1,28
 690 1393 690 1393 725 1429 c 128,-1,21
 760 1465 760 1465 810 1465 c 128,-1,22
290 1465 m 128,-1,30
 340 1465 340 1465 375 1429 c 128,-1,31
 410 1393 410 1393 410 1342.5 c 128,-1,32
 410 1292 410 1292 375 1256 c 128,-1,33
 340 1220 340 1220 290 1220 c 128,-1,34
 240 1220 240 1220 205 1256 c 128,-1,35
 170 1292 170 1292 170 1342.5 c 128,-1,36
 170 1393 170 1393 205 1429 c 128,-1,29
 240 1465 240 1465 290 1465 c 128,-1,30
EndSplineSet
Validated: 1
EndChar

StartChar: hbar
Encoding: 295 295 212
Width: 1210
Flags: W
HStem: -20 21G<200 251.975 850 901.975> 960 160<444.194 784.606> 1250 120<92 200 380 528> 1510 20G<328.025 380>
VStem: 200 180<61 899.268 1051 1250 1370 1449> 850 180<61 899.268>
LayerCount: 2
Fore
SplineSet
210 -20 m 1,0,-1
 200 -20 l 1,1,-1
 200 1250 l 1,2,-1
 40 1250 l 1,3,-1
 40 1260 l 1,4,-1
 92 1370 l 1,5,-1
 200 1370 l 1,6,-1
 200 1449 l 1,7,-1
 370 1530 l 1,8,-1
 380 1530 l 1,9,-1
 380 1370 l 1,10,-1
 580 1370 l 1,11,-1
 580 1360 l 1,12,-1
 528 1250 l 1,13,-1
 380 1250 l 1,14,-1
 380 1051 l 1,15,16
 468 1120 468 1120 615 1120 c 0,17,18
 787 1120 787 1120 908.5 1038 c 128,-1,19
 1030 956 1030 956 1030 782 c 2,20,-1
 1030 61 l 1,21,-1
 860 -20 l 1,22,-1
 850 -20 l 1,23,-1
 850 778 l 2,24,25
 850 877 850 877 781.5 918.5 c 128,-1,26
 713 960 713 960 615 960 c 128,-1,27
 517 960 517 960 448.5 918.5 c 128,-1,28
 380 877 380 877 380 778 c 2,29,-1
 380 61 l 1,30,-1
 210 -20 l 1,0,-1
EndSplineSet
Validated: 1
EndChar

StartChar: longs
Encoding: 383 383 213
Width: 820
Flags: W
HStem: -20 21G<220 271.975> 740 160<81 220> 1350 160<466.502 739>
VStem: 220 180<61 740 900 1289.27>
LayerCount: 2
Fore
SplineSet
230 -20 m 1,0,-1
 220 -20 l 1,1,-1
 220 740 l 1,2,-1
 10 740 l 1,3,-1
 10 750 l 1,4,-1
 81 900 l 1,5,-1
 220 900 l 1,6,-1
 220 1172 l 2,7,8
 220 1346 220 1346 341.5 1428 c 128,-1,9
 463 1510 463 1510 635 1510 c 2,10,-1
 810 1510 l 1,11,-1
 810 1500 l 1,12,-1
 739 1350 l 1,13,-1
 635 1350 l 2,14,15
 537 1350 537 1350 468.5 1308.5 c 128,-1,16
 400 1267 400 1267 400 1168 c 2,17,-1
 400 61 l 1,18,-1
 230 -20 l 1,0,-1
EndSplineSet
Validated: 1
EndChar

StartChar: florin
Encoding: 402 402 214
Width: 800
Flags: W
HStem: -410 21G<-35 51> 740 160<380 680> 1350 160<446.502 719>
VStem: 200 180<-189.562 740 900 1289.27>
LayerCount: 2
Fore
SplineSet
-35 -410 m 1,0,-1
 -35 -400 l 1,1,-1
 39 -243 l 1,2,3
 92 -233 92 -233 132 -208 c 0,4,5
 200 -167 200 -167 200 -68 c 2,6,-1
 200 1172 l 2,7,8
 200 1346 200 1346 321.5 1428 c 128,-1,9
 443 1510 443 1510 615 1510 c 2,10,-1
 790 1510 l 1,11,-1
 790 1500 l 1,12,-1
 719 1350 l 1,13,-1
 615 1350 l 2,14,15
 517 1350 517 1350 448.5 1308.5 c 128,-1,16
 380 1267 380 1267 380 1168 c 2,17,-1
 380 900 l 1,18,-1
 751 900 l 1,19,-1
 751 890 l 1,20,-1
 680 740 l 1,21,-1
 380 740 l 1,22,-1
 380 -72 l 2,23,24
 380 -246 380 -246 258.5 -328 c 128,-1,25
 137 -410 137 -410 -35 -410 c 1,0,-1
EndSplineSet
Validated: 1
EndChar

StartChar: dcroat
Encoding: 273 273 215
Width: 1170
Flags: W
HStem: -20 160<405.394 744.606> 960 160<405.394 745.7> 1250 120<662 810 990 1098> 1510 20G<938.025 990>
VStem: 160 180<200.732 899.268> 810 180<200.732 899.268 1051 1250 1370 1449>
LayerCount: 2
Fore
SplineSet
575 -20 m 128,-1,1
 403 -20 403 -20 281.5 62 c 128,-1,2
 160 144 160 144 160 318 c 2,3,-1
 160 782 l 2,4,5
 160 956 160 956 281.5 1038 c 128,-1,6
 403 1120 403 1120 575 1120 c 0,7,8
 729 1120 729 1120 810 1051 c 1,9,-1
 810 1250 l 1,10,-1
 610 1250 l 1,11,-1
 610 1260 l 1,12,-1
 662 1370 l 1,13,-1
 810 1370 l 1,14,-1
 810 1449 l 1,15,-1
 980 1530 l 1,16,-1
 990 1530 l 1,17,-1
 990 1370 l 1,18,-1
 1150 1370 l 1,19,-1
 1150 1360 l 1,20,-1
 1098 1250 l 1,21,-1
 990 1250 l 1,22,-1
 990 318 l 2,23,24
 990 144 990 144 868.5 62 c 128,-1,0
 747 -20 747 -20 575 -20 c 128,-1,1
575 140 m 128,-1,26
 673 140 673 140 741.5 181.5 c 128,-1,27
 810 223 810 223 810 322 c 2,28,-1
 810 778 l 2,29,30
 810 877 810 877 741.5 918.5 c 128,-1,31
 673 960 673 960 575 960 c 128,-1,32
 477 960 477 960 408.5 918.5 c 128,-1,33
 340 877 340 877 340 778 c 2,34,-1
 340 322 l 2,35,36
 340 223 340 223 408.5 181.5 c 128,-1,25
 477 140 477 140 575 140 c 128,-1,26
EndSplineSet
Validated: 1
EndChar

StartChar: germandbls
Encoding: 223 223 216
Width: 1179
Flags: W
HStem: -20 160<586 852.498> 761 160<585 760.491> 1372 158<424.73 763.606>
VStem: 180 180<61 1309.56> 829 180<983.408 1309.56> 919 180<200.732 676.276>
LayerCount: 2
Fore
SplineSet
190 -20 m 1,0,-1
 180 -20 l 1,1,-1
 180 1192 l 2,2,3
 180 1366 180 1366 301 1448 c 128,-1,4
 422 1530 422 1530 594 1530 c 152,-1,5
 766 1530 766 1530 887.5 1448 c 128,-1,6
 1009 1366 1009 1366 1009 1192 c 2,7,-1
 1009 1084 l 2,8,9
 1009 928 1009 928 861 861 c 1,10,11
 1099 788 1099 788 1099 549 c 2,12,-1
 1099 318 l 2,13,14
 1099 144 1099 144 977.5 62 c 128,-1,15
 856 -20 856 -20 684 -20 c 2,16,-1
 515 -20 l 1,17,-1
 515 -10 l 1,18,-1
 586 140 l 1,19,-1
 684 140 l 2,20,21
 782 140 782 140 850.5 181.5 c 128,-1,22
 919 223 919 223 919 322 c 2,23,-1
 919 545 l 2,24,25
 919 646 919 646 846 706 c 0,26,27
 780 761 780 761 683 761 c 2,28,-1
 514 761 l 1,29,-1
 514 771 l 1,30,-1
 585 921 l 1,31,32
 683 921 683 921 756 962.5 c 128,-1,33
 829 1004 829 1004 829 1103 c 2,34,-1
 829 1190 l 2,35,36
 829 1289 829 1289 760.5 1330.5 c 128,-1,37
 692 1372 692 1372 594 1372 c 152,-1,38
 496 1372 496 1372 428 1330.5 c 128,-1,39
 360 1289 360 1289 360 1190 c 2,40,-1
 360 61 l 1,41,-1
 190 -20 l 1,0,-1
EndSplineSet
Validated: 1
EndChar

StartChar: ae
Encoding: 230 230 217
Width: 1631
Flags: W
HStem: -20 160<323.746 639.995 885.021 1225.66> 585 160<323.746 641.353> 940 160<311 634.137> 960 160<886.462 1225.61>
VStem: 80 180<200.732 524.268> 700 180<195.873 361 677 879.268> 1291 180<734 899.268>
DStem2: 880 536 880 361 0.901928 0.431887<0 456.206>
LayerCount: 2
Fore
SplineSet
480 -20 m 0,0,1
 323 -20 323 -20 201.5 62 c 128,-1,2
 80 144 80 144 80 318 c 2,3,-1
 80 407 l 2,4,5
 80 581 80 581 201.5 663 c 128,-1,6
 323 745 323 745 480 745 c 0,7,8
 615 745 615 745 700 677 c 1,9,-1
 700 758 l 2,10,11
 700 857 700 857 631.5 898.5 c 128,-1,12
 563 940 563 940 465 940 c 2,13,-1
 240 940 l 1,14,-1
 240 950 l 1,15,-1
 311 1100 l 1,16,-1
 465 1100 l 2,17,18
 628 1100 628 1100 746 1026 c 1,19,20
 754 1032 754 1032 762 1038 c 0,21,22
 884 1120 884 1120 1056 1120 c 128,-1,23
 1228 1120 1228 1120 1349.5 1038 c 128,-1,24
 1471 956 1471 956 1471 782 c 2,25,-1
 1471 644 l 1,26,-1
 880 361 l 1,27,-1
 880 188 l 1,28,29
 960 140 960 140 1056 140 c 0,30,31
 1155 140 1155 140 1223 182 c 0,32,33
 1285 220 1285 220 1291 307 c 1,34,-1
 1461 388 l 1,35,-1
 1471 388 l 1,36,-1
 1471 318 l 2,37,38
 1471 144 1471 144 1349.5 62 c 128,-1,39
 1228 -20 1228 -20 1056 -20 c 0,40,41
 921 -20 921 -20 817 31 c 1,42,-1
 710 -20 l 1,43,-1
 700 -20 l 1,44,-1
 700 48 l 1,45,46
 616 -20 616 -20 480 -20 c 0,0,1
482.5 140 m 128,-1,48
 568 140 568 140 636.5 181.5 c 128,-1,49
 705 223 705 223 705 322 c 2,50,-1
 705 403 l 2,51,52
 705 502 705 502 636.5 543.5 c 128,-1,53
 568 585 568 585 482.5 585 c 128,-1,54
 397 585 397 585 328.5 543.5 c 128,-1,55
 260 502 260 502 260 403 c 2,56,-1
 260 322 l 2,57,58
 260 223 260 223 328.5 181.5 c 128,-1,47
 397 140 397 140 482.5 140 c 128,-1,48
880 536 m 1,59,-1
 1291 734 l 1,60,-1
 1291 778 l 2,61,62
 1291 877 1291 877 1222.5 918.5 c 128,-1,63
 1154 960 1154 960 1056 960 c 128,-1,64
 958 960 958 960 890 918 c 0,65,66
 872 907 872 907 858 893 c 1,67,68
 880 836 880 836 880 762 c 2,69,-1
 880 536 l 1,59,-1
EndSplineSet
Validated: 1
EndChar

StartChar: S
Encoding: 83 83 218
Width: 1130
Flags: W
HStem: -20 180<356.986 752.312> 751 200<408.223 758.048> 1350 180<407.674 727.127>
VStem: 148 200<1007.75 1291.77> 850 200<246.606 668.172>
LayerCount: 2
Fore
SplineSet
554.5 -20 m 128,-1,1
 354 -20 354 -20 207 76 c 0,2,3
 70 166 70 166 60 357 c 1,4,-1
 250 448 l 1,5,-1
 260 448 l 9,6,-1
 260 384 l 2,7,8
 260 257 260 257 349 208.5 c 128,-1,9
 438 160 438 160 554.5 160 c 128,-1,10
 671 160 671 160 760.5 208.5 c 128,-1,11
 850 257 850 257 850 384 c 2,12,-1
 850 527 l 2,13,14
 850 654 850 654 766 702.5 c 128,-1,15
 682 751 682 751 563 751 c 8,16,17
 391 751 391 751 269.5 833 c 128,-1,18
 148 915 148 915 148 1089 c 2,19,-1
 148 1192 l 2,20,21
 148 1366 148 1366 269.5 1448 c 128,-1,22
 391 1530 391 1530 563 1530 c 24,23,24
 734 1530 734 1530 856 1448 c 0,25,26
 964 1375 964 1375 977 1230 c 1,27,-1
 798 1145 l 1,28,-1
 788 1145 l 1,29,-1
 788 1168 l 2,30,31
 788 1267 788 1267 724 1308.5 c 128,-1,32
 660 1350 660 1350 567 1350 c 152,-1,33
 474 1350 474 1350 411 1308.5 c 128,-1,34
 348 1267 348 1267 348 1168 c 2,35,-1
 348 1133 l 2,36,37
 348 1034 348 1034 411 992.5 c 128,-1,38
 474 951 474 951 562 951 c 16,39,40
 763 951 763 951 906.5 855 c 128,-1,41
 1050 759 1050 759 1050 547 c 2,42,-1
 1050 384 l 2,43,44
 1050 172 1050 172 902.5 76 c 128,-1,0
 755 -20 755 -20 554.5 -20 c 128,-1,1
EndSplineSet
Validated: 1
EndChar

StartChar: s
Encoding: 115 115 219
Width: 930
Flags: W
HStem: -20 160<299.061 614.312> 514 161<345.748 614.304> 961 159<346.362 584.45>
VStem: 131 174<711.615 928.301> 670 180<196.101 461.203>
LayerCount: 2
Fore
SplineSet
454 -20 m 0,0,1
 291 -20 291 -20 181 62 c 0,2,3
 70 145 70 145 60 285 c 1,4,-1
 229 366 l 1,5,-1
 239 366 l 1,6,-1
 239 322 l 2,7,8
 239 223 239 223 302 181.5 c 128,-1,9
 365 140 365 140 459 140 c 128,-1,10
 553 140 553 140 611.5 181.5 c 128,-1,11
 670 223 670 223 670 322 c 2,12,-1
 670 350 l 2,13,14
 670 431 670 431 616 472.5 c 128,-1,15
 562 514 562 514 473 514 c 0,16,17
 320 514 320 514 225.5 584 c 128,-1,18
 131 654 131 654 131 802 c 2,19,-1
 131 832 l 2,20,21
 131 980 131 980 227.5 1050 c 128,-1,22
 324 1120 324 1120 466 1120 c 0,23,24
 606 1120 606 1120 699 1050 c 128,-1,25
 792 980 792 980 801 869 c 1,26,-1
 638 792 l 1,27,-1
 628 792 l 1,28,-1
 628 839 l 2,29,30
 628 898 628 898 576 932 c 0,31,32
 533 961 533 961 464 961 c 0,33,34
 399 961 399 961 356 933 c 0,35,36
 305 901 305 901 305 839 c 2,37,-1
 305 805 l 2,38,39
 305 746 305 746 344.5 710.5 c 128,-1,40
 384 675 384 675 479 675 c 0,41,42
 642 675 642 675 746 593 c 128,-1,43
 850 511 850 511 850 354 c 2,44,-1
 850 318 l 2,45,46
 850 144 850 144 736.5 62 c 128,-1,47
 623 -20 623 -20 454 -20 c 0,0,1
EndSplineSet
Validated: 1
EndChar

StartChar: Aringacute
Encoding: 506 506 220
Width: 1370
Flags: W
HStem: -20 21G<180 232.222 990 1042.22> 665 180<380 990> 1350 180<478.798 891.904> 1570 98<524.776 662.24> 1836 98<525.247 662.469>
VStem: 180 200<70 665 845 1263.39> 410 97<1686.75 1818.1> 673 97<1678.01 1825.38> 990 200<70 665 845 1263.39>
DStem2: 752 1626 880 1570 0.427336 0.904093<4.06987 343.991>
LayerCount: 2
Fore
SplineSet
190 -20 m 1,0,-1
 180 -20 l 1,1,-1
 180 1126 l 2,2,3
 180 1338 180 1338 327.5 1434 c 128,-1,4
 475 1530 475 1530 685.5 1530 c 128,-1,5
 896 1530 896 1530 1043 1434 c 128,-1,6
 1190 1338 1190 1338 1190 1126 c 2,7,-1
 1190 70 l 1,8,-1
 1000 -20 l 1,9,-1
 990 -20 l 1,10,-1
 990 665 l 1,11,-1
 380 665 l 1,12,-1
 380 70 l 1,13,-1
 190 -20 l 1,0,-1
380 845 m 1,14,-1
 990 845 l 1,15,-1
 990 1126 l 2,16,17
 990 1253 990 1253 901 1301.5 c 128,-1,18
 812 1350 812 1350 685.5 1350 c 128,-1,19
 559 1350 559 1350 469.5 1301.5 c 128,-1,20
 380 1253 380 1253 380 1126 c 2,21,-1
 380 845 l 1,14,-1
591 1836 m 0,22,23
 556 1835 556 1835 532 1811 c 0,24,25
 507 1786 507 1786 507 1752 c 128,-1,26
 507 1718 507 1718 531 1694 c 128,-1,27
 555 1670 555 1670 590 1668 c 256,28,29
 626 1668 626 1668 648 1693 c 0,30,31
 672 1719 672 1719 673 1752 c 0,32,33
 672 1789 672 1789 648 1811 c 0,34,35
 622 1835 622 1835 591 1836 c 0,22,23
592 1934 m 0,36,37
 665 1934 665 1934 717 1881 c 0,38,39
 770 1826 770 1826 770 1753 c 0,40,41
 770 1677 770 1677 717 1624 c 0,42,43
 663 1570 663 1570 590 1570 c 256,44,45
 517 1570 517 1570 463 1624 c 0,46,47
 410 1677 410 1677 410 1753 c 0,48,49
 410 1827 410 1827 463 1881 c 0,50,51
 516 1934 516 1934 592 1934 c 0,36,37
909 1937 m 1,52,-1
 1029 1880 l 1,53,-1
 880 1570 l 1,54,-1
 870 1570 l 1,55,-1
 752 1626 l 1,56,-1
 899 1937 l 1,57,-1
 909 1937 l 1,52,-1
EndSplineSet
Validated: 1
EndChar

StartChar: aringacute
Encoding: 507 507 221
Width: 1060
Flags: W
HStem: -20 160<323.746 639.995> 585 160<323.746 641.353> 940 160<311 633.498> 1160 98<350.776 488.24> 1426 98<351.247 488.469>
VStem: 80 180<200.732 524.268> 236 97<1276.75 1408.1> 499 97<1268.01 1415.38> 700 180<195.873 529.127 677 879.268>
DStem2: 578 1216 706 1160 0.427336 0.904093<4.06987 343.991>
LayerCount: 2
Fore
SplineSet
710 -20 m 1,0,-1
 700 -20 l 1,1,-1
 700 48 l 1,2,3
 616 -20 616 -20 480 -20 c 0,4,5
 323 -20 323 -20 201.5 62 c 128,-1,6
 80 144 80 144 80 318 c 2,7,-1
 80 407 l 2,8,9
 80 581 80 581 201.5 663 c 128,-1,10
 323 745 323 745 480 745 c 0,11,12
 615 745 615 745 700 677 c 1,13,-1
 700 758 l 2,14,15
 700 857 700 857 631.5 898.5 c 128,-1,16
 563 940 563 940 465 940 c 2,17,-1
 240 940 l 1,18,-1
 240 950 l 1,19,-1
 311 1100 l 1,20,-1
 465 1100 l 2,21,22
 637 1100 637 1100 758.5 1018 c 128,-1,23
 880 936 880 936 880 762 c 2,24,-1
 880 61 l 1,25,-1
 710 -20 l 1,0,-1
482.5 140 m 128,-1,27
 568 140 568 140 636.5 181.5 c 128,-1,28
 705 223 705 223 705 322 c 2,29,-1
 705 403 l 2,30,31
 705 502 705 502 636.5 543.5 c 128,-1,32
 568 585 568 585 482.5 585 c 128,-1,33
 397 585 397 585 328.5 543.5 c 128,-1,34
 260 502 260 502 260 403 c 2,35,-1
 260 322 l 2,36,37
 260 223 260 223 328.5 181.5 c 128,-1,26
 397 140 397 140 482.5 140 c 128,-1,27
417 1426 m 0,38,39
 382 1425 382 1425 358 1401 c 0,40,41
 333 1376 333 1376 333 1342 c 128,-1,42
 333 1308 333 1308 357 1284 c 128,-1,43
 381 1260 381 1260 416 1258 c 256,44,45
 452 1258 452 1258 474 1283 c 0,46,47
 498 1309 498 1309 499 1342 c 0,48,49
 498 1379 498 1379 474 1401 c 0,50,51
 448 1425 448 1425 417 1426 c 0,38,39
418 1524 m 0,52,53
 491 1524 491 1524 543 1471 c 0,54,55
 596 1416 596 1416 596 1343 c 0,56,57
 596 1267 596 1267 543 1214 c 0,58,59
 489 1160 489 1160 416 1160 c 256,60,61
 343 1160 343 1160 289 1214 c 0,62,63
 236 1267 236 1267 236 1343 c 0,64,65
 236 1417 236 1417 289 1471 c 0,66,67
 342 1524 342 1524 418 1524 c 0,52,53
735 1527 m 1,68,-1
 855 1470 l 1,69,-1
 706 1160 l 1,70,-1
 696 1160 l 1,71,-1
 578 1216 l 1,72,-1
 725 1527 l 1,73,-1
 735 1527 l 1,68,-1
EndSplineSet
Validated: 1
EndChar

